<?xml version="1.0" encoding="utf-8"?>
<!-- Generator: Adobe Illustrator 25.2.1, SVG Export Plug-In . SVG Version: 6.00 Build 0)  -->
<svg version="1.1" id="Layer_1" xmlns="http://www.w3.org/2000/svg" xmlns:xlink="http://www.w3.org/1999/xlink" x="0px" y="0px"
	 viewBox="0 0 224 224" style="enable-background:new 0 0 224 224;" xml:space="preserve">
<style type="text/css">
	.st0{fill-rule:evenodd;clip-rule:evenodd;fill:#F8F9FA;}
</style>
<g id="Page-1">
	<g id="_x30_1-home-copy" transform="translate(-136.000000, -3748.000000)">
		<g id="work-copy-4" transform="translate(45.000000, 2564.000000)">
			<g id="btn" transform="translate(91.000000, 1184.000000)">
				<path id="allwork" class="st0" d="M115.6,213.3l0.2,10.6l-1.4,0l-0.2-9.5l-5.6,0.1l0-1.2L115.6,213.3z M94,211.9l1.5,0.2
					l1.2,9.2l0,0l3.7-8.5l1.5,0.2l1.2,10.9l-1.4-0.2l-0.8-9.1l0,0l-3.6,8.4l-1.5-0.2l-1.1-9.1l0,0l-3.4,8.5l-1.4-0.2L94,211.9z
					 M123.6,212.8l0.9,10.6l-1.4,0.1l-0.8-9.4l-5.6,0.5l-0.1-1.2L123.6,212.8z M134.2,211.1l-2.3,11.2l-1.5,0.3l-5.9-9.8l1.5-0.3
					l1.7,3l4.4-0.8l0.6-3.4L134.2,211.1z M131.9,215.9l-3.6,0.6l2.6,4.6l0,0L131.9,215.9z M85.9,209.7c3.3,0.9,4.2,3.9,3.5,6.7
					c-0.7,2.8-3.1,4.9-6.4,4.1c-3.3-0.9-4.2-3.9-3.5-6.7C80.3,211,82.6,208.9,85.9,209.7z M80.9,214.2c-0.6,2.1-0.1,4.5,2.4,5.2
					c2.5,0.7,4.1-1.2,4.7-3.3c0.6-2.1,0.1-4.5-2.4-5.2C83.1,210.2,81.4,212.1,80.9,214.2z M71.4,205.1l1.5,0.6
					c0.2,0.5-0.4,1.5-0.6,2.6c-0.2,1-0.3,1.9,1,2.4l3.2,1.2l1.6-4.2l1.3,0.5l-3.8,9.9l-4.7-1.8c-1.9-0.7-2.6-2.2-2-3.8
					c0.5-1.2,1.3-2,2.7-1.9l0,0c-1.1-0.7-1-1.6-0.7-2.6C71.3,207,71.7,205.9,71.4,205.1z M70.4,212.8c-0.4,1-0.1,1.9,1.1,2.4
					l3.3,1.3l1.3-3.5l-2.8-1.1C72.1,211.5,70.9,211.4,70.4,212.8z M62.3,200.5l1.6,0.8l1,6.5l2.3-0.7l1.7-3.3l1.3,0.6l-4.8,9.5
					l-1.3-0.6l2.4-4.8l-7.2,2.3l-1.6-0.8l5.9-1.8L62.3,200.5z M155.1,207.8l0.4,1.1l-10.3,4l-0.4-1.1L155.1,207.8z M169.8,195.3
					l5.7,9l-1.2,0.8l-2.9-4.5l-1.7,7.4l-1.5,1l1.5-6l-7.4-2.8l1.5-1l6.1,2.5l0.6-2.4l-2-3.1L169.8,195.3z M177.7,189.2l6.6,8.4
					l-3.9,3.1c-1.6,1.2-3.2,1.2-4.3-0.2c-0.8-1-1-2.2-0.2-3.3l0,0c-1.1,0.6-1.9,0-2.6-0.7c-0.7-0.8-1.4-1.7-2.3-1.9l1.2-1
					c0.6,0.1,1.1,1.1,1.9,1.8c0.8,0.7,1.5,1.3,2.6,0.4l2.7-2.1l-2.8-3.6L177.7,189.2z M180.1,194.6l-2.3,1.8c-1,0.8-1.7,1.8-0.8,3
					c0.7,0.8,1.6,1.1,2.6,0.3l2.8-2.2L180.1,194.6z M43.2,191.4l8.7,6.8l-0.7,0.9l-8.7-6.8L43.2,191.4z M189.9,185
					c2,2.1,2.7,5.2,0.2,7.6c-2.4,2.4-5.5,1.6-7.5-0.4c-2-2.1-2.7-5.2-0.2-7.6C184.8,182.2,187.9,182.9,189.9,185z M183.2,185.4
					c-1.9,1.8-1.1,4.2,0.4,5.7c1.5,1.5,3.8,2.4,5.7,0.6c1.9-1.8,1.1-4.2-0.4-5.7C187.4,184.5,185,183.6,183.2,185.4z M193.3,172.6
					l10,4.6l-0.9,1.1l-8.2-4l0,0l5.4,7.4l-1,1.2l-8.4-3.7l0,0l5.5,7.3l-0.9,1.1l-6.5-8.9l0.9-1.1l8.5,3.7l0,0l-5.4-7.5L193.3,172.6z
					 M32,174.5l1,1.2l-1.7,3l2.9,3.4l3.2-1.2l1,1.1l-10.8,3.8l-1-1.2L32,174.5z M30.8,179.7l-2.6,4.6l0,0l4.9-1.9L30.8,179.7z
					 M27.4,168.1l4.1,5.7L23,180l-0.8-1.1l7.7-5.5l-3.3-4.6L27.4,168.1z M23.2,161.1l3.7,6l-9.1,5.5l-0.7-1.2l8.1-4.9l-2.9-4.8
					L23.2,161.1z M200.7,161l9.2,5.4l-0.7,1.2l-8.1-4.8l-2.9,4.8l-1-0.6L200.7,161z M17.1,147.8l0.6,1.4l-7.3,5.7l0,0l9.2-1.2
					l0.6,1.4l-8.7,6.7l-0.6-1.3l7.3-5.4l0,0l-9.1,1.3l-0.6-1.4l7.2-5.6l0,0l-9,1.5l-0.6-1.3L17.1,147.8z M204.3,153.8l9.6,4.7
					l-0.6,1.3l-8.5-4.1l-2.5,5.1l-1.1-0.5L204.3,153.8z M208.3,143.8l8.4,7.7l-0.6,1.5l-11.4,0.1l0.6-1.5l3.4,0.1l1.6-4.2l-2.6-2.3
					L208.3,143.8z M211.3,148.3l-1.3,3.4l5.3,0.1l0,0L211.3,148.3z M14.8,139.8c0.9,3.3-1.2,5.6-4,6.4C8,147,5,146.1,4.1,142.8
					c-0.9-3.3,1.2-5.6,4-6.4C10.8,135.6,13.9,136.5,14.8,139.8z M8.4,137.8c-2.1,0.6-3.9,2.2-3.2,4.7s3.2,2.9,5.2,2.3
					s3.9-2.2,3.2-4.7C12.9,137.6,10.5,137.2,8.4,137.8z M11.4,125l0.3,1.6c-0.4,0.5-1.5,0.4-2.5,0.8c-1,0.3-1.8,0.7-1.6,2.1l0.6,3.4
					l4.5-0.8l0.2,1.4l-10.5,1.8l-0.9-4.9c-0.3-2,0.5-3.4,2.2-3.7c1.3-0.2,2.4,0.1,3,1.4l0,0c0-1.3,0.9-1.7,1.9-1.9
					C9.6,125.9,10.8,125.7,11.4,125z M216.3,124.2l1.2,0.2l-1.8,10.9l-1.2-0.2L216.3,124.2z M4.2,128.1c-1,0.2-1.7,0.9-1.5,2.2
					l0.6,3.5l3.7-0.6l-0.5-2.9C6.3,128.9,5.7,127.8,4.2,128.1z M10.6,114.9l0.1,1.8l-5.1,4.2l1.8,1.6l3.7-0.3l0.1,1.4l-10.6,0.8
					l-0.1-1.4l5.3-0.4l-5.7-5L0,115.8l4.6,4.2L10.6,114.9z M223.7,104.8l0,1.4l-5.3,0.2l5.5,5.2l0.1,1.8l-4.4-4.4l-6.2,4.9l-0.1-1.8
					l5.3-4l-1.7-1.7l-3.7,0.1l0-1.4L223.7,104.8z M7.4,93.6l1.2,0.1l-1.3,11l-1.2-0.1L7.4,93.6z M222.5,93.9l0.6,5
					c0.3,2-0.7,3.3-2.4,3.6c-1.3,0.2-2.4-0.3-2.9-1.5l0,0c-0.1,1.3-1,1.6-2,1.9c-1,0.2-2.2,0.3-2.8,1l-0.2-1.6
					c0.4-0.5,1.5-0.4,2.6-0.7c1-0.3,1.9-0.6,1.7-2l-0.4-3.4l-4.5,0.6l-0.2-1.4L222.5,93.9z M221.5,95.5l-3.7,0.5l0.4,2.9
					c0.2,1.3,0.7,2.4,2.2,2.2c1.1-0.1,1.7-0.8,1.6-2.1L221.5,95.5z M221.2,86.3c0.8,3.3-1.4,5.6-4.3,6.2c-2.8,0.7-5.8-0.4-6.6-3.7
					c-0.8-3.3,1.4-5.6,4.3-6.2C217.4,82,220.4,83,221.2,86.3z M214.9,84c-2.1,0.5-4,2.1-3.4,4.6c0.6,2.5,3,3.1,5.1,2.6
					c2.1-0.5,4-2.1,3.4-4.6C219.4,84.1,217,83.5,214.9,84z M17.4,75.5l-0.5,1.5L13.5,77L12,81.3l2.7,2.1l-0.5,1.4l-8.8-7.3L5.9,76
					L17.4,75.5z M214.7,67.1l0.5,1.4l-7.6,5l0,0l9.1-0.8l0.5,1.4l-7.5,5.3l0,0l9.1-1l0.5,1.3l-11,1l-0.5-1.4l7.6-5.4l0,0l-9.2,0.8
					l-0.5-1.4L214.7,67.1z M12.2,77.1l-5.3,0.1l0,0l4.1,3.3L12.2,77.1z M19.4,67.7l1.1,0.5l-2.8,6.5L8,70.5l0.6-1.3l8.7,3.7
					L19.4,67.7z M23.3,60.5l1.1,0.6L21,67.3l-9.4-5l0.7-1.3l8.4,4.4L23.3,60.5z M208.9,55.9l0.7,1.2l-8.3,4.5l2.7,5l-1,0.6l-3.4-6.2
					L208.9,55.9z M204.1,48.3l0.8,1.2l-7.9,5.2l3.1,4.7l-1,0.7l-3.9-5.9L204.1,48.3z M25.6,40.4l6.9,8.6l-0.9,1.2L23,46.9l0,0
					l5.8,7.3l-0.9,1.2l-10.2-4.1l0.9-1.2l8.4,3.6l0,0l-5.7-7.2l0.9-1.2l8.5,3.3l0,0l-5.9-7L25.6,40.4z M199.6,42.4l1,1.2l-5.8,9.9
					l-1-1.2l1.8-2.9l-2.8-3.5l-3.3,1l-0.9-1.1L199.6,42.4z M199.1,43.7l-5,1.6l2.2,2.8L199.1,43.7L199.1,43.7z M37.7,35.3
					c2.1,2,2.9,5.1,0.6,7.5c-2.3,2.5-5.4,1.9-7.6-0.1c-2.1-2-2.9-5.1-0.6-7.5C32.5,32.7,35.6,33.3,37.7,35.3z M31,36
					c-1.8,1.9-0.9,4.2,0.7,5.7c1.6,1.5,3.9,2.2,5.7,0.3c1.8-1.9,0.9-4.2-0.7-5.7C35.2,34.9,32.8,34.1,31,36z M43.8,26.7
					c0.8,1,1.1,2.1,0.4,3.3l0,0c1.1-0.6,1.9-0.1,2.6,0.6c0.7,0.7,1.5,1.7,2.4,1.8l-1.2,1c-0.6-0.1-1.2-1.1-2-1.7
					c-0.8-0.7-1.6-1.2-2.6-0.3l-2.6,2.3l3,3.4L42.7,38l-7-8l3.8-3.3C41,25.4,42.6,25.4,43.8,26.7z M176.8,27.9l8.4,7.2l-0.8,0.9
					l-8.4-7.2L176.8,27.9z M40.2,27.6l-2.7,2.3l2.4,2.8l2.2-1.9c1-0.9,1.6-1.9,0.6-3C42.1,27,41.2,26.8,40.2,27.6z M51.2,17.8
					L50,23.9l7.5,2.5l-1.5,1l-6.3-2.2l-0.5,2.4l2.2,3l-1.2,0.8l-6.2-8.7l1.2-0.8l3.1,4.3l1.3-7.5L51.2,17.8z M163.2,12.4l1.2,0.7
					l-2.6,4.6l7.3-2l1.6,0.9l-6,1.6l1,7.8l-1.6-0.9l-0.7-6.6l-2.4,0.6l-1.8,3.3l-1.2-0.7L163.2,12.4z M153.2,7.8l4.6,2
					c1.8,0.8,2.5,2.3,1.8,3.9c-0.5,1.2-1.4,1.9-2.8,1.7l0,0c1,0.7,0.9,1.7,0.6,2.6c-0.3,1-0.9,2-0.6,2.9l-1.4-0.6
					c-0.2-0.6,0.5-1.5,0.7-2.6c0.3-1,0.4-1.9-0.9-2.5L152,14l-1.8,4.2l-1.3-0.6L153.2,7.8z M74,12.8l0.5,1.1l-10.1,4.5L64,17.3
					L74,12.8z M146,5c3.2,1,4.1,4.1,3.2,6.9c-0.9,2.8-3.3,4.8-6.5,3.8c-3.2-1-4-4.1-3.2-6.9C140.4,6,142.8,4,146,5z M140.8,9.2
					c-0.7,2-0.3,4.5,2.2,5.3c2.5,0.8,4.2-1,4.8-3.1c0.7-2,0.3-4.5-2.2-5.3C143.2,5.4,141.5,7.2,140.8,9.2z M154,9.5l-1.5,3.4
					l2.7,1.2c1.2,0.5,2.4,0.7,3-0.7c0.4-1,0.2-1.9-1-2.4L154,9.5z M126.2,0.7l1.4,0.3l0.4,9.1l0,0l4-8.3l1.5,0.3l0.7,9.1l0,0L138,3
					l1.4,0.3l-4.8,9.9l-1.5-0.3l-0.7-9.2l0,0l-4.1,8.3l-1.5-0.3L126.2,0.7z M98.8,0.8l5.4,10.1l-1.6,0.2l-1.6-3l-4.5,0.6l-0.8,3.3
					l-1.5,0.2L97.2,1L98.8,0.8z M113.6,0l1.4,0.1l-0.4,9.5l5.6,0.2l0,1.2l-7-0.3L113.6,0z M106.1,0.2l0.4,9.5l5.6-0.2l0,1.2l-7,0.3
					l-0.4-10.6L106.1,0.2z M98.1,2.2L98.1,2.2l-1.2,5.2l3.6-0.4L98.1,2.2z"/>
			</g>
		</g>
	</g>
</g>
</svg>
