<svg id="Groupe_259" data-name="Groupe 259" xmlns="http://www.w3.org/2000/svg" xmlns:xlink="http://www.w3.org/1999/xlink" width="129.463" height="100.717" viewBox="0 0 129.463 100.717">
  <defs>
    <clipPath id="clip-path">
      <rect id="Rectangle_1929" data-name="Rectangle 1929" width="129.463" height="100.717" fill="none"/>
    </clipPath>
  </defs>
  <g id="Groupe_202" data-name="Groupe 202" clip-path="url(#clip-path)">
    <path id="Tracé_7897" data-name="Tracé 7897" d="M126.926,24.831a3.05,3.05,0,0,1,2.159,4.492,6.326,6.326,0,0,1-1.649,1.906c-1,.824-2.061,1.576-3.135,2.305-.2.136-.355.232-.209.551a9.377,9.377,0,0,1,.4,6.179c-.114.493-.075.779.458.962a3.692,3.692,0,0,1,1.389.872,1.3,1.3,0,0,1,.258,1.759,5.6,5.6,0,0,1-1.6,1.716,2.939,2.939,0,0,0-1.208,2.827,24.774,24.774,0,0,1-.005,4.068,2.75,2.75,0,0,0,1.1,2.582,7.376,7.376,0,0,1,1.506,1.49A1.474,1.474,0,0,1,126,58.909a8.042,8.042,0,0,1-1.881.968,2.607,2.607,0,0,0-1.7,1.955,37.5,37.5,0,0,1-1.22,4.062,2.6,2.6,0,0,0,.357,2.563,7.3,7.3,0,0,1,1.11,2,1.323,1.323,0,0,1-.9,1.869,7.6,7.6,0,0,1-2.252.424,2.568,2.568,0,0,0-2.136,1.367,38.361,38.361,0,0,1-2.215,3.41,2.62,2.62,0,0,0-.364,2.618,8.245,8.245,0,0,1,.513,2.054,1.259,1.259,0,0,1-1.037,1.566c-.55.03-1.1-.054-1.648-.007-.33-.045-.665-.068-.988-.14a2.4,2.4,0,0,0-2.286.638q-1.593,1.5-3.293,2.87a2.447,2.447,0,0,0-.919,2.19,8.47,8.47,0,0,1-.064,2.119c-.21,1.137-.817,1.549-1.939,1.276a7.428,7.428,0,0,1-1.853-.752A2.622,2.622,0,0,0,98.6,91.95a37.6,37.6,0,0,1-3.737,1.743,2.575,2.575,0,0,0-1.645,1.932,7.555,7.555,0,0,1-.751,2.164,1.347,1.347,0,0,1-2.031.62,7.074,7.074,0,0,1-1.783-1.347,2.634,2.634,0,0,0-2.544-.738,42.535,42.535,0,0,1-4.435.656,2.521,2.521,0,0,0-2.012,1.268,10.508,10.508,0,0,1-1.189,1.685,1.621,1.621,0,0,1-2.756.038,9.265,9.265,0,0,1-1.2-1.678,2.548,2.548,0,0,0-2.046-1.313,44.4,44.4,0,0,1-4.493-.664,2.567,2.567,0,0,0-2.439.711,7.769,7.769,0,0,1-1.723,1.332,1.4,1.4,0,0,1-2.194-.676,8.654,8.654,0,0,1-.706-2.12,2.5,2.5,0,0,0-1.58-1.847c-1.329-.542-2.627-1.151-3.9-1.815a2.475,2.475,0,0,0-2.425-.008A8.811,8.811,0,0,1,51,92.715a1.386,1.386,0,0,1-1.934-1.283A8.656,8.656,0,0,1,49,89.313a2.477,2.477,0,0,0-.967-2.229c-1.092-.874-2.151-1.785-3.16-2.753a2.5,2.5,0,0,0-2.435-.7c-.3.071-.62.088-.931.129-.549-.011-1.1.02-1.648.005a.961.961,0,0,1-.937-.82c.011-.392.01-.784,0-1.177a5.822,5.822,0,0,1,.43-1.645A2.623,2.623,0,0,0,39,77.555a38.287,38.287,0,0,1-2.218-3.411,2.591,2.591,0,0,0-2.184-1.394,7.9,7.9,0,0,1-2.087-.368,1.39,1.39,0,0,1-.981-2.068,7.727,7.727,0,0,1,1.05-1.839,2.623,2.623,0,0,0,.357-2.618,37.822,37.822,0,0,1-1.218-4.064,2.581,2.581,0,0,0-1.67-1.911,7.739,7.739,0,0,1-2.027-1.072,1.433,1.433,0,0,1-.67-1.413,1.108,1.108,0,0,0-.113-.57,43.375,43.375,0,0,1-2.187-8.615,37.716,37.716,0,0,1-.279-4.18c-.012-.412-.132-.49-.508-.418q-1.507.286-3.024.521a1.383,1.383,0,0,0-.751.419,48.58,48.58,0,0,0-4.321,5,41.065,41.065,0,0,1-5.019,5.318A16.978,16.978,0,0,1,6.1,57.867a4.122,4.122,0,0,1-3.888-.435,3.16,3.16,0,0,1-1.155-4.186,5.777,5.777,0,0,1,1.185-1.606,86.007,86.007,0,0,0,6.141-6.7c.121-.146.3-.26.338-.52-.635-.042-1.26-.085-1.884-.124a17.4,17.4,0,0,1-4.755-.8,3.049,3.049,0,0,1-1.8-4.133,3.191,3.191,0,0,1,2.17-1.669,62.014,62.014,0,0,1,6.787-1.519c2.3-.407,4.6-.872,6.9-1.285.33-.059.455-.278.615-.489a79.27,79.27,0,0,0,7.3-11.9c1.232-2.395,2.4-4.822,3.629-7.219a4.481,4.481,0,0,1,8.457,1.053,19.93,19.93,0,0,1,.179,3.3,62.8,62.8,0,0,1-.428,7.919,2.273,2.273,0,0,0,.806-.839c.731-1.236,1.508-2.443,2.347-3.609a2.5,2.5,0,0,0,.337-2.408,9.619,9.619,0,0,1-.547-2.168,1.269,1.269,0,0,1,1.15-1.594,2.959,2.959,0,0,0,1.175-.007,5.426,5.426,0,0,1,1.338.188,2.484,2.484,0,0,0,2.292-.639q1.588-1.5,3.292-2.871A2.437,2.437,0,0,0,49,11.41a8.549,8.549,0,0,1,.072-2.177A1.357,1.357,0,0,1,50.935,8a8.184,8.184,0,0,1,2.019.808A2.558,2.558,0,0,0,55.49,8.8c1.25-.664,2.537-1.251,3.845-1.791a2.505,2.505,0,0,0,1.58-1.844,8.753,8.753,0,0,1,.705-2.12,1.413,1.413,0,0,1,2.2-.676A8.012,8.012,0,0,1,65.542,3.7a2.577,2.577,0,0,0,2.434.712,37.631,37.631,0,0,1,4.378-.641,2.673,2.673,0,0,0,2.228-1.435A7.28,7.28,0,0,1,75.924.545,1.486,1.486,0,0,1,78.217.538,7.06,7.06,0,0,1,79.56,2.324a2.667,2.667,0,0,0,2.224,1.441,39.473,39.473,0,0,1,4.436.647A2.543,2.543,0,0,0,88.6,3.7a8.563,8.563,0,0,1,1.671-1.3,1.435,1.435,0,0,1,2.281.687,16.676,16.676,0,0,1,.834,2.576c.215-.036.21-.224.272-.347A29.156,29.156,0,0,1,95.39,2.3a4.333,4.333,0,0,1,8.019,2.216c.029.745,0,1.492,0,2.294a3.777,3.777,0,0,1,3.243.371,3.227,3.227,0,0,1,1.471,1.7,10.169,10.169,0,0,1,.123,2.713,5.577,5.577,0,0,1-1.087,2.38c-.183.276-.157.4.086.607.717.61,1.413,1.246,2.106,1.883a2.5,2.5,0,0,0,2.341.63,8.982,8.982,0,0,1,1.688-.227c.671-.014,1.356-.033,1.773.652.11.18.288.063.429.106.471-.012.943.05,1.414,0a8.93,8.93,0,0,1,2.84.693,3.325,3.325,0,0,1,1.888,2.608,13.167,13.167,0,0,0,1.2,4.228c.173.334.287.467.685.274a5.244,5.244,0,0,1,1.895-.6c.472,0,.943,0,1.415,0" transform="translate(0 0)" fill="#212224"/>
    <path id="Tracé_7898" data-name="Tracé 7898" d="M470.435,41.368c-.293-.114-.194-.436-.144-.545a2.8,2.8,0,0,0-.046-1.74c-.025-.156-.074-.3.066-.428a3.23,3.23,0,0,1,.241,1.889c-.109.208-.006.446-.094.657l-.024.167" transform="translate(-362.184 -29.774)" fill="#1e1f1f"/>
    <path id="Tracé_7899" data-name="Tracé 7899" d="M173.49,364.164a2.75,2.75,0,0,1,1.648,0,3.146,3.146,0,0,1-1.648,0" transform="translate(-133.631 -280.398)" fill="#131315"/>
    <path id="Tracé_7900" data-name="Tracé 7900" d="M490.249,364.158a2.763,2.763,0,0,1,1.648.007,3.176,3.176,0,0,1-1.648-.007" transform="translate(-377.614 -280.399)" fill="#131416"/>
    <path id="Tracé_7901" data-name="Tracé 7901" d="M547.708,107.7a1.937,1.937,0,0,1-1.415,0,2.23,2.23,0,0,1,1.415,0" transform="translate(-420.782 -82.866)" fill="#141415"/>
    <path id="Tracé_7902" data-name="Tracé 7902" d="M504.512,76.4a1.959,1.959,0,0,1-1.414,0,2.579,2.579,0,0,1,1.414,0" transform="translate(-387.511 -58.766)" fill="#121414"/>
    <path id="Tracé_7903" data-name="Tracé 7903" d="M169.067,355.907a1.437,1.437,0,0,1,0,1.177,1.74,1.74,0,0,1,0-1.177" transform="translate(-130.144 -274.137)" fill="#131415"/>
    <path id="Tracé_7904" data-name="Tracé 7904" d="M175.189,73.45a1.421,1.421,0,0,1-1.175.007,2.8,2.8,0,0,1,1.175-.007" transform="translate(-134.034 -56.53)" fill="#131415"/>
    <path id="Tracé_7905" data-name="Tracé 7905" d="M471.206,47.534c.011-.222-.094-.461.094-.657a1.03,1.03,0,0,1-.094.657" transform="translate(-362.931 -36.107)" fill="#212224"/>
    <path id="Tracé_7906" data-name="Tracé 7906" d="M190.378,49.871a16.939,16.939,0,0,1-4.56,2.939,5.432,5.432,0,0,1-5.033-.079c-.266-.156-.356-.043-.477.191a18.714,18.714,0,0,1-1.362,2.4.825.825,0,0,0-.236.371,14.671,14.671,0,0,1-4.342,4.84.709.709,0,0,0-.391.228l0,0c-.161.077-.361.072-.484.229l-.038.017h-.041c-.207.076-.445.057-.629.206a4.023,4.023,0,0,1-3.546-.879.78.78,0,0,0-.476-.374l-.227-.259c-.094-.119-.117-.292-.279-.358a5.612,5.612,0,0,1-1.107-3.146,19.442,19.442,0,0,1-.008-2.048c.209-.47.075-.988.2-1.469a4.67,4.67,0,0,1,.352-1.637c.172-.117-.008-.33.125-.458.17-.981.6-1.892.86-2.933-.405.2-.477.541-.617.816a36.974,36.974,0,0,0-2.136,5.971,6,6,0,0,1-1.259,2.788c-.145.058-.3.1-.381.255a1.588,1.588,0,0,1-2.3-.762,4.8,4.8,0,0,1-.556-2.076c-.122-.4-.011-.837-.217-1.219-.006-.067-.013-.133-.019-.2a7.668,7.668,0,0,1-.107-1.993,1.72,1.72,0,0,1,.1-.762,28.965,28.965,0,0,1,1.249-5.8c.193-.108.083-.33.18-.474A13.58,13.58,0,0,1,164,40.768a2.478,2.478,0,0,1,3.524-.653c.265.164.5.375.748.565.163.057.168.236.266.345.113.337.263.366.536.118a3.793,3.793,0,0,1,4.659-.64,4.895,4.895,0,0,1,2.439,5.08,25.256,25.256,0,0,1-2.09,5.542,19.728,19.728,0,0,0-1.592,4.352c-.021.113-.026.229-.048.434a7.928,7.928,0,0,0,1.318-1.327c1.589-1.749,2.787-3.789,4.221-5.653.134-.082.16-.238.246-.354.334-.367.175-.818.207-1.237.019-.254.028-.509.042-.764.2-.383.1-.821.215-1.22a7.591,7.591,0,0,1,2.465-4.552l.393-.349c.077-.153.236-.183.371-.249a10.078,10.078,0,0,1,4.968-1.405,8.9,8.9,0,0,1,3.317.687,3.257,3.257,0,0,1,.995.712c.149.08.182.237.247.373.141.362.186.856.451,1.047.232.168.709-.02,1.078-.023a1.911,1.911,0,0,1,2.01,1.621c.121.536.222,1.077.33,1.616.054.269.121.4.406.158.8-.691,1.625-1.362,2.447-2.032a.761.761,0,0,0,.209-.533,14.521,14.521,0,0,1,1.592-4.719,7.9,7.9,0,0,1,5.537-4.1,3.528,3.528,0,0,1,3.677,2.752,7.154,7.154,0,0,1-2.067,6.188,18.019,18.019,0,0,0-2.711,3.4c-.068.118-.13.24-.2.36a1.045,1.045,0,0,0-.006,1.168c.266.314.692.015,1.042-.066a3.564,3.564,0,0,0,.387-.135c.154-.09.37-.064.472-.252l.345-.229c.128-.07.278-.105.365-.237a23.249,23.249,0,0,0,3.791-4.166.336.336,0,0,1,.034-.048c1.146-.965,1.269-2.3,1.374-3.665a60.884,60.884,0,0,1,1.036-7.047,93.562,93.562,0,0,1,2.276-9.136,60.03,60.03,0,0,1,4.021-10.418.974.974,0,0,0,.215-.388,11.279,11.279,0,0,1,1.5-2.512,2.679,2.679,0,0,1,4.685.893,1.661,1.661,0,0,1,.155.68c-.006,1.136,0,2.272,0,3.408a.369.369,0,0,1-.069.276l0-.006c-.138.306.025.642-.1.949a46.088,46.088,0,0,1-6.01,17.663,6.789,6.789,0,0,0-.734,2.217,75.423,75.423,0,0,0-1.225,10.175,28.209,28.209,0,0,0,.2,4.4,53.673,53.673,0,0,0,4.918-7.28,1.119,1.119,0,0,0,.23-.37L224.3,40.2a1,1,0,0,0,.23-.377,22.748,22.748,0,0,1,1.673-2.557,1.468,1.468,0,0,1,1.865-.556,1.6,1.6,0,0,1,.777,1.863,24.1,24.1,0,0,1-1.494,3.516c-1.311,2.785-2.613,5.577-4.013,8.318a14.025,14.025,0,0,1-3.354,4.494,4.781,4.781,0,0,1-5.6.193c-.092-.131-.245-.168-.373-.243a3.193,3.193,0,0,1-1.286-1.641c-.133-.228-.041-.527-.234-.735a3.582,3.582,0,0,1-.242-1.141c-.136-.232.074-.543-.17-.751l-.379-2.722c-.651.69-1.237,1.363-1.877,1.979a9.495,9.495,0,0,1-3.986,2.519,6,6,0,0,1-3.025.129c-.284-.227-.659-.088-.961-.241a4.072,4.072,0,0,1-2.363-1.745,1.051,1.051,0,0,0-.235-.391,3.588,3.588,0,0,1-.514-1.18c-.122-.472-.274-.337-.519-.076a7.339,7.339,0,0,0-2.336,4.849c-.081,1.853-.522,3.688-.77,5.535-.337,2.51-.71,5.013-1.293,7.479-1,4.225-2.348,8.307-5.04,11.81a11.056,11.056,0,0,1-2.827,2.722,3.829,3.829,0,0,1-3.933.059,1.07,1.07,0,0,0-.391-.229,5.841,5.841,0,0,1-2.7-4.465,2.145,2.145,0,0,1-.052-.613c0-.03.091-.154-.062-.112a8.839,8.839,0,0,1,.011-2.98,35.528,35.528,0,0,1,4.126-11.687.793.793,0,0,0,.223-.393,37.389,37.389,0,0,1,3.293-5.284c.156-.076.189-.236.257-.372.893-1.335,1.923-2.567,2.915-3.826.383-.486.768-.969,1.152-1.453,0-.264.236-.378.42-.683a2.575,2.575,0,0,1-.829.663" transform="translate(-124.073 -6.269)" fill="#be7e01"/>
    <path id="Tracé_7907" data-name="Tracé 7907" d="M148.682,190.623a36.205,36.205,0,0,0,1.233,8.265,41.8,41.8,0,0,0,33.588,30.8,29.52,29.52,0,0,0,5.574.505,15.4,15.4,0,0,1,2.713,0,33.315,33.315,0,0,0,7.138-.821,41.485,41.485,0,0,0,26.013-17.445c.143-.305.44-.361.719-.447a4.865,4.865,0,0,0,2.824-1.963,3.631,3.631,0,0,0,.48-1.063c.048-.188.067-.391.276-.489.267.061.342.218.238.468a37.381,37.381,0,0,1-5.491,8.338,43.271,43.271,0,0,1-27.51,15.225,43.966,43.966,0,0,1-48.953-33.712c-.127-.556-.228-1.117-.35-1.674a2.744,2.744,0,0,1,.059-1.492,14.721,14.721,0,0,0,.342-3.632c.2-3.162.133-6.336.387-9.5.042-.529.087-1.059.14-1.588.093-.938.1-.938,1.146-1.186a26.041,26.041,0,0,0-.566,6.928,22.915,22.915,0,0,1-.025,2.565,8.534,8.534,0,0,1,.024,1.919" transform="translate(-113.303 -138.037)" fill="#e3e0cd"/>
    <path id="Tracé_7908" data-name="Tracé 7908" d="M33.5,101.635a16.236,16.236,0,0,1-.709-2.806c-.111-.316-.017-.678-.219-.973a7.136,7.136,0,0,1-.258-1.611,4.94,4.94,0,0,1-.046-1.052c0-.059,0-.118,0-.176-.016.06-.018.125-.072.169a36.392,36.392,0,0,1-.212-4.645c.008-.788,0-.819-.78-.7-1.688.264-3.371.565-5.057.848a2.129,2.129,0,0,0-1.089.665,42.651,42.651,0,0,0-4,4.546,34.484,34.484,0,0,1-6.608,6.767c-.205.147-.429.269-.645.4a.847.847,0,0,0-.376.232,10.067,10.067,0,0,1-2.531,1.187,2.383,2.383,0,0,1-2.681-.8A1.146,1.146,0,0,0,8,103.288a2.234,2.234,0,0,1,.786-2.165,115.716,115.716,0,0,0,8.325-9.276c.075-.091.158-.176.225-.272s.235-.2.173-.346-.241-.081-.368-.1c-.734-.109-1.486-.053-2.213-.229.156-.116.337-.041.49-.063.094,0-.017-.1.014-.028a8.157,8.157,0,0,1-1.693-.024l-.792-.026a12.809,12.809,0,0,0-1.846-.17.929.929,0,0,0-.548-.171A4.824,4.824,0,0,1,8.514,90a1.534,1.534,0,0,0-.524-.051A1.377,1.377,0,0,1,7.284,88.4c.12-.6.589-.816,1.125-.99a76.2,76.2,0,0,1,8.454-1.843c1.906-.386,3.812-.77,5.736-1.05.336-.049.492-.292.673-.525a67.8,67.8,0,0,0,5.06-7.583c.059-.1.135-.192.2-.287a.718.718,0,0,0,.231-.392c2.122-3.813,4.02-7.741,5.973-11.641a7.162,7.162,0,0,1,.444-.686c.036-.164.235-.154.3-.284a2.871,2.871,0,0,1,4.144.492c.146.082.179.237.244.372l.278.81c.093.309-.051.64.086.945l.011.23a46.759,46.759,0,0,1,.005,4.718c-.234,3.547-.685,7.076-.861,10.628-.028.563.159.706.681.717a3.191,3.191,0,0,1,3.007,1.817,2.358,2.358,0,0,1-.846,3.145,8.639,8.639,0,0,1-2.752,1.163c-.4.1-.5.306-.556.692-.476,3.414-.468,6.855-.608,10.288-.071,1.745-.054,3.5-.3,5.234a1.766,1.766,0,0,1-3.471.482,10.027,10.027,0,0,1-.344-1.056c-.13-.227-.017-.538-.251-.729a1.146,1.146,0,0,1-.221-.689c-.123-.234-.037-.533-.233-.744" transform="translate(-5.583 -48.11)" fill="#bf7e01"/>
    <path id="Tracé_7909" data-name="Tracé 7909" d="M202.334,27.428A44.358,44.358,0,0,1,214.872,29.8c.411.141.549.282.323.69-.264.476-.232,1.265-.679,1.429-.389.144-.981-.276-1.488-.436a41.821,41.821,0,0,0-50.364,21.984c-.266.558-.713.974-1,1.553a4.693,4.693,0,0,0-1.309-1.058c-.379-.188-.114-.4-.036-.576a42.537,42.537,0,0,1,5.872-9.583,43.645,43.645,0,0,1,24.955-15.434,1.536,1.536,0,0,0,.218-.084,15.656,15.656,0,0,1,2.887-.61,3.337,3.337,0,0,1,.918-.111,2.325,2.325,0,0,0,.668-.048,1.369,1.369,0,0,1,.468-.069,3.4,3.4,0,0,0,.851-.051,2.908,2.908,0,0,0,.675-.056c.233-.02.466-.009.7-.01a1.49,1.49,0,0,1,.3.025,24.773,24.773,0,0,0,3.2.007.432.432,0,0,1,.3.063" transform="translate(-123.359 -21.052)" fill="#e3e0ce"/>
    <path id="Tracé_7910" data-name="Tracé 7910" d="M478.366,102.462a16.438,16.438,0,0,1,2.45-3.513c.353-.423.44-.687-.033-1.081a13.622,13.622,0,0,1-1.207-1.284c-.111-.1-.122-.276-.275-.34a5.7,5.7,0,0,1-1.395-3.049,10.744,10.744,0,0,1,0-2.785,6.878,6.878,0,0,1,.97-2.737,8.208,8.208,0,0,1,3.493-3.74c.177-.052.374-.057.507-.213a6.409,6.409,0,0,1,3.707.627,1.453,1.453,0,0,1,.8,1.17,14.605,14.605,0,0,0,1.581,5.208,3.264,3.264,0,0,1,.328,1.7c.956-.418,1.8-.923,2.725-1.242.353-.122.705-.251,1.067-.338a1.7,1.7,0,0,1,1.817.686,1.384,1.384,0,0,1-.19,1.792,16.444,16.444,0,0,1-3.5,2.918q-.832.609-1.667,1.214c-.254.184-.356.366-.16.686a8.441,8.441,0,0,1,.666,6.893,15.482,15.482,0,0,1-3.189,6.24,6.543,6.543,0,0,1-6.284,2.445,1.945,1.945,0,0,1-1.01-.44c-.077-.156-.24-.188-.373-.263a5.331,5.331,0,0,1-2.227-3.749,10.818,10.818,0,0,1,0-3.156,9.781,9.781,0,0,1,1.192-3.259.85.85,0,0,0,.216-.393" transform="translate(-367.288 -64.44)" fill="#be7e01"/>
    <path id="Tracé_7911" data-name="Tracé 7911" d="M408.183,261.7c-.215.432-.268.923-.512,1.349a4.951,4.951,0,0,1-3.177,2.306,1.614,1.614,0,0,0-.641.269c-.245-.1-.5.009-.745-.028a4.756,4.756,0,0,1-.984.065,1.519,1.519,0,0,0-.8-.142q-2.477,0-4.954,0a2.933,2.933,0,0,1-.7-.04.5.5,0,0,1-.186-.107,3.839,3.839,0,0,1-.092-1.9c.02-.164.1-.3.3-.288a.256.256,0,0,1,.154.134,4.9,4.9,0,0,1,.067,1.289c.01.273.078.471.394.463,2.587-.066,5.189.233,7.754-.335.174-.039.337-.108.509-.144a3.875,3.875,0,0,0,2.86-2.98.376.376,0,0,1,.174-.291c.024-.042.138.1.107-.046a2.42,2.42,0,0,1,.022-1.248c0-.012.023-.035,0-.048a.167.167,0,0,1-.062.093c-.208-.029-.219-.2-.248-.351a3.6,3.6,0,0,0-1.9-2.483c-.59-.342-.63-.5-.105-.869a3.752,3.752,0,0,0,.115-5.592.8.8,0,0,1-.156-.174.447.447,0,0,0-.387-.242,5.642,5.642,0,0,1-1.311-.545c-.45-.248-.935-.073-1.4-.12q-2.8,0-5.594,0c-.748,0-.764.015-.761.754a2.41,2.41,0,0,0,.059.873c.254.255.579.142.877.168s.625-.074.862.207a1.18,1.18,0,0,1,.088.577q0,5.044,0,10.088a1.562,1.562,0,0,1-.056.525,1.393,1.393,0,0,1-1.4.192c-.328-.216.028-.231.111-.326l.568,0c.32-.119.2-.393.2-.607.006-3.018.011-6.036-.006-9.054,0-.315.2-.659-.074-.956l-.135-.109c-.528-.213-1.093.039-1.624-.132l-.21,0c-.5.15-1.027-.066-1.524.119-.3.146-.231.421-.231.669,0,2.5.013,4.994-.008,7.491a5.631,5.631,0,0,1-1.967,4.6,4.476,4.476,0,0,1-2.508,1.063,12.656,12.656,0,0,1-3.262,0l-.04.006-.038-.014c-.472-.181-.956-.327-1.44-.472a4.605,4.605,0,0,1-2.561-3.1,4.42,4.42,0,0,1-.272-1.5,2.751,2.751,0,0,1-.156-1.1c0-2.447.013-4.895-.009-7.34-.039-.282-.242-.319-.475-.323-.353-.005-.706.017-1.059-.016a.493.493,0,0,1-.167-.09.512.512,0,0,1-.016-.1,12.781,12.781,0,0,1,0-2.546c.1-.276.344-.225.548-.226,1.961-.006,3.923,0,5.884-.008.471,0,.688.2.68.667-.008.568,0,1.137,0,1.706,0,.2-.009.4-.22.507-.463.161-.96-.071-1.421.122a.87.87,0,0,0-.037.1h0c-.276.037-.2.257-.194.413.034,2.531-.082,5.063.062,7.593a6.9,6.9,0,0,0,.391,1.771c.054.149.129.322-.067.408s-.261-.1-.343-.229a4.487,4.487,0,0,0-.455-.753,2.127,2.127,0,0,1-.271-1.134c.026-2.615,0-5.23.012-7.845,0-.885.09-.967.982-.991a.906.906,0,0,0,.844-1.388.4.4,0,0,0-.428-.243q-2.418-.024-4.837,0c-.322,0-.457.175-.46.482,0,.137-.007.275-.005.413.011.676.054.719.751.737.177,0,.354.005.53.017a.575.575,0,0,1,.591.6c.015.216.016.432.016.648,0,2.36.016,4.719-.007,7.078a8.494,8.494,0,0,0,.587,3.107,1.92,1.92,0,0,0,.276.51,3.685,3.685,0,0,0,1.93,1.565,7.149,7.149,0,0,0,5.011.015,4.234,4.234,0,0,0,2.786-3.568c.061-.189.072-.389.131-.578a3.489,3.489,0,0,0,.04-.824c0-2.52,0-5.039,0-7.559,0-.9.1-.984.964-1.018.283-.011.658.117.812-.191a1.816,1.816,0,0,0,.037-1.215c-.05-.218-.265-.218-.437-.22q-2.362-.026-4.724,0c-.315,0-.472.153-.452.477.008.137.007.275.012.413.026.7.051.722.749.742.931.028,1.021.108,1.023,1.02q.008,3.809,0,7.618a4.328,4.328,0,0,1-.528,2.155.518.518,0,0,1-.373.225c-.333-.034-.331-.235-.24-.48.033-.353.32-.644.255-1.022a.094.094,0,0,1-.028-.1c.01-.031.02-.047.03-.047a.476.476,0,0,0,.135-.083,1.032,1.032,0,0,1-.066-.411c.018-2.558-.062-5.117.045-7.675.017-.407-.109-.569-.529-.558a1.664,1.664,0,0,1-1.036-.111.4.4,0,0,1-.208-.386c0-.677,0-1.354,0-2.031a.448.448,0,0,1,.238-.43,1.1,1.1,0,0,1,.688-.1q6.522,0,13.044,0a.988.988,0,0,1,.683.113l.209.011c.385.144.841-.04,1.193.258.251.1.5.211.754.314,2.75,1.115,2.964,4.758,1.664,6.424-.107.137-.192.291-.288.437a.273.273,0,0,0-.005.383,8.657,8.657,0,0,1,1.416,1.523,3.54,3.54,0,0,1,.4,3.3" transform="translate(-292.216 -191.733)" fill="#be7e02"/>
    <path id="Tracé_7912" data-name="Tracé 7912" d="M503.426,230.422a6.471,6.471,0,0,0-.4-3.3,41.176,41.176,0,0,0,3.206-13.665c.009-.136-.006-.273-.009-.41a.81.81,0,0,1,.027-.67,8.513,8.513,0,0,0,.058-1.817.727.727,0,0,1,.334-.689,8.2,8.2,0,0,0,.908-.75c.27-.25.513-.53.768-.8l.166.033c0,.932.006,1.863,0,2.794a43.732,43.732,0,0,1-4.628,19.37,2.974,2.974,0,0,1-.223.332.747.747,0,0,0-.208-.428" transform="translate(-387.459 -160.459)" fill="#e3e0cd"/>
    <path id="Tracé_7913" data-name="Tracé 7913" d="M321.947,252.192l-.1-.1a14.105,14.105,0,0,1,0-2.544c.1-.274.343-.231.548-.23,2.474.008,4.95,0,7.423.051a6.7,6.7,0,0,1,2.456.546,4.175,4.175,0,0,1,2.64,3.658,5.672,5.672,0,0,1-1.489,5.042,3.187,3.187,0,0,1-1.616.906c-.284-.017-.661.318-.808-.214.067-.311.347-.345.578-.435a4.01,4.01,0,0,0,2.626-3.832,6.9,6.9,0,0,0-.225-2.336,3.289,3.289,0,0,0-1.746-1.974,8.379,8.379,0,0,0-3.444-.716c-1.868-.061-3.738-.02-5.608-.012-.24,0-.575-.077-.632.272a1.672,1.672,0,0,0,.093,1.257c.137.2.439.118.671.123,1.005.021,1.079.087,1.08,1.078q0,4.87,0,9.74a2.214,2.214,0,0,1-.063.7c-.085.238-.336.25-.508.369a.379.379,0,0,1-.16.037c-.208-.066-.417-.2-.627,0a.328.328,0,0,1-.227,0,2.881,2.881,0,0,1-.378-.273c-.047-.134.06-.187.135-.257a.156.156,0,0,1,.116,0,.608.608,0,0,0,.594,0c.336,0,.435-.213.435-.5,0-3.259,0-6.517.007-9.776,0-.325-.148-.389-.432-.394a2.263,2.263,0,0,1-.985-.068c.406-.158.835-.008,1.246-.086.077-.018-.012-.138.008-.062,0,.015,0,.024-.016.026a5.182,5.182,0,0,1-1.6,0" transform="translate(-247.86 -192.034)" fill="#bc7c03"/>
    <path id="Tracé_7914" data-name="Tracé 7914" d="M445.656,40.952a28.118,28.118,0,0,1-2.066,2.478,1.231,1.231,0,0,1-1.424.4,1.13,1.13,0,0,1-.729-1.278,18.8,18.8,0,0,1,1.16-4.9.859.859,0,0,0,.221-.391c.831-1.468,1.941-1.833,3.124-1.013a1.97,1.97,0,0,1,.854,1.883,5.448,5.448,0,0,1-.9,2.452c-.072.127-.105.28-.24.367" transform="translate(-340.009 -27.591)" fill="#be7e01"/>
    <path id="Tracé_7915" data-name="Tracé 7915" d="M456.224,79.472c-.927-1.09-1.849-2.129-2.833-3.112s-2.026-1.913-3.148-2.856a3.89,3.89,0,0,0,1.551-1.16c.15-.18.256-.17.428-.024a46.881,46.881,0,0,1,4.9,4.843.373.373,0,0,1,.038.51c-.313.565-.6,1.145-.936,1.8" transform="translate(-346.799 -55.62)" fill="#e3e0cd"/>
    <path id="Tracé_7916" data-name="Tracé 7916" d="M346.494,292.138c.12.447.5.151.737.256a9.6,9.6,0,0,1-3.62.55,3.742,3.742,0,0,1-.587,0c-.324-.024-.456.1-.446.437.019.7.015,1.411,0,2.116-.005.3.111.4.413.411,1.628.082,1.628.091,1.612,1.725,0,.137-.014.273-.022.41-.506-.315-.2-.842-.324-1.259-.037-.127.089-.347-.207-.275a1.075,1.075,0,0,1-.18.038,1.973,1.973,0,0,1-.2.013c-.413,0-.824.007-1.236-.005a.545.545,0,0,1-.6-.583q-.053-1.585,0-3.171a.56.56,0,0,1,.592-.593c.411-.026.822-.019,1.234-.013a9.906,9.906,0,0,0,2.047-.145.83.83,0,0,1,.784.086" transform="translate(-263.28 -224.91)" fill="#bb7e0a"/>
    <path id="Tracé_7917" data-name="Tracé 7917" d="M328.7,309.494c.024-.086.027-.236.153-.179a.331.331,0,0,1,.158.388,2.462,2.462,0,0,0,.147,1.425c.016.262.1.542-.191.722a1.59,1.59,0,0,1-.793.164q-2.725,0-5.45,0a1.959,1.959,0,0,1-.8-.158l-.083-.1a11.858,11.858,0,0,1,.015-2.507.585.585,0,0,1,.7-.248l-.119.241a.462.462,0,0,1-.046.246,1.162,1.162,0,0,1-.085.145,4.914,4.914,0,0,0-.061,1.335.3.3,0,0,0,.308.346c1.779.018,3.557,0,5.334.006a.9.9,0,0,0,.511-.087c.229-.251.109-.559.137-.842.031-.3-.071-.631.158-.9" transform="translate(-247.856 -237.992)" fill="#c07f00"/>
    <path id="Tracé_7918" data-name="Tracé 7918" d="M433.193,248.646c-2.142-.007-4.284-.018-6.426-.02q-3.994,0-7.988.009c.048-.3.284-.22.465-.22q6.895,0,13.79,0c.153,0,.425-.065.16.231" transform="translate(-322.564 -191.335)" fill="#3e280a"/>
    <path id="Tracé_7919" data-name="Tracé 7919" d="M406.209,303.477c.018.185.006.389.274.4a.278.278,0,0,1,.024.267,2.774,2.774,0,0,1-2.207,1.135,1.536,1.536,0,0,1-.656,0,2.861,2.861,0,0,1-2.265-1.152c-.251-.351-.58-.7-.352-1.206.349.093.253.488.46.684.057.054.028.229.159.184s.078-.2.1-.311a2.775,2.775,0,0,0,4.46-.006" transform="translate(-308.833 -233.329)" fill="#bb7e0b"/>
    <path id="Tracé_7920" data-name="Tracé 7920" d="M454.305,273.536c-.173-.174-.109-.36-.11-.526q0-4.636,0-9.272a2.013,2.013,0,0,1,.022-.228c.017-.139-.293-.02-.164-.143s.339-.055.366.193a2.118,2.118,0,0,1,.005.236q0,4.666,0,9.331c0,.129.046.276-.121.41" transform="translate(-349.712 -202.809)" fill="#1e222c"/>
    <path id="Tracé_7921" data-name="Tracé 7921" d="M441.59,272.794a58.47,58.47,0,0,1,0-8.573Z" transform="translate(-340.013 -203.516)" fill="#1c232d"/>
    <path id="Tracé_7922" data-name="Tracé 7922" d="M403.543,271.305c-.131-.015-.2-.059-.2-.221,0-.861-.032-1.722-.036-2.582-.008-1.9-.008-3.806-.011-5.71h0c.23.027.588-.062.282.388-.085.124-.037.344-.037.52q0,3.8,0,7.607" transform="translate(-310.64 -202.415)" fill="#1f222b"/>
    <path id="Tracé_7923" data-name="Tracé 7923" d="M424.143,273.07a.085.085,0,0,1-.011.086c-.293-.038-.238-.265-.238-.452q0-3.68,0-7.36c0-.186-.058-.414.234-.456.156.161.116.366.116.558q.005,3.528,0,7.055a.975.975,0,0,1-.1.569" transform="translate(-326.501 -204.03)" fill="#1d242a"/>
    <path id="Tracé_7924" data-name="Tracé 7924" d="M386.027,271.009c-.361-.077-.229-.369-.23-.576-.007-2.559,0-5.118,0-7.677.251-.123.312.038.337.233a4.42,4.42,0,0,1,.013.587q0,3.35,0,6.7c0,.247.074.513-.115.734" transform="translate(-297.142 -202.354)" fill="#1b212a"/>
    <path id="Tracé_7925" data-name="Tracé 7925" d="M300.126,27.007l-.42.029c-.206.091-.437-.006-.643.085l-3.873.624-.238-.026c1.035-.677,8.761-1.336,11.8-1.006-.2.143-.425.037-.625.088a16.651,16.651,0,0,1-3.638.045,3.072,3.072,0,0,0-.823.044l-.65.026c-.287.11-.6-.02-.886.091" transform="translate(-227.187 -20.508)" fill="#1f1f1e"/>
    <path id="Tracé_7926" data-name="Tracé 7926" d="M456.323,262.862a.226.226,0,0,1,.245.309,12.65,12.65,0,0,0-.094,2.87c0,2.393-.078,4.786.047,7.177.017.315-.146.251-.313.26a1.15,1.15,0,0,0,.112-.74q.005-4.938,0-9.877" transform="translate(-351.394 -202.469)" fill="#bd800c"/>
    <path id="Tracé_7927" data-name="Tracé 7927" d="M418.637,261.6c.54.059,1.23-.241,1.584.136.324.345.1,1.017.1,1.544.009,2.381,0,4.762,0,7.143a.511.511,0,0,1-.046.146l-.082-.125a4.447,4.447,0,0,1-.042-1.111c-.006-2.335-.015-4.67.007-7.005,0-.438-.106-.6-.555-.56a1.931,1.931,0,0,1-.928-.049l-.035-.117" transform="translate(-322.455 -201.453)" fill="#a9863f"/>
    <path id="Tracé_7928" data-name="Tracé 7928" d="M381.371,270.317c0-2.564,0-5.128-.005-7.692,0-.2.154-.5-.227-.562-.343,0-.685-.007-1.027-.014-.168,0-.361.026-.382-.227l.068-.007a6.651,6.651,0,0,0,1.288.06c.176.015.42-.093.461.217q.006,3.967,0,7.934a1.134,1.134,0,0,1-.045.521.231.231,0,0,1-.13-.23" transform="translate(-292.486 -201.663)" fill="#322200"/>
    <path id="Tracé_7929" data-name="Tracé 7929" d="M418.72,262.3c.137.011.274.028.411.032,1.141.036,1.145.035,1.141,1.206q-.014,3.744-.035,7.487a.758.758,0,0,0-.092.05l-.015-8.182c.04-.331-.069-.5-.44-.479-.321.021-.645-.01-.968-.02-.009,0-.023-.027-.023-.042a.157.157,0,0,1,.02-.053" transform="translate(-322.503 -202.038)" fill="#251a02"/>
    <path id="Tracé_7930" data-name="Tracé 7930" d="M387.439,271.2q0-4.248.009-8.5c.028-.058.056-.058.082,0l0,8.634-.1-.14" transform="translate(-298.425 -202.312)" fill="#82714f"/>
    <path id="Tracé_7931" data-name="Tracé 7931" d="M455.326,320.458l.978.015a1.517,1.517,0,0,1-.734.12,2.213,2.213,0,0,1-.752.11q-2.772,0-5.544,0a.878.878,0,0,1-.568-.107.431.431,0,0,1-.244-.24.123.123,0,0,1,.012-.153.18.18,0,0,1,.232.035h0a1.011,1.011,0,0,0,.683.112c1.75,0,3.5,0,5.252,0a1.057,1.057,0,0,1,.685.107" transform="translate(-345.412 -246.614)" fill="#b08739"/>
    <path id="Tracé_7932" data-name="Tracé 7932" d="M153.663,213.85a25.862,25.862,0,0,1,0-4.484c.167.162.1.37.1.56q.008,1.683,0,3.365c0,.19.064.4-.105.559" transform="translate(-118.284 -161.264)" fill="#171611"/>
    <path id="Tracé_7933" data-name="Tracé 7933" d="M322.405,321.472l7.04-.007-.129.123a.8.8,0,0,1-.506.108q-2.872,0-5.743,0a.825.825,0,0,1-.508-.1Z" transform="translate(-248.332 -247.608)" fill="#b18839"/>
    <path id="Tracé_7934" data-name="Tracé 7934" d="M449.6,322l6.864,0-.243.111a3.483,3.483,0,0,1-1.106.053c-1.646.009-3.292.006-4.938,0a.941.941,0,0,1-.572-.063c0-.033,0-.067,0-.1" transform="translate(-346.3 -248.016)" fill="#7b5103"/>
    <path id="Tracé_7935" data-name="Tracé 7935" d="M329.853,322.232c-.129.174-.318.123-.487.123q-2.878,0-5.756,0c-.17,0-.358.05-.489-.121a6.975,6.975,0,0,1,1.516-.049c1.546-.011,3.092-.006,4.637,0a1.237,1.237,0,0,1,.578.048" transform="translate(-248.884 -248.149)" fill="#181b1d"/>
    <path id="Tracé_7936" data-name="Tracé 7936" d="M329.817,322.1l-6.732,0c0-.033-.008-.066-.011-.1l6.757-.005c0,.034-.009.069-.014.1" transform="translate(-248.848 -248.02)" fill="#7b5203"/>
    <path id="Tracé_7937" data-name="Tracé 7937" d="M449.615,322.438l6.616.009c-.134.164-.322.115-.492.116q-2.819,0-5.637,0c-.17,0-.359.051-.486-.125" transform="translate(-346.316 -248.358)" fill="#181b1e"/>
    <path id="Tracé_7938" data-name="Tracé 7938" d="M449.734,308.966c.02.079-.312.2.012.233.381.032.768.007,1.152.007a.2.2,0,0,1,.023.271.5.5,0,0,1-.179.094,3.533,3.533,0,0,1-1.706-.114l-.019-.017c-.106-.145-.3-.08-.424-.172l-.053-.058c.322-.457.787-.208,1.194-.243" transform="translate(-345.488 -237.953)" fill="#bd800c"/>
    <path id="Tracé_7939" data-name="Tracé 7939" d="M476.568,181.384q0,1.578,0,3.156a5.489,5.489,0,0,1,0-3.156" transform="translate(-366.899 -139.711)" fill="#b08434"/>
    <path id="Tracé_7940" data-name="Tracé 7940" d="M406.789,322.514l3.262,0a6.2,6.2,0,0,1-3.262,0" transform="translate(-313.329 -248.416)" fill="#aa843b"/>
    <path id="Tracé_7941" data-name="Tracé 7941" d="M150.891,82.452q0-2.359-.005-4.718a.369.369,0,0,1,.111.321q0,2.037,0,4.074a.38.38,0,0,1-.106.323" transform="translate(-116.22 -59.875)" fill="#292727"/>
    <path id="Tracé_7942" data-name="Tracé 7942" d="M442.6,20.916c.01-.972.014-1.944.031-2.916a8.16,8.16,0,0,0-.115-1.448.445.445,0,0,1,.215.444q0,1.808,0,3.615a.319.319,0,0,1-.129.3" transform="translate(-340.845 -12.749)" fill="#2d2824"/>
    <path id="Tracé_7943" data-name="Tracé 7943" d="M327.17,27.377l3.729,0a.328.328,0,0,1,.039.083l-.26.048q-1.643.075-3.286,0l-.26-.049c-.027-.047-.012-.075.039-.086" transform="translate(-251.962 -21.087)" fill="#7b786a"/>
    <path id="Tracé_7944" data-name="Tracé 7944" d="M480.794,113.034q0,1.392,0,2.785a4.985,4.985,0,0,1,0-2.785" transform="translate(-370.18 -87.064)" fill="#a9853e"/>
    <path id="Tracé_7945" data-name="Tracé 7945" d="M288.6,186.269l1.041-1.047a1.509,1.509,0,0,1-.632,1.067l-.409-.02" transform="translate(-222.291 -142.667)" fill="#2c2317"/>
    <path id="Tracé_7946" data-name="Tracé 7946" d="M516.53,218.727q-.013.335-.027.67a17.863,17.863,0,0,1-.131-2.827l.158,0Z" transform="translate(-397.735 -166.811)" fill="#161614"/>
    <path id="Tracé_7947" data-name="Tracé 7947" d="M332.523,400.658a18.275,18.275,0,0,1-2.713,0,6.974,6.974,0,0,1,2.713,0" transform="translate(-254.036 -308.506)" fill="#17150e"/>
    <path id="Tracé_7948" data-name="Tracé 7948" d="M160.655,195.492a5.267,5.267,0,0,1-.009-2.584,1.755,1.755,0,0,1,.05.635,18.389,18.389,0,0,1-.041,1.949" transform="translate(-123.617 -148.587)" fill="#372304"/>
    <path id="Tracé_7949" data-name="Tracé 7949" d="M400.184,320.428a2.084,2.084,0,0,1,1.44.472,2.774,2.774,0,0,1-1.44-.472" transform="translate(-308.241 -246.809)" fill="#aa7e1f"/>
    <path id="Tracé_7950" data-name="Tracé 7950" d="M321.575,310.165q-.008,1.253-.015,2.506a5.249,5.249,0,0,1,.015-2.506" transform="translate(-247.57 -238.904)" fill="#977e50"/>
    <path id="Tracé_7951" data-name="Tracé 7951" d="M379.126,250.313q0,1.273,0,2.546a5.217,5.217,0,0,1,0-2.546" transform="translate(-291.901 -192.803)" fill="#a3854b"/>
    <path id="Tracé_7952" data-name="Tracé 7952" d="M321.56,250.328q0,1.272,0,2.544a5.7,5.7,0,0,1,0-2.544" transform="translate(-247.572 -192.815)" fill="#967e50"/>
    <path id="Tracé_7953" data-name="Tracé 7953" d="M447.592,312.641a4.532,4.532,0,0,1,.007-2.459,4.8,4.8,0,0,1-.007,2.459" transform="translate(-344.629 -238.918)" fill="#2f2001"/>
    <path id="Tracé_7954" data-name="Tracé 7954" d="M448.15,312.6q0-1.229.006-2.459l.083-.008.045,0a6.873,6.873,0,0,1-.025,2.362c-.007.042-.014.085-.022.126l-.088-.017" transform="translate(-345.187 -238.874)" fill="#7f704e"/>
    <path id="Tracé_7955" data-name="Tracé 7955" d="M187.659,201.968c0,.47,0,.939.007,1.409.006.313-.113.136-.21.06a3.714,3.714,0,0,1,.2-1.469" transform="translate(-144.383 -155.566)" fill="#b28531"/>
    <path id="Tracé_7956" data-name="Tracé 7956" d="M161.209,197.334q0-.995,0-1.989.032-.085.085-.012,0,1.021,0,2.043c-.03-.015-.06-.029-.091-.042" transform="translate(-124.171 -150.43)" fill="#90794e"/>
    <path id="Tracé_7957" data-name="Tracé 7957" d="M35.5,185.739h2.033a1.96,1.96,0,0,1-.844.116,3.1,3.1,0,0,1-1.189-.116" transform="translate(-27.345 -143.065)" fill="#a9823f"/>
    <path id="Tracé_7958" data-name="Tracé 7958" d="M161.67,205.209c.476.335.13.815.217,1.219a2.529,2.529,0,0,1-.217-1.219" transform="translate(-124.521 -158.062)" fill="#a87a19"/>
    <path id="Tracé_7959" data-name="Tracé 7959" d="M236.959,170.13c-.088.4.258.884-.215,1.22a2.4,2.4,0,0,1,.215-1.22" transform="translate(-182.346 -131.043)" fill="#ab7b17"/>
    <path id="Tracé_7960" data-name="Tracé 7960" d="M322.465,261.838h1.684v.119h-1.327a.346.346,0,0,1-.358-.119" transform="translate(-248.378 -201.681)" fill="#ac833c"/>
    <path id="Tracé_7961" data-name="Tracé 7961" d="M449.052,261.813l1.625.007c.012,0,.036.025.034.034a.546.546,0,0,1-.035.091c-.542-.042-1.1.164-1.625-.132" transform="translate(-345.882 -201.661)" fill="#a8853f"/>
    <path id="Tracé_7962" data-name="Tracé 7962" d="M440.987,261.924c-.143-.045-.264-.113,0-.121.506-.015,1.013,0,1.52,0a3.073,3.073,0,0,1-1.524.119" transform="translate(-339.55 -201.648)" fill="#ab853c"/>
    <path id="Tracé_7963" data-name="Tracé 7963" d="M483.62,249.728a4.194,4.194,0,0,1-1.192-.258c.283,0,.566,0,.849-.008.187,0,.344.029.344.266" transform="translate(-371.59 -192.148)" fill="#3e280a"/>
    <path id="Tracé_7964" data-name="Tracé 7964" d="M402.935,261.922c-.142-.046-.267-.115,0-.124.472-.016.945,0,1.417,0-.453.275-.945.1-1.42.122" transform="translate(-310.24 -201.645)" fill="#ac853c"/>
    <path id="Tracé_7965" data-name="Tracé 7965" d="M115.829,203.011c.033-.165-.046-.349.118-.564v1.622a2.308,2.308,0,0,1-.118-1.058" transform="translate(-89.214 -155.935)" fill="#9e804c"/>
    <path id="Tracé_7966" data-name="Tracé 7966" d="M338.507,200.011c.318.088.739-.234.961.241a1.521,1.521,0,0,1-.961-.241" transform="translate(-260.735 -154.038)" fill="#a97e1c"/>
    <path id="Tracé_7967" data-name="Tracé 7967" d="M117.474,216.522c.441.242.15.648.219.973a1.967,1.967,0,0,1-.219-.973" transform="translate(-90.483 -166.776)" fill="#a37321"/>
    <path id="Tracé_7968" data-name="Tracé 7968" d="M238.234,301.757l.036-.375.079.009v1.09a1.214,1.214,0,0,1-.114-.725" transform="translate(-183.497 -232.139)" fill="#a1824b"/>
    <path id="Tracé_7969" data-name="Tracé 7969" d="M121.519,232.971c.428.138.179.488.233.744a1.068,1.068,0,0,1-.233-.744" transform="translate(-93.599 -179.446)" fill="#a07622"/>
    <path id="Tracé_7970" data-name="Tracé 7970" d="M384.8,201.091c.421.136.174.484.234.735a.976.976,0,0,1-.234-.735" transform="translate(-296.393 -154.89)" fill="#a87421"/>
    <path id="Tracé_7971" data-name="Tracé 7971" d="M123.5,239.21c.462.112.192.477.251.729a1.162,1.162,0,0,1-.251-.729" transform="translate(-95.124 -184.251)" fill="#ad781c"/>
    <path id="Tracé_7972" data-name="Tracé 7972" d="M194.528,233.5c.388-.167.4.148.475.374a.99.99,0,0,1-.475-.374" transform="translate(-149.835 -179.815)" fill="#a17c30"/>
    <path id="Tracé_7973" data-name="Tracé 7973" d="M383.02,192.426c.059-.017.117-.245.161-.049a3.6,3.6,0,0,1,.009.8,1.9,1.9,0,0,1-.17-.751" transform="translate(-295.021 -148.118)" fill="#a48540"/>
    <path id="Tracé_7974" data-name="Tracé 7974" d="M212.034,238.333c.111-.368.4-.182.628-.206a.829.829,0,0,1-.628.206" transform="translate(-163.319 -183.397)" fill="#a17720"/>
    <path id="Tracé_7975" data-name="Tracé 7975" d="M451.842,264c.134-.2.3-.117.433-.142a.392.392,0,0,1-.028.107c-.1.17-.233.145-.405.035" transform="translate(-348.031 -203.236)" fill="#1e222c"/>
    <path id="Tracé_7976" data-name="Tracé 7976" d="M150.5,73.564a2.022,2.022,0,0,1-.086-.945c.183.3.057.63.086.945" transform="translate(-115.849 -55.935)" fill="#292727"/>
    <path id="Tracé_7977" data-name="Tracé 7977" d="M442.436,36.469a1.931,1.931,0,0,1,.1-.949c-.029.317.111.651-.1.949" transform="translate(-340.777 -27.359)" fill="#2d2824"/>
    <path id="Tracé_7978" data-name="Tracé 7978" d="M404.5,300.283c-.2-.134-.117-.3-.142-.433a.39.39,0,0,1,.107.028c.171.1.145.233.035.405" transform="translate(-311.46 -230.959)" fill="#1f222b"/>
    <path id="Tracé_7979" data-name="Tracé 7979" d="M501.391,83.917c-.062.326-.31.207-.507.212a.683.683,0,0,1,.507-.212" transform="translate(-385.806 -64.637)" fill="#9b7020"/>
    <path id="Tracé_7980" data-name="Tracé 7980" d="M215.114,237.352c.048-.315.29-.223.484-.229a.661.661,0,0,1-.484.229" transform="translate(-165.691 -182.637)" fill="#a17720"/>
    <path id="Tracé_7981" data-name="Tracé 7981" d="M355.447,177.4c-.025.331-.276.24-.472.252a.813.813,0,0,1,.472-.252" transform="translate(-273.419 -136.638)" fill="#9c7323"/>
    <path id="Tracé_7982" data-name="Tracé 7982" d="M161.268,193.061l-.085.012-.012-.6.093-.128q0,.356,0,.712" transform="translate(-124.142 -148.157)" fill="#70604b"/>
    <path id="Tracé_7983" data-name="Tracé 7983" d="M190.018,192.85c0,.174,0,.348,0,.522,0,.067-.037.1-.093.045-.023-.023-.021-.072-.031-.11a.616.616,0,0,1,.125-.458" transform="translate(-146.266 -148.543)" fill="#ac8338"/>
    <path id="Tracé_7984" data-name="Tracé 7984" d="M391.428,211.419c.187-.016.362-.012.373.243a.484.484,0,0,1-.373-.243" transform="translate(-301.497 -162.841)" fill="#99772d"/>
    <path id="Tracé_7985" data-name="Tracé 7985" d="M327.2,190.8c.246.029.258.2.235.391a.5.5,0,0,1-.235-.391" transform="translate(-252.024 -146.964)" fill="#977632"/>
    <path id="Tracé_7986" data-name="Tracé 7986" d="M234.862,184.144c.012.183,0,.348-.246.353a.459.459,0,0,1,.246-.353" transform="translate(-180.713 -141.837)" fill="#986a2a"/>
    <path id="Tracé_7987" data-name="Tracé 7987" d="M487.047,211.417c.2-.021.373,0,.373.263a.549.549,0,0,1-.373-.263" transform="translate(-375.148 -162.839)" fill="#a27c2b"/>
    <path id="Tracé_7988" data-name="Tracé 7988" d="M271.813,212.845c.024.2.01.373-.257.372a.588.588,0,0,1,.257-.372" transform="translate(-209.166 -163.944)" fill="#a67926"/>
    <path id="Tracé_7989" data-name="Tracé 7989" d="M358.9,175.364c-.009.253-.18.256-.365.237a.5.5,0,0,1,.365-.237" transform="translate(-276.158 -135.074)" fill="#9b7024"/>
    <path id="Tracé_7990" data-name="Tracé 7990" d="M496.142,282.235c-.393-.133-.164-.258.005-.383Z" transform="translate(-381.987 -217.096)" fill="#482b04"/>
    <path id="Tracé_7991" data-name="Tracé 7991" d="M482.746,165.49c.027.185.04.363-.216.393a.513.513,0,0,1,.216-.393" transform="translate(-371.669 -127.469)" fill="#9d722a"/>
    <path id="Tracé_7992" data-name="Tracé 7992" d="M167.189,165.041c-.031.169.125.41-.18.475a.959.959,0,0,1,.18-.475" transform="translate(-128.639 -127.123)" fill="#a38145"/>
    <path id="Tracé_7993" data-name="Tracé 7993" d="M430.3,156.326c.016.181.012.349-.23.37a.467.467,0,0,1,.23-.37" transform="translate(-331.258 -120.41)" fill="#906f26"/>
    <path id="Tracé_7994" data-name="Tracé 7994" d="M192.632,150.116a.556.556,0,0,1-.266-.345c.261-.018.274.155.266.345" transform="translate(-148.17 -115.361)" fill="#4a2e09"/>
    <path id="Tracé_7995" data-name="Tracé 7995" d="M237.784,213.858c-.02-.186-.019-.36.236-.371a.511.511,0,0,1-.236.371" transform="translate(-183.147 -164.438)" fill="#9b7424"/>
    <path id="Tracé_7996" data-name="Tracé 7996" d="M292.4,148.065a.6.6,0,0,1-.247-.373c.272,0,.268.18.247.373" transform="translate(-225.032 -113.76)" fill="#3e2908"/>
    <path id="Tracé_7997" data-name="Tracé 7997" d="M250.517,147.684a.573.573,0,0,1-.371.248c0-.273.177-.27.371-.248" transform="translate(-192.675 -113.747)" fill="#39290d"/>
    <path id="Tracé_7998" data-name="Tracé 7998" d="M436.453,146.023c.021.186.017.355-.23.377a.493.493,0,0,1,.23-.377" transform="translate(-336.001 -112.474)" fill="#946f2d"/>
    <path id="Tracé_7999" data-name="Tracé 7999" d="M175.056,221.98c0-.277.18-.281.381-.255a.554.554,0,0,1-.381.255" transform="translate(-134.837 -170.776)" fill="#ab7f24"/>
    <path id="Tracé_8000" data-name="Tracé 8000" d="M326.276,309.085a.391.391,0,0,1-.594,0h.594" transform="translate(-250.856 -238.073)" fill="#c07f00"/>
    <path id="Tracé_8001" data-name="Tracé 8001" d="M487.539,138.424c.242-.008.273.154.275.34a.47.47,0,0,1-.275-.34" transform="translate(-375.527 -106.621)" fill="#8a6f2f"/>
    <path id="Tracé_8002" data-name="Tracé 8002" d="M192.329,230.969c.254-.007.292.156.279.358a.543.543,0,0,1-.279-.358" transform="translate(-148.141 -177.904)" fill="#9e7831"/>
    <path id="Tracé_8003" data-name="Tracé 8003" d="M217.21,236.351c.016-.271.2-.252.391-.228a.527.527,0,0,1-.391.228" transform="translate(-167.306 -181.864)" fill="#a47926"/>
    <path id="Tracé_8004" data-name="Tracé 8004" d="M256.475,237.464c.025.187.037.368-.223.393a.543.543,0,0,1,.223-.393" transform="translate(-197.378 -182.907)" fill="#9f7627"/>
    <path id="Tracé_8005" data-name="Tracé 8005" d="M100.126,120.227c.027.192.035.373-.231.392a.557.557,0,0,1,.231-.392" transform="translate(-76.944 -92.605)" fill="#a17c23"/>
    <path id="Tracé_8006" data-name="Tracé 8006" d="M148.429,67.849a.59.59,0,0,1-.244-.371c.27,0,.266.18.244.371" transform="translate(-114.139 -51.975)" fill="#482708"/>
    <path id="Tracé_8007" data-name="Tracé 8007" d="M129.118,65.335a.41.41,0,0,1-.3.284c-.032-.236.121-.275.3-.284" transform="translate(-99.216 -50.324)" fill="#442f0a"/>
    <path id="Tracé_8008" data-name="Tracé 8008" d="M459.832,56.925a.5.5,0,0,1,.24-.366c.017.185.018.361-.24.366" transform="translate(-354.185 -43.565)" fill="#412d0e"/>
    <path id="Tracé_8009" data-name="Tracé 8009" d="M250.486,325.573c.187-.02.364-.024.391.228a.507.507,0,0,1-.391-.228" transform="translate(-192.937 -250.766)" fill="#917735"/>
    <path id="Tracé_8010" data-name="Tracé 8010" d="M446.74,42.1c.026.187.033.363-.221.391a.5.5,0,0,1,.221-.391" transform="translate(-343.93 -32.425)" fill="#9e7625"/>
    <path id="Tracé_8011" data-name="Tracé 8011" d="M414.885,23.6c.024.182.033.356-.215.388a.493.493,0,0,1,.215-.388" transform="translate(-319.399 -18.176)" fill="#957327"/>
    <path id="Tracé_8012" data-name="Tracé 8012" d="M197.585,65.466l-.492,2.813c-.12.312-.014.675-.222.966q-.364,1.517-.729,3.034c-.124.231-.028.533-.236.738-.357.945-.706,1.894-1.073,2.835a25.134,25.134,0,0,1-2.227,4.361c-.085.12-.108.282-.25.362-.736.913-1.567,1.735-2.383,2.575a3.281,3.281,0,0,1-4.23-.014,5.811,5.811,0,0,1-1.849-4,11.334,11.334,0,0,1,.219-3.982,6.679,6.679,0,0,0,.22-.963,26.366,26.366,0,0,1,1.274-4.139,47.564,47.564,0,0,1,4.858-9.315c.831-1.252,1.749-2.438,2.625-3.656.094-.11.109-.276.253-.351a43.051,43.051,0,0,0,2.883-3.546,3.627,3.627,0,0,0,.187-3.186c-.13-.389-.352-.138-.518.036a37.615,37.615,0,0,1-2.851,2.785c-.163.138-.346.251-.52.376-.14.06-.3.093-.371.252a8.864,8.864,0,0,1-4.32,2.066,3.312,3.312,0,0,1-3.625-1.641,37.5,37.5,0,0,1-2.245,4.268,16.437,16.437,0,0,1-3.972,4.641,3.389,3.389,0,0,1-5.228-1.444c-.112-.187-.055-.441-.237-.6a10.352,10.352,0,0,1-.119-4.65,41.932,41.932,0,0,1,1.883-6.324,1.111,1.111,0,0,0-.109-1.06.477.477,0,0,0-.7.009c-1.92.93-2.6,2.77-3.287,4.571a27.56,27.56,0,0,0-1.214,3.9c-.147.22-.045.518-.23.726-.164.434-.328.866-.491,1.3-.138.369-.355.7-.78.668s-.6-.383-.627-.789a1.135,1.135,0,0,1-.09-.652c.024-.137-.108,0-.131-.063-.007-.072-.014-.144-.021-.216-.15-.386.017-.83-.221-1.2l-.017-.215a11.1,11.1,0,0,1,0-3.122,15.679,15.679,0,0,1,.759-4.088,37.975,37.975,0,0,1,1.511-4.369,1.55,1.55,0,0,1,2.681-.5c.082.085.17.163.255.244a1.064,1.064,0,0,1,.23.38.2.2,0,0,0,.019.088.845.845,0,0,1,.01.957c-.056.277-.275.5-.266.8-.02.155-.295.4.14.395.678-.726,1.262-1.536,2.013-2.2a2.911,2.911,0,0,1,4.47.258c.078.087.153.178.23.267.129.094.162.25.245.374l.474,1.275a.97.97,0,0,1,.008.955c-.033.4-.278.749-.25,1.16-.141.224-.037.525-.233.731-.981,2.389-2.2,4.678-3.027,7.132a1.917,1.917,0,0,0-.048.406c-.139.308-.028.672-.22.968-.008.069-.016.139-.024.208-.056.1-.038.217-.08.319a6.764,6.764,0,0,0,0,1.243l.074.148a.433.433,0,0,0,.487.2c.143-.142.352-.131.517-.222A8.106,8.106,0,0,0,178.5,58.7c1.844-2.008,3.218-4.37,4.865-6.527a1.223,1.223,0,0,0,.155-.846,8.961,8.961,0,0,1,1.259-5.11,6.026,6.026,0,0,1,3.3-2.485c.551-.2,1.129-.321,1.694-.478a3.946,3.946,0,0,1,2.126.006l0,0c.224.13.523-.053.724.174l.437.064c.427.148.93.144,1.2.607.139.349.578.645.381,1.045-.226.459-.741.339-1.166.363a9.36,9.36,0,0,0-3.013.43,5.2,5.2,0,0,0-2.789,2.936,6.184,6.184,0,0,0-.49,3.1c.029.317.027.68.353.817s.594-.084.853-.277a29.985,29.985,0,0,0,3.51-3.449,10.174,10.174,0,0,1,3.93-2.872,2.415,2.415,0,0,1,1.721-.1c.158.067.173.238.259.358.334,1.169.508,2.372.768,3.557.04.183.037.454.224.518.2.07.3-.194.442-.318.637-.571,1.265-1.154,1.9-1.732.057-.162.239-.164.341-.269.542-.438,1.072-.892,1.632-1.307a1.135,1.135,0,0,0,.38-.817c.217-.373.089-.811.227-1.2l.019-.215c.166-.216.094-.5.213-.731a9.023,9.023,0,0,1,2.613-4.436c.084-.08.162-.166.242-.249.071-.15.239-.165.354-.255l1.3-.7c.2-.218.5-.11.73-.242A2.521,2.521,0,0,1,211.84,39.2a.907.907,0,0,1,.164.481A7.193,7.193,0,0,1,212.1,41.6a.548.548,0,0,1-.062.2,5.626,5.626,0,0,1-1.61,3.113,29.6,29.6,0,0,0-2.962,3.679,3.374,3.374,0,0,0-.414,2.418c.109.745.909,1.134,1.856.942a3.083,3.083,0,0,0,.49-.187c.18-.229.5-.081.7-.258a4.76,4.76,0,0,0,1.188-.7c.088-.126.247-.148.357-.243a14.884,14.884,0,0,0,2.875-2.987c.731-.838,1.372-1.754,2.071-2.62a1.531,1.531,0,0,0,.36-.958,49.84,49.84,0,0,1,.644-5.726c.16-1.026.309-2.054.552-3.065.2-.3.117-.655.216-.975a6.186,6.186,0,0,1,.261-1.388c.162-.22.105-.5.206-.739a27.527,27.527,0,0,1,.83-3.478c.457-1.718.966-3.422,1.539-5.106a45.68,45.68,0,0,1,4.452-9.979,2.319,2.319,0,0,1,1.226-1.028.584.584,0,0,1,.706.014h0c.152.092.367.064.471.247a2.17,2.17,0,0,1,.721,1.827c-.04.877-.02,1.758-.026,2.637-.16.306.141.706-.2.976-.342-.56-.023-1.173-.138-1.666a11.065,11.065,0,0,1-.035,1.124c-.017.165-.017.314-.227.339-.264-.085-.212-.308-.219-.505a.452.452,0,0,1,0-.055.1.1,0,0,0-.038.013,4.037,4.037,0,0,0-.177.574c-.435,1.1-.817,2.216-1.21,3.33a1.835,1.835,0,0,0-.208.671c-.545,1.6-.921,3.252-1.438,4.862a2.676,2.676,0,0,0-.2.787c-.295,1.193-.686,2.358-.985,3.549a4.4,4.4,0,0,0-.245.732,2.532,2.532,0,0,1-.19.42c-.032.07.018.108,0,.031s.086,0,.02-.047.089-.1.029-.055a8.913,8.913,0,0,0,.378-.82,58.219,58.219,0,0,0,2.447-6.863c.394-1.332.764-2.673,1.078-4.028.053-.228.039-.532.41-.521.147.213.186.49.465.627.229.112.189.343.1.55a35.894,35.894,0,0,1-1.882,6.98,57.359,57.359,0,0,1-3.214,7.049.866.866,0,0,1-.228.385,5.218,5.218,0,0,0-.913,2.386c-.122.534-.183,1.082-.271,1.624-.069.093-.044.213-.088.314a4.261,4.261,0,0,1-.123.653l-.026.781c-.147.434-.011.913-.216,1.337q-.014.1-.029.206a.07.07,0,0,1-.083.066c-.048.3,0,.6-.021.9a.481.481,0,0,1-.073.23l-.05.706c-.068.1-.047.225-.09.332-.04.355-.006.712-.022,1.067a.511.511,0,0,1-.078.257q-.025.589-.05,1.179a2.067,2.067,0,0,0-.094.373c-.015,1.165-.025,2.329.005,3.494a.618.618,0,0,0,.086.177l.017-.013c.252.532.022,1.13.23,1.668a.859.859,0,0,0,.559.937,1.105,1.105,0,0,0,1.242-.437,41.081,41.081,0,0,0,3.828-5.465c1.362-2.212,2.607-4.5,4.068-6.647.12-.177.243-.354.377-.521s.284-.419.57-.216a.5.5,0,0,1,.139.681c-.375.857-.721,1.727-1.123,2.571-1.4,2.939-2.793,5.878-4.227,8.8a15.153,15.153,0,0,1-2.429,3.577,3.393,3.393,0,0,1-3.939,1.194c-.164-.17-.41-.123-.6-.228l0,0c-.134-.132-.336-.127-.481-.236a2.674,2.674,0,0,1-1.427-1.912,16.251,16.251,0,0,1-.574-3.764c.173-.179.118-.4.119-.615.006-.842,0-1.684,0-2.526,0,.739.005,1.479,0,2.218,0,.2.074.438-.134.6a19.582,19.582,0,0,1-.216-3.685c-.647.9-1.2,1.734-1.82,2.519a13.953,13.953,0,0,1-4.065,3.749,5.285,5.285,0,0,1-5.483.089,1.428,1.428,0,0,1-.219-.19c-.062-.156-.236-.17-.341-.27l-.117-.12c-.1-.1-.119-.268-.254-.346a3.283,3.283,0,0,1-.708-1.742c-.136-.355-.012-.761-.219-1.1l-.172-1.106c-.308.022-.363.3-.489.465-.977,1.26-2.124,2.379-3.04,3.687a2.667,2.667,0,0,0-.562,1.2c-.15.3-.024.673-.228.964l-.965,6.822c-.026.044-.051.087-.075.131-.057.226-.006.458-.041.686a.669.669,0,0,1-.063.142q-.027.462-.054.923c-.126.4-.014.835-.211,1.22" transform="translate(-128.062 -9.564)" fill="#0a4438"/>
    <path id="Tracé_8013" data-name="Tracé 8013" d="M262.135,166.152c.146-2.5,1.809-4.67,4.409-4.414-1.575,1.378-2.824,3.018-4.409,4.414" transform="translate(-201.909 -124.563)" fill="#222223"/>
    <path id="Tracé_8014" data-name="Tracé 8014" d="M433.124,29.7c.4-.207.172-.594.237-.891.08-.369-.039-.767.065-1.143l.2-.006V29.97c.19.267.031.536.007.8a13.563,13.563,0,0,1-.374,2.242c-.024-.162.068-.429-.163-.439-.591-.025-.383-.46-.441-.762a.812.812,0,0,1-.046-.816,8.552,8.552,0,0,0,.174-.839,1.2,1.2,0,0,1,.18-.425.132.132,0,0,1,.164-.036" transform="translate(-333.147 -21.304)" fill="#0b453b"/>
    <path id="Tracé_8015" data-name="Tracé 8015" d="M386.793,170.081v-3.625c.32.039.251.213.252.327q.01,1.585,0,3.17c0,.187.055.413-.238.45-.006-.107-.011-.215-.017-.322" transform="translate(-297.927 -128.213)" fill="#08443e"/>
    <path id="Tracé_8016" data-name="Tracé 8016" d="M165.988,191.737q0,1.561,0,3.122a5.544,5.544,0,0,1,0-3.122" transform="translate(-127.68 -147.685)" fill="#0e4437"/>
    <path id="Tracé_8017" data-name="Tracé 8017" d="M270.72,145.848l-2.126-.006a.248.248,0,0,1,.279-.233q.789,0,1.577,0a.236.236,0,0,1,.27.238" transform="translate(-206.884 -112.155)" fill="#98791d"/>
    <path id="Tracé_8018" data-name="Tracé 8018" d="M402.58,166.355l.1-.251q0,2.022,0,4.044c-.031-.006-.062-.011-.094-.016a23.006,23.006,0,0,1-.005-3.777" transform="translate(-310.029 -127.942)" fill="#627853"/>
    <path id="Tracé_8019" data-name="Tracé 8019" d="M403.536,185.316a3.358,3.358,0,0,1-.23-1.668c.289.04.231.264.233.448,0,.406,0,.813,0,1.22" transform="translate(-310.638 -141.455)" fill="#a77e19"/>
    <path id="Tracé_8020" data-name="Tracé 8020" d="M284.082,148.258l-1.2-.607c.528-.051,1,0,1.2.607" transform="translate(-217.892 -113.717)" fill="#a48018"/>
    <path id="Tracé_8021" data-name="Tracé 8021" d="M437.332,35.252q0-.4-.007-.805c.213-.295,0-.678.206-.975a3.168,3.168,0,0,1-.2,1.78" transform="translate(-336.849 -25.782)" fill="#88680f"/>
    <path id="Tracé_8022" data-name="Tracé 8022" d="M166.8,205.834c.079-.007.214-.3.227.031.015.389,0,.778-.006,1.168a2.3,2.3,0,0,1-.221-1.2" transform="translate(-128.474 -158.446)" fill="#0e4437"/>
    <path id="Tracé_8023" data-name="Tracé 8023" d="M405.41,140.108a2.771,2.771,0,0,1,.216-1.336c-.068.446.24.953-.216,1.336" transform="translate(-312.262 -106.889)" fill="#aa7e1a"/>
    <path id="Tracé_8024" data-name="Tracé 8024" d="M365.332,133.157q0-1.031.006-2.063a.614.614,0,0,1,.078.044,5.637,5.637,0,0,1,.08,1.471c-.055.183.133.438-.164.548" transform="translate(-281.397 -100.975)" fill="#2b3f12"/>
    <path id="Tracé_8025" data-name="Tracé 8025" d="M302.575,239.228a2.47,2.47,0,0,1,.211-1.22c-.077.405.253.881-.211,1.22" transform="translate(-233.053 -183.326)" fill="#a27f1a"/>
    <path id="Tracé_8026" data-name="Tracé 8026" d="M403.379,155.419l-.033-.2c.164-.389-.05-.817.12-1.206l.1-.252c0,.43,0,.86,0,1.29,0,.148.043.331-.187.367" transform="translate(-310.677 -118.435)" fill="#768350"/>
    <path id="Tracé_8027" data-name="Tracé 8027" d="M328.485,153.755c-.1.395.26.877-.227,1.2a2.257,2.257,0,0,1,.227-1.2" transform="translate(-252.837 -118.43)" fill="#1e4026"/>
    <path id="Tracé_8028" data-name="Tracé 8028" d="M222.333,166.06q0-.478-.009-.955a.546.546,0,0,1,.009.955" transform="translate(-171.245 -127.172)" fill="#b68211"/>
    <path id="Tracé_8029" data-name="Tracé 8029" d="M328.262,177.455c.453.291.147.733.219,1.1a1.89,1.89,0,0,1-.219-1.1" transform="translate(-252.84 -136.685)" fill="#204022"/>
    <path id="Tracé_8030" data-name="Tracé 8030" d="M205.126,215.686l.1-.265q0,.855,0,1.71l-.094-.04a3.408,3.408,0,0,1,0-1.405" transform="translate(-157.943 -165.928)" fill="#7b8751"/>
    <path id="Tracé_8031" data-name="Tracé 8031" d="M190.478,156.807c.119-.32-.039-.638-.01-.957a.563.563,0,0,1,.01.957" transform="translate(-146.705 -120.043)" fill="#817328"/>
    <path id="Tracé_8032" data-name="Tracé 8032" d="M205.889,211.268a1.465,1.465,0,0,1,.219-.968c-.07.323.23.731-.219.968" transform="translate(-158.58 -161.983)" fill="#a97d15"/>
    <path id="Tracé_8033" data-name="Tracé 8033" d="M365.732,132.8q-.016-.76-.032-1.519c.3.481.077,1,.125,1.506q-.035.089-.093.013" transform="translate(-281.68 -101.122)" fill="#5e7a53"/>
    <path id="Tracé_8034" data-name="Tracé 8034" d="M308.713,196.891a1.43,1.43,0,0,1,.228-.964c-.079.32.231.733-.228.964" transform="translate(-237.782 -150.913)" fill="#a97f17"/>
    <path id="Tracé_8035" data-name="Tracé 8035" d="M299.48,256.524a1.863,1.863,0,0,1,.222-.966c-.066.324.229.731-.222.966" transform="translate(-230.672 -196.843)" fill="#9f7d17"/>
    <path id="Tracé_8036" data-name="Tracé 8036" d="M197.68,169.33c.228-.416.46-.411.7-.009Z" transform="translate(-152.263 -130.186)" fill="#243e1f"/>
    <path id="Tracé_8037" data-name="Tracé 8037" d="M392.262,107.431c-.065.326.231.732-.215.975a1.823,1.823,0,0,1,.215-.975" transform="translate(-301.971 -82.749)" fill="#254621"/>
    <path id="Tracé_8038" data-name="Tracé 8038" d="M167.856,212c.079.017.158-.273.213-.027a3.384,3.384,0,0,1,.007.742.907.907,0,0,1-.22-.715" transform="translate(-129.287 -163.193)" fill="#0e4437"/>
    <path id="Tracé_8039" data-name="Tracé 8039" d="M244.153,281.271c.013.341.074.693-.22.963a1.472,1.472,0,0,1,.22-.963" transform="translate(-187.884 -216.649)" fill="#3a4d1c"/>
    <path id="Tracé_8040" data-name="Tracé 8040" d="M188.74,163.884c-.072.108-.183.3-.286.183-.189-.209-.022-.412.145-.578.03.137-.009.3.14.395" transform="translate(-145.092 -125.927)" fill="#8b732a"/>
    <path id="Tracé_8041" data-name="Tracé 8041" d="M329.53,149.636c-.052.249.184.583-.213.731a.9.9,0,0,1,.213-.731" transform="translate(-253.649 -115.257)" fill="#3a4c1c"/>
    <path id="Tracé_8042" data-name="Tracé 8042" d="M394.316,98.176c-.043.254.192.584-.206.739a.934.934,0,0,1,.206-.739" transform="translate(-303.557 -75.62)" fill="#3b4a20"/>
    <path id="Tracé_8043" data-name="Tracé 8043" d="M295.289,273.706a1.043,1.043,0,0,1,.236-.738c-.048.255.208.609-.236.738" transform="translate(-227.446 -210.253)" fill="#a67c1a"/>
    <path id="Tracé_8044" data-name="Tracé 8044" d="M354.693,182.561a.861.861,0,0,1-.7.258c.1-.451.462-.18.7-.258" transform="translate(-272.664 -140.609)" fill="#a17d1c"/>
    <path id="Tracé_8045" data-name="Tracé 8045" d="M350.612,123.951a1.033,1.033,0,0,1-.73.242c.118-.46.48-.182.73-.242" transform="translate(-269.496 -95.451)" fill="#9f7b1c"/>
    <path id="Tracé_8046" data-name="Tracé 8046" d="M220.245,175.043a1.006,1.006,0,0,1,.233-.731c-.055.251.192.6-.233.731" transform="translate(-169.641 -134.264)" fill="#9e791d"/>
    <path id="Tracé_8047" data-name="Tracé 8047" d="M177.079,207.971a.957.957,0,0,1,.23-.726c-.053.249.179.588-.23.726" transform="translate(-136.392 -159.63)" fill="#8d7722"/>
    <path id="Tracé_8048" data-name="Tracé 8048" d="M278.556,146.777c-.241-.062-.507-.015-.724-.174a3.415,3.415,0,0,1,.779.01c.176.041-.038.1-.055.165" transform="translate(-214 -112.906)" fill="#898647"/>
    <path id="Tracé_8049" data-name="Tracé 8049" d="M303.625,230.773a.178.178,0,0,1-.038-.084c.157-.263-.046-.58.125-.841a.569.569,0,0,0,.092-.034c-.047.322.184.7-.179.959" transform="translate(-233.838 -177.014)" fill="#72804d"/>
    <path id="Tracé_8050" data-name="Tracé 8050" d="M193.512,222.713c.369.086.2.384.237.6a.705.705,0,0,1-.237-.6" transform="translate(-149.051 -171.545)" fill="#464917"/>
    <path id="Tracé_8051" data-name="Tracé 8051" d="M397.658,209.338c.217.03.509-.136.6.228a.678.678,0,0,1-.6-.228" transform="translate(-306.296 -161.233)" fill="#3f4a1a"/>
    <path id="Tracé_8052" data-name="Tracé 8052" d="M208.424,222.736a.459.459,0,0,1-.516.222c.064-.327.315-.217.516-.222" transform="translate(-160.141 -171.552)" fill="#a47e1d"/>
    <path id="Tracé_8053" data-name="Tracé 8053" d="M406.719,131.4l.109-.241c-.014.245.1.511-.114.724a.518.518,0,0,1,.005-.483" transform="translate(-313.227 -101.028)" fill="#647a4e"/>
    <path id="Tracé_8054" data-name="Tracé 8054" d="M406.506,132.214l-.005.483-.1.243c0-.246-.1-.508.1-.726" transform="translate(-313.014 -101.838)" fill="#33420e"/>
    <path id="Tracé_8055" data-name="Tracé 8055" d="M365.448,137.853a.9.9,0,0,0,.093-.013c-.039.2.161.468-.174.577a.14.14,0,0,1-.036-.064c.131-.145.088-.331.117-.5" transform="translate(-281.396 -106.171)" fill="#8a8a4a"/>
    <path id="Tracé_8056" data-name="Tracé 8056" d="M404.665,145.519a.758.758,0,0,0,.094-.032q0,.36.006.72a.089.089,0,0,1-.152-.031c.009-.219-.07-.446.052-.656" transform="translate(-311.64 -112.061)" fill="#707e51"/>
    <path id="Tracé_8057" data-name="Tracé 8057" d="M404.5,148.617a.5.5,0,0,0,.109,0c-.018.175.123.41-.182.475l-.034-.2c.063-.082.036-.2.107-.277" transform="translate(-311.48 -114.472)" fill="#9e8b3c"/>
    <path id="Tracé_8058" data-name="Tracé 8058" d="M395.575,208.319a.4.4,0,0,1,.481.236.482.482,0,0,1-.481-.236" transform="translate(-304.691 -160.452)" fill="#33441b"/>
    <path id="Tracé_8059" data-name="Tracé 8059" d="M283.266,205.275a.441.441,0,0,1-.253.351c-.012-.187.005-.352.253-.351" transform="translate(-217.989 -158.113)" fill="#937626"/>
    <path id="Tracé_8060" data-name="Tracé 8060" d="M332.312,189.829c.237,0,.261.164.254.346a.394.394,0,0,1-.254-.346" transform="translate(-255.963 -146.216)" fill="#41470d"/>
    <path id="Tracé_8061" data-name="Tracé 8061" d="M278.946,190.1c0-.272.171-.28.371-.252a.489.489,0,0,1-.371.252" transform="translate(-214.858 -146.224)" fill="#253f1e"/>
    <path id="Tracé_8062" data-name="Tracé 8062" d="M362.562,178.5a.409.409,0,0,1-.357.243c.011-.24.177-.251.357-.243" transform="translate(-278.988 -137.488)" fill="#867628"/>
    <path id="Tracé_8063" data-name="Tracé 8063" d="M318.372,168.212a.443.443,0,0,1-.341.268c-.015-.253.15-.277.341-.268" transform="translate(-244.962 -129.564)" fill="#947926"/>
    <path id="Tracé_8064" data-name="Tracé 8064" d="M302.677,159.369a.572.572,0,0,1-.259-.357c.263-.009.279.161.259.357" transform="translate(-232.937 -122.479)" fill="#7f7b30"/>
    <path id="Tracé_8065" data-name="Tracé 8065" d="M219.44,158.3a.506.506,0,0,1-.244-.373c.25.014.26.185.244.373" transform="translate(-168.836 -121.646)" fill="#7d7a3b"/>
    <path id="Tracé_8066" data-name="Tracé 8066" d="M189.628,154.193a.5.5,0,0,1-.23-.38c.254.019.252.193.23.38" transform="translate(-145.884 -118.474)" fill="#857835"/>
    <path id="Tracé_8067" data-name="Tracé 8067" d="M279.838,307.865a.473.473,0,0,1,.25-.362c.017.19,0,.358-.25.362" transform="translate(-215.545 -236.854)" fill="#947b29"/>
    <path id="Tracé_8068" data-name="Tracé 8068" d="M343.054,128.12a.459.459,0,0,1-.354.255c0-.255.164-.27.354-.255" transform="translate(-263.964 -98.681)" fill="#967724"/>
    <path id="Tracé_8069" data-name="Tracé 8069" d="M412.555,112.421a.469.469,0,0,1,.228-.384c.028.189.028.363-.228.384" transform="translate(-317.77 -86.296)" fill="#967e26"/>
    <path id="Tracé_8070" data-name="Tracé 8070" d="M333.928,191.854c.19-.006.354.02.341.27a.429.429,0,0,1-.341-.27" transform="translate(-257.208 -147.775)" fill="#3a4110"/>
    <path id="Tracé_8071" data-name="Tracé 8071" d="M46.179,89.107a3.411,3.411,0,0,1-2.112,1.419c-.223.133-.52.038-.723.233a.687.687,0,0,1-.214.1c-1.338.088-1.344,1.1-1.424,2.053-.132,1.564-.254,3.128-.385,4.692a1.293,1.293,0,0,1-.087.275c-.3-.593-.02-1.232-.145-1.761.081,1.31-.107,2.7.112,4.089q0,.941,0,1.881c-.116.154.041.378-.13.518a.153.153,0,0,1-.152-.065.5.5,0,0,1-.051-.152c.082,1.192.011,2.385.014,3.577a.283.283,0,0,0,.084.152,6.24,6.24,0,0,1-.19,2.208c-.1.245-.212.416-.464.471a.593.593,0,0,1-.637-.327,1.619,1.619,0,0,1-.359-.913c-.131-.224-.017-.533-.25-.721a16.857,16.857,0,0,1-.933-3.065c-.116-.232-.049-.515-.208-.734-.03-.474-.319-.9-.259-1.393-.138-.389-.007-.828-.229-1.2a7.848,7.848,0,0,1-.246-2.587c.159-.079.125-.228.127-.36.02-1.5-.051-3.01.045-4.513-.072,1.4-.031,2.8-.048,4.206,0,.226.074.475-.124.669a17.275,17.275,0,0,1-.14-4.335c.116-1.183.146-1.2-1-1.121-1.686.117-3.331.511-5,.769-.22.167-.5.086-.736.171a2.6,2.6,0,0,0-2.1.992,50.758,50.758,0,0,0-4.743,5.426,28.017,28.017,0,0,1-6.361,6.177,15.78,15.78,0,0,1-2.565,1.268,1.419,1.419,0,0,1-1.381-.257.444.444,0,0,1-.115-.629,3.315,3.315,0,0,1,.663-.888,118.829,118.829,0,0,0,9.139-10.3c.319-.391.648-.773,1.029-1.225-.731-.145-1.4-.022-2.045-.1a9.84,9.84,0,0,0-1.757-.157c-.207-.031-.424.042-.627-.05a39.319,39.319,0,0,1-6.59-.715c-.233-.059-.517-.1-.521-.385,0-.264.286-.265.487-.326a54.668,54.668,0,0,1,6-1.372c.922-.17,1.842-.349,2.763-.524a7.949,7.949,0,0,1,.961-.217l.22-.022c.343-.149.728-.093,1.077-.218,1.057-.166,2.117-.312,3.169-.507a1.7,1.7,0,0,0,.942-.743c.481-.606.946-1.225,1.418-1.838.135-.08.161-.236.245-.352l.925-1.3a.621.621,0,0,0,.244-.376l.956-1.507a.9.9,0,0,0,.231-.369l2.141-3.643a1.016,1.016,0,0,0,.219-.376c1.844-3.424,3.523-6.933,5.28-10.4a1.773,1.773,0,0,1,1.939-1.035,1.541,1.541,0,0,1,1.3,1.177c-.267.656-.031,1.342-.14,2.007.117-.638-.139-1.3.158-1.926a2.545,2.545,0,0,1,.187,1.146c.012,1.473.013,2.947.018,4.42-.114.158.036.38-.126.526a.152.152,0,0,1-.155-.062,1.927,1.927,0,0,1-.067-.68,20.879,20.879,0,0,1,.009,2.628.556.556,0,0,0,.1.446c.042,1.1-.322,2.177-.228,3.283a17.244,17.244,0,0,0-.11,1.722,1.006,1.006,0,0,1-.109.67l-.026.213a.119.119,0,0,1-.1.073c0,.576.006,1.15,0,1.724a.7.7,0,0,1-.066.356c-.016.327-.009.657-.054.98-.078.557.116.8.689.678.547.143,1.139-.077,1.669.2a2.212,2.212,0,0,1,1.664,1.432.6.6,0,0,1,0,.72" transform="translate(-9.514 -51.872)" fill="#0a4438"/>
    <path id="Tracé_8072" data-name="Tracé 8072" d="M137.194,194.011a1.844,1.844,0,0,1-.216-.836c-.006-1.345,0-2.691.086-4.039a13.606,13.606,0,0,1,.162,2.548q-.016,1.164-.032,2.328" transform="translate(-105.506 -145.681)" fill="#07443c"/>
    <path id="Tracé_8073" data-name="Tracé 8073" d="M136.166,221.27c-.209-.03-.224-.182-.223-.349q0-1.94.005-3.88c0-.072.005-.158.16-.192a2.67,2.67,0,0,1,.075.884,7.832,7.832,0,0,1,.014,2.846q-.016.345-.031.69" transform="translate(-104.71 -167.029)" fill="#034440"/>
    <path id="Tracé_8074" data-name="Tracé 8074" d="M144.39,96.939c-.169-.027-.217-.139-.216-.294.005-1.1.007-2.191.015-3.287,0-.042.053-.084.127-.195a5.649,5.649,0,0,1,.1,1.422,3.2,3.2,0,0,1,.015,1.787q-.019.284-.039.567" transform="translate(-111.05 -71.759)" fill="#06443e"/>
    <path id="Tracé_8075" data-name="Tracé 8075" d="M144.419,72.66v2.681c-.317-.028-.249-.2-.25-.318-.008-.664-.006-1.328,0-1.992,0-.187-.054-.412.236-.453a.074.074,0,0,1,.017.082" transform="translate(-111.041 -55.903)" fill="#06443e"/>
    <path id="Tracé_8076" data-name="Tracé 8076" d="M143.149,126.28a8.711,8.711,0,0,1,.218-2.391q.005.994.011,1.989c0,.178.015.364-.229.4" transform="translate(-110.255 -95.425)" fill="#ab7f12"/>
    <path id="Tracé_8077" data-name="Tracé 8077" d="M137.264,219.045c.023-.167-.033-.35.1-.5q0,1.5,0,2.994c0,.115.011.24-.126.3a15.959,15.959,0,0,1,.03-2.8" transform="translate(-105.668 -168.336)" fill="#748253"/>
    <path id="Tracé_8078" data-name="Tracé 8078" d="M43.305,181.606c.759,0,1.518,0,2.277-.006.213,0,.318.017.108.213l-.126,0a1.248,1.248,0,0,0-.577-.018,6.5,6.5,0,0,1-1.681-.186" transform="translate(-33.356 -139.877)" fill="#303400"/>
    <path id="Tracé_8079" data-name="Tracé 8079" d="M137.114,220.7q-.015,1.4-.03,2.8a.3.3,0,0,1-.078.047q-.007-1.423-.014-2.846l.122,0" transform="translate(-105.518 -169.992)" fill="#3a430e"/>
    <path id="Tracé_8080" data-name="Tracé 8080" d="M145.488,97.667c.025-.171-.028-.357.1-.509q0,1.1,0,2.2c0,.016-.014.045-.019.045a.621.621,0,0,1-.09-.019,5.059,5.059,0,0,1,.012-1.716" transform="translate(-112.001 -74.836)" fill="#818750"/>
    <path id="Tracé_8081" data-name="Tracé 8081" d="M146.768,151.981a11.589,11.589,0,0,1-1.669-.2c.423,0,.845-.011,1.268-.008.165,0,.365-.041.4.212" transform="translate(-111.762 -116.898)" fill="#908747"/>
    <path id="Tracé_8082" data-name="Tracé 8082" d="M121.54,211.4c.491.321.127.806.229,1.2a2.388,2.388,0,0,1-.229-1.2" transform="translate(-93.613 -162.827)" fill="#1d4025"/>
    <path id="Tracé_8083" data-name="Tracé 8083" d="M145.342,99.357q-.006.858-.012,1.717a.407.407,0,0,1-.1.065q-.008-.893-.015-1.787l.123.005" transform="translate(-111.855 -76.526)" fill="#3f450e"/>
    <path id="Tracé_8084" data-name="Tracé 8084" d="M142.188,141.328q-.021-.164-.043-.328c.1-.189.024-.4.067-.6a.111.111,0,0,1,.146-.038v1.442l-.17-.481" transform="translate(-109.487 -108.107)" fill="#968c45"/>
    <path id="Tracé_8085" data-name="Tracé 8085" d="M58.846,165.117a1.657,1.657,0,0,1-1.077.218c.31-.314.7-.229,1.077-.218" transform="translate(-44.497 -127.167)" fill="#7e6c1b"/>
    <path id="Tracé_8086" data-name="Tracé 8086" d="M159.585,159.655q0-.36,0-.72c.361.242.366.482,0,.72" transform="translate(-122.92 -122.42)" fill="#ad7f18"/>
    <path id="Tracé_8087" data-name="Tracé 8087" d="M53.592,166.16a1.449,1.449,0,0,1-.961.217,1.06,1.06,0,0,1,.961-.217" transform="translate(-40.539 -127.97)" fill="#7e6c1b"/>
    <path id="Tracé_8088" data-name="Tracé 8088" d="M90.577,179.911a1.494,1.494,0,0,1,.736-.171c.017.063.238.126.062.167a3.338,3.338,0,0,1-.8,0" transform="translate(-69.767 -138.445)" fill="#97873b"/>
    <path id="Tracé_8089" data-name="Tracé 8089" d="M123.645,222.683c.387.155.161.483.208.734a.915.915,0,0,1-.208-.734" transform="translate(-95.23 -171.521)" fill="#474d17"/>
    <path id="Tracé_8090" data-name="Tracé 8090" d="M142.492,136.419l-.049,0-.049,0a2.238,2.238,0,0,1,0-1.16.556.556,0,0,0,.093-.032q0,.6,0,1.191" transform="translate(-109.621 -104.159)" fill="#6d7d55"/>
    <path id="Tracé_8091" data-name="Tracé 8091" d="M147.247,168.406c.129-.426.476-.173.723-.233a.924.924,0,0,1-.723.233" transform="translate(-113.417 -129.519)" fill="#364a19"/>
    <path id="Tracé_8092" data-name="Tracé 8092" d="M128.643,239.218c.472.105.179.476.25.721a1,1,0,0,1-.25-.721" transform="translate(-99.087 -184.258)" fill="#1e4325"/>
    <path id="Tracé_8093" data-name="Tracé 8093" d="M50.622,182.15a.489.489,0,0,1,.577.018l-.577-.018" transform="translate(-38.992 -140.236)" fill="#0a4438"/>
    <path id="Tracé_8094" data-name="Tracé 8094" d="M86.766,150.2c.011.182,0,.349-.245.352a.409.409,0,0,1,.245-.352" transform="translate(-66.643 -115.695)" fill="#3c4a19"/>
    <path id="Tracé_8095" data-name="Tracé 8095" d="M91.856,142.889c.028.2.026.373-.244.376a.513.513,0,0,1,.244-.376" transform="translate(-70.564 -110.06)" fill="#2b411b"/>
    <path id="Tracé_8096" data-name="Tracé 8096" d="M97.064,134.721c.021.184.017.353-.231.369a.442.442,0,0,1,.231-.369" transform="translate(-74.586 -103.769)" fill="#3c461b"/>
    <path id="Tracé_8097" data-name="Tracé 8097" d="M107.372,117.227c.023.182.025.351-.22.376a.419.419,0,0,1,.22-.376" transform="translate(-82.533 -90.294)" fill="#3e481b"/>
    <path id="Tracé_8098" data-name="Tracé 8098" d="M328.307,27.962h3.286a12.005,12.005,0,0,1-3.286,0" transform="translate(-252.878 -21.537)" fill="#f1eee0"/>
    <path id="Tracé_8099" data-name="Tracé 8099" d="M317.471,27.91c.278-.2.589-.068.885-.091a2.176,2.176,0,0,1-.885.091" transform="translate(-244.532 -21.411)" fill="#212224"/>
    <path id="Tracé_8100" data-name="Tracé 8100" d="M324.888,27.314a.347.347,0,0,0-.039.086l-.694.006c.224-.188.487-.076.733-.092" transform="translate(-249.68 -21.024)" fill="#212224"/>
    <path id="Tracé_8101" data-name="Tracé 8101" d="M312.846,28.436c.2-.172.425-.077.643-.085a1.3,1.3,0,0,1-.643.085" transform="translate(-240.969 -21.823)" fill="#212224"/>
    <path id="Tracé_8102" data-name="Tracé 8102" d="M488.08,115.4a10.112,10.112,0,0,1-2.006.8c-2.411.676-4.018-1.342-4.483-2.959-.724-2.516.091-4.748,1.3-6.9a23.083,23.083,0,0,1,2.94-3.938c.289-.328.329-.544,0-.879-.726-.738-1.408-1.52-2.109-2.284-.086-.121-.106-.291-.267-.355a5.433,5.433,0,0,1-1.092-4.475,9.3,9.3,0,0,1,2.862-5.186,2.653,2.653,0,0,1,2.989-.716c.209.217.531-.022.742.186.694.146.813.327.937,1.43.155.266.094.583.2.86a10.3,10.3,0,0,0,1.008,3.159c.081.178.183.347.255.528.177.445.544.972.1,1.354-.412.357-.922.011-1.354-.219-.089-.125-.246-.151-.358-.241a2.633,2.633,0,0,1-.835-1.047,1.138,1.138,0,0,0-.228-.376c-.434-.826-.875-1.649-1.3-2.48-.156-.308-.3-.363-.633-.186-1.411.758-2.477,3.6-.58,5.16.24.2.485.39.729.584a2.4,2.4,0,0,1,.6.505,10.072,10.072,0,0,0,1.468,1.251.754.754,0,0,0,.964-.034,37.068,37.068,0,0,1,6.549-3.382.694.694,0,0,1,.72-.026l.186.046c.2.133.156.293.052.46a8.085,8.085,0,0,1-1.668,1.636c-.078.137-.243.152-.349.251-1.322.962-2.641,1.93-3.969,2.884-.295.212-.208.4-.054.643a8.371,8.371,0,0,1,1.4,3.433,21,21,0,0,1-.1,2.464c-.133.313-.022.68-.222.977a21.015,21.015,0,0,1-1.9,4.351c-.076.124-.111.274-.235.368a11.655,11.655,0,0,1-1.892,2.1c-.074.149-.241.167-.358.255" transform="translate(-370.735 -68.02)" fill="#0a4438"/>
    <path id="Tracé_8103" data-name="Tracé 8103" d="M504.851,111.223a3.945,3.945,0,0,0,2.283,1.727,4.166,4.166,0,0,1-.888.644c-.162.126-.288.02-.413-.09-.813-.712-1.62-1.43-2.445-2.126a2.124,2.124,0,0,1-.12-2.468c.226-.349.309-.039.371.114a10.356,10.356,0,0,0,.965,1.812.836.836,0,0,1,.247.385" transform="translate(-387.385 -83.766)" fill="#212224"/>
    <path id="Tracé_8104" data-name="Tracé 8104" d="M529.829,172.163a1.628,1.628,0,0,1,.222-.977c-.067.327.238.739-.222.977" transform="translate(-408.097 -131.856)" fill="#a57e18"/>
    <path id="Tracé_8105" data-name="Tracé 8105" d="M548.015,118.944l-.72.026c.227-.356.468-.347.72-.026" transform="translate(-421.554 -91.431)" fill="#9c7d20"/>
    <path id="Tracé_8106" data-name="Tracé 8106" d="M518.794,97.063a1.355,1.355,0,0,1-.2-.86c.386.212.163.567.2.86" transform="translate(-399.439 -74.1)" fill="#9b7a21"/>
    <path id="Tracé_8107" data-name="Tracé 8107" d="M506.206,127.594a1.2,1.2,0,0,1-.6-.505.572.572,0,0,1,.6.505" transform="translate(-389.446 -97.89)" fill="#8b7f35"/>
    <path id="Tracé_8108" data-name="Tracé 8108" d="M511.625,89.259a4.382,4.382,0,0,1-.752.007c-.268-.042,0-.126.01-.193a.183.183,0,0,1,.091-.028c.185.141.437-.035.617.131.012.027.024.055.034.083" transform="translate(-393.408 -68.586)" fill="#2e3c0e"/>
    <path id="Tracé_8109" data-name="Tracé 8109" d="M551.291,120.407q-.026-.23-.052-.46c.144-.006.256.027.269.2a.216.216,0,0,1-.217.26" transform="translate(-424.592 -92.389)" fill="#aa7f17"/>
    <path id="Tracé_8110" data-name="Tracé 8110" d="M502.124,113.683a1.239,1.239,0,0,1,0-.749,1.227,1.227,0,0,1,0,.749" transform="translate(-386.716 -86.987)" fill="#bc831b"/>
    <path id="Tracé_8111" data-name="Tracé 8111" d="M520.543,194.743a.443.443,0,0,1,.235-.368c.02.185.011.352-.235.368" transform="translate(-400.948 -149.717)" fill="#8d7728"/>
    <path id="Tracé_8112" data-name="Tracé 8112" d="M510.75,205.392a.47.47,0,0,1,.358-.255c0,.256-.167.27-.358.255" transform="translate(-393.405 -158.007)" fill="#967a28"/>
    <path id="Tracé_8113" data-name="Tracé 8113" d="M490.6,134.329c.261-.012.281.159.268.355a.472.472,0,0,1-.268-.355" transform="translate(-377.884 -103.467)" fill="#333d16"/>
    <path id="Tracé_8114" data-name="Tracé 8114" d="M542.683,129.323a.423.423,0,0,1,.349-.251c0,.241-.165.261-.349.251" transform="translate(-418.001 -99.418)" fill="#887628"/>
    <path id="Tracé_8115" data-name="Tracé 8115" d="M517.994,119.877c.18-.01.344,0,.358.241a.388.388,0,0,1-.358-.241" transform="translate(-398.985 -92.334)" fill="#434614"/>
    <path id="Tracé_8116" data-name="Tracé 8116" d="M510.45,118.215a.571.571,0,0,1-.247-.385c.261.013.269.189.247.385" transform="translate(-392.984 -90.758)" fill="#9f7732"/>
    <path id="Tracé_8117" data-name="Tracé 8117" d="M513.369,113.693c.243.024.247.193.228.376a.431.431,0,0,1-.228-.376" transform="translate(-395.422 -87.572)" fill="#40450d"/>
    <path id="Tracé_8118" data-name="Tracé 8118" d="M512.327,89.128c-.208-.031-.435.026-.617-.131.21.022.451-.1.617.131" transform="translate(-394.144 -68.539)" fill="#747c4b"/>
    <path id="Tracé_8119" data-name="Tracé 8119" d="M386.116,263.294a2.566,2.566,0,0,0,2.226,2.142.5.5,0,0,1,.384.1c-.082.055-.165.094-.224.044.36.049.757-.006,1.179.029-.111-.03-.208,0-.275-.075a3.308,3.308,0,0,0,2.131-1.066c.133-.086.166-.238.24-.363a6.86,6.86,0,0,0,.494-2.756q-.032-3.657,0-7.313c0-.434-.112-.577-.56-.573-1.181.012-1.181-.009-1.245-1.216-.04-.764-.04-.764.731-.764,1.592,0,3.185.016,4.777-.01.448-.007.564.133.561.569-.007,1.417.01,1.439-1.343,1.421-.476-.006-.594.146-.591.6.02,2.654.013,5.308.005,7.962,0,.267.076.553-.1.8a1.2,1.2,0,0,1-.057-.635q-.007-4.035,0-8.069a3.968,3.968,0,0,0-.024-.553c-.045-.074-.152.025-.081-.009.028-.013.035.007.052.02.1.075.047.179.047.265q.005,4.594,0,9.188a.57.57,0,0,1-.047.287,4.13,4.13,0,0,1-2.8,3.652,6.876,6.876,0,0,1-5.846-.341,2.834,2.834,0,0,1-1.3-1.308.864.864,0,0,0-.228-.378,5.458,5.458,0,0,1-.689-2.7c-.032-2.693-.027-5.387-.006-8.08,0-.519-.1-.724-.671-.706-1.247.039-1.218.007-1.259-1.269-.018-.566.142-.734.714-.72,1.631.039,3.263.03,4.9,0,.448-.007.565.132.561.568-.01,1.4.007,1.42-1.368,1.423-.418,0-.534.137-.532.542.018,2.713.015,5.426.018,8.139a2.955,2.955,0,0,0,.234,1.145" transform="translate(-293.92 -193.697)" fill="#5e2a2c"/>
    <path id="Tracé_8120" data-name="Tracé 8120" d="M460.6,252.872a3.975,3.975,0,0,1,1.195,4.514,3.322,3.322,0,0,1-1.261,1.586c-.2.139-.357.243-.034.389a3.95,3.95,0,0,1,2.345,3.086,2.662,2.662,0,0,1,0,1.254,5.146,5.146,0,0,1-.629,1.672,3.881,3.881,0,0,1-2.308,1.667,20.392,20.392,0,0,1-5.174.474,27.933,27.933,0,0,0-3.244.048c-.292.032-.453-.077-.451-.386,0-.078.006.02,0-.059-.1-1.337-.1-1.337,1.264-1.381a.735.735,0,0,0,.505-.115l0,0a.888.888,0,0,0,.114-.623c0-3.483-.009-6.966.013-10.449,0-.5-.152-.73-.641-.766-.156-.012-.312-.03-.469-.037-.713-.029-.785-.1-.792-.784-.01-.925-.01-.926.9-.926h6.376c.221.013.455-.043.647.124l1.271.476a.914.914,0,0,1,.375.241" transform="translate(-347.38 -194.127)" fill="#5e2a2c"/>
    <path id="Tracé_8121" data-name="Tracé 8121" d="M458.046,251.722c-2.2,0-4.408.027-6.611-.006-.573-.009-.639.226-.625.7.013.446-.027.842.627.747a2.487,2.487,0,0,1,.866.043c.38.082.413.4.412.735-.006,2.44,0,4.88,0,7.32,0,1.141,0,2.283,0,3.424,0,.2.1.459-.229.519-.006-.079-.012-.158-.017-.237l0-11.338a5.654,5.654,0,0,0-1.255-.065c-.2-.02-.423.072-.614-.071-.006-.491.011-.984-.025-1.472-.031-.425.137-.531.54-.527,2.024.019,4.048.011,6.071.012.258.19.653-.149.864.222" transform="translate(-347.049 -193.708)" fill="#652e1d"/>
    <path id="Tracé_8122" data-name="Tracé 8122" d="M452.473,311.175c-.214.454-.62.145-.928.23-.229.064-.6-.139-.678.162a2.86,2.86,0,0,0,.012,1.39c.032.126.2.09.313.079a20.113,20.113,0,0,1,4.5.019c.312.04.511-.228.769-.212a18.635,18.635,0,0,0,3.112-.249,7.5,7.5,0,0,1-3.153.563c-1.767.062-3.537.008-5.306.026-.4,0-.577-.095-.545-.524.037-.489.021-.982.027-1.472l1.877-.011" transform="translate(-347.048 -239.682)" fill="#652e1d"/>
    <path id="Tracé_8123" data-name="Tracé 8123" d="M456.213,320.61q-3.052.005-6.1.006c-.195,0-.456.1-.515-.23,2.033,0,4.067-.005,6.1,0,.194,0,.455-.1.519.224" transform="translate(-346.299 -246.766)" fill="#bf7e01"/>
    <path id="Tracé_8124" data-name="Tracé 8124" d="M437.317,270.134v-9.822h.111v9.329a.618.618,0,0,1-.111.493" transform="translate(-336.843 -200.505)" fill="#5b261c"/>
    <path id="Tracé_8125" data-name="Tracé 8125" d="M448.628,312.489q.012-1.181.024-2.362c.174.024.411-.068.433.235-.462.288-.224.773-.268,1.152a6.98,6.98,0,0,0,.032.983l-.222-.008" transform="translate(-345.555 -238.875)" fill="#bf7e01"/>
    <path id="Tracé_8126" data-name="Tracé 8126" d="M480.223,251.74c-.25-.221-.613,0-.864-.222.35,0,.7,0,1.05-.006.182,0,.36,0,.389.243l-.576-.015" transform="translate(-369.226 -193.726)" fill="#b7791b"/>
    <path id="Tracé_8127" data-name="Tracé 8127" d="M502.556,297.833q0-.627,0-1.254.01-.115.02-.23l.1,0q0,.8,0,1.6c0,.007-.043.022-.044.021-.025-.043-.047-.088-.07-.133" transform="translate(-387.094 -228.26)" fill="#b67c3b"/>
    <path id="Tracé_8128" data-name="Tracé 8128" d="M381.821,262.03l-.041,0h-.041c-.34-.194-.71-.057-1.064-.095-.222-.024-.464.053-.648-.142.451,0,.9-.008,1.354,0,.181,0,.42-.071.441.239" transform="translate(-292.715 -201.64)" fill="#ac843b"/>
    <path id="Tracé_8129" data-name="Tracé 8129" d="M450.691,260.157c.62.085,1.263-.147,1.869.136-.621-.078-1.263.149-1.869-.136" transform="translate(-347.145 -200.379)" fill="#b87d2e"/>
    <path id="Tracé_8130" data-name="Tracé 8130" d="M425.118,306.475c.014.183.017.358-.239.363q.017-.112.034-.223l.205-.14" transform="translate(-327.263 -236.062)" fill="#723a15"/>
    <path id="Tracé_8131" data-name="Tracé 8131" d="M393.023,310.14c.259.015.247.2.229.378a.455.455,0,0,1-.229-.378" transform="translate(-302.726 -238.885)" fill="#703011"/>
    <path id="Tracé_8132" data-name="Tracé 8132" d="M491.533,254.861a.513.513,0,0,1-.375-.241c.187-.016.367-.022.375.241" transform="translate(-378.314 -196.116)" fill="#af7228"/>
    <path id="Tracé_8133" data-name="Tracé 8133" d="M332.458,260.952a19.4,19.4,0,0,1-4.1.236c-.274,0-.386.1-.384.377q.013,1.651,0,3.3c0,.3.144.363.4.362.491,0,.981.018,1.472.028-.379.3-.817.037-1.18.138.02,0,.079,0,.137,0,1.231,0,1.38.185,1.172,1.425-.038.227-.117.314-.378.321-1.781.052-3.563,0-5.344.022a.616.616,0,0,1-.6-.28,3.854,3.854,0,0,1,.016-1.4,6.769,6.769,0,0,1,1.662-.09c.079.005-.014-.123.012-.049a8.608,8.608,0,0,1-1.558.038.1.1,0,0,1-.047-.157l0,0a.317.317,0,0,1,.465-.011h.231a.474.474,0,0,1,.6,0,.274.274,0,0,0,.113,0c.115-.16.357-.071.468-.238,0-3.662,0-7.324.022-10.986,0-.4-.153-.488-.521-.493-1.44-.02-1.426-.031-1.406-1.484.006-.386.122-.508.508-.5,2.048.018,4.1-.026,6.143.031a8.844,8.844,0,0,1,3.047.575,3.391,3.391,0,0,1,2.255,2.654c.415,2.3.08,4.3-1.8,5.577-.429.291-.948.359-1.391.607" transform="translate(-249.245 -193.724)" fill="#5e2a2c"/>
    <path id="Tracé_8134" data-name="Tracé 8134" d="M327.814,310.277h-.6c.2-.447.4-.251.6,0" transform="translate(-252.039 -238.785)" fill="#b57814"/>
    <path id="Tracé_8135" data-name="Tracé 8135" d="M324.648,310.37l-.465.011a.235.235,0,0,1,.108-.25c.173,0,.344,0,.357.239" transform="translate(-249.7 -238.878)" fill="#b57814"/>
    <path id="Tracé_8136" data-name="Tracé 8136" d="M330.772,310.13c-.01.366-.281.22-.468.238.038-.311.283-.217.468-.238" transform="translate(-254.416 -238.877)" fill="#b57814"/>
    <path id="Tracé_8137" data-name="Tracé 8137" d="M449.4,40.561a.265.265,0,0,0,.211.232.855.855,0,0,1,.044.936,5.094,5.094,0,0,1-.5,1.272.9.9,0,0,1-.234.376,11.765,11.765,0,0,1-2.34,2.639c.283-1.93.372-3.911,1.656-5.553.493-.38.574-.374,1.163.1" transform="translate(-343.978 -30.956)" fill="#0a4438"/>
    <path id="Tracé_8138" data-name="Tracé 8138" d="M454.95,40.049c-.378-.147-.746-.4-1.163-.1.4-.6.814-.562,1.163.1" transform="translate(-349.529 -30.444)" fill="#aa821a"/>
    <path id="Tracé_8139" data-name="Tracé 8139" d="M459.81,43.748q-.022-.468-.044-.936c.363.257.378.584.044.936" transform="translate(-354.135 -32.976)" fill="#ab8213"/>
    <path id="Tracé_8140" data-name="Tracé 8140" d="M456.764,52.8a.465.465,0,0,1,.234-.376c.025.19.02.36-.234.376" transform="translate(-351.822 -40.377)" fill="#977d25"/>
    <path id="Tracé_8141" data-name="Tracé 8141" d="M323.913,312.893a1,1,0,0,0,.582.244c1.748-.052,3.5.068,5.246-.063.307-.023.315-.12.313-.331,0-.02,0-.039,0-.059-.02-1.481.178-1.167-1.152-1.2a3.772,3.772,0,0,1-.584-.037c.562-.186,1.16.044,1.719-.156a.237.237,0,0,1,.11-.019,5.7,5.7,0,0,1,.04,1.864c-.178.183-.407.108-.613.109-1.882.007-3.764.005-5.645.006a.238.238,0,0,1-.015-.356" transform="translate(-249.438 -239.755)" fill="#5e270d"/>
    <path id="Tracé_8142" data-name="Tracé 8142" d="M351.33,313.089q-.02-.932-.04-1.864l.137-.014a6.886,6.886,0,0,1-.1,1.877" transform="translate(-270.581 -239.711)" fill="#9b6444"/>
    <path id="Tracé_8143" data-name="Tracé 8143" d="M323.283,312.841l.015.356a1.956,1.956,0,0,1,0-2,.726.726,0,0,0,.008.1q.045.05.023.091c-.014.026-.028.039-.04.039q0,.7,0,1.4" transform="translate(-248.808 -239.702)" fill="#b57814"/>
    <path id="Tracé_8144" data-name="Tracé 8144" d="M412.131,312.688l.342.015c0,.021,0,.043,0,.065H411.1c.08-.148.237-.041.356-.077l.68,0" transform="translate(-316.646 -240.846)" fill="#612909"/>
    <path id="Tracé_8145" data-name="Tracé 8145" d="M262.116,214.319a11.8,11.8,0,0,0-.267,1.508c-.114.233-.048.517-.207.737-.558,2.2-1.153,4.382-1.843,6.542s-1.332,4.366-2.163,6.494a16.307,16.307,0,0,1-2.875,5.116.246.246,0,0,1-.222.137c-.4.006-.286-.412-.473-.582a8.7,8.7,0,0,1-.223-4c.2-.381.093-.816.213-1.211a15.769,15.769,0,0,1,1.076-3.877,49.83,49.83,0,0,1,5.925-10.522c.285-.416.544-.85.816-1.276.132-.208.3-.315.34.024a1.5,1.5,0,0,1-.1.914" transform="translate(-195.426 -164.207)" fill="#be7e01"/>
    <path id="Tracé_8146" data-name="Tracé 8146" d="M419.709,36.915c.048.6-.326,1.129-.266,1.727a10.86,10.86,0,0,0-.653,2.295,61.248,61.248,0,0,1-3.159,9.3c-.4.046-.23-.209-.2-.387.185-1.082.572-2.11.843-3.169.039-.152.084-.3.127-.452.181-.211.119-.494.218-.729.426-1.662.875-3.318,1.429-4.944.165-.172.128-.416.22-.613a32.987,32.987,0,0,1,1.207-3.407c.412-.084.261.187.238.378" transform="translate(-319.938 -28.131)" fill="#c07d01"/>
    <path id="Tracé_8147" data-name="Tracé 8147" d="M347.789,136.286a5.281,5.281,0,0,1-1.153,1.3c-.68-.031-.28-.473-.289-.76a.884.884,0,0,1,.238-.672.764.764,0,0,0,.232-.386,5.125,5.125,0,0,1,1.2-1.252c.082-.136.241-.159.357-.246.119.01.27-.076.33.11-.072.2-.144.4-.209.6a1.968,1.968,0,0,1-.469.941c-.136.084-.17.236-.241.363" transform="translate(-266.69 -103.412)" fill="#bd7e03"/>
    <path id="Tracé_8148" data-name="Tracé 8148" d="M402.426,167.2l.005,3.777c-.156-.108-.123-.274-.123-.425q0-1.461,0-2.922c0-.152-.034-.317.118-.429" transform="translate(-309.875 -128.783)" fill="#233a15"/>
    <path id="Tracé_8149" data-name="Tracé 8149" d="M433.552,50.208a5.689,5.689,0,0,1-.247,1.881c-.253-.789.2-1.3.247-1.881" transform="translate(-333.695 -38.673)" fill="#0b453b"/>
    <path id="Tracé_8150" data-name="Tracé 8150" d="M289.451,213.79c.007-.284.009-.568.021-.852.014-.351-.151-.132-.263-.086-.012-.192,0-.371.264-.35.189.015.21.17.193.306-.042.333.156.721-.215.982" transform="translate(-222.761 -163.679)" fill="#414c1d"/>
    <path id="Tracé_8151" data-name="Tracé 8151" d="M345.912,145.433c.1.251-.187.651.289.76a.877.877,0,0,1-.5.519,1.694,1.694,0,0,1,.21-1.279" transform="translate(-266.255 -112.02)" fill="#b57f13"/>
    <path id="Tracé_8152" data-name="Tracé 8152" d="M414.665,94.544c.034.147-.028.346.2.387-.143.242-.17.55-.416.734a.345.345,0,0,1-.023-.394,1.117,1.117,0,0,1,.234-.728" transform="translate(-319.177 -72.822)" fill="#ab7f18"/>
    <path id="Tracé_8153" data-name="Tracé 8153" d="M254.448,282.257c-.085.4.255.877-.213,1.211a2.2,2.2,0,0,1,.213-1.211" transform="translate(-195.818 -217.408)" fill="#ac7f14"/>
    <path id="Tracé_8154" data-name="Tracé 8154" d="M433.458,34.639c-.038-.152.018-.363-.238-.378-.014-.264.2-.45.241-.695.315.193.111.466.109.709a.513.513,0,0,1-.112.364" transform="translate(-333.687 -25.855)" fill="#9d8126"/>
    <path id="Tracé_8155" data-name="Tracé 8155" d="M255.225,304.957c.337-.011.139.525.5.489.032.126-.078.164-.142.23a.66.66,0,0,1-.358-.72" transform="translate(-196.585 -234.893)" fill="#997925"/>
    <path id="Tracé_8156" data-name="Tracé 8156" d="M204.895,216.574q0,.7,0,1.405a1.808,1.808,0,0,1,0-1.405" transform="translate(-157.711 -166.816)" fill="#42490d"/>
    <path id="Tracé_8157" data-name="Tracé 8157" d="M434.381,33.4c-.063-.232.088-.5-.109-.709,0-.1,0-.221.1-.252.165-.049.12.1.121.179,0,.252-.011.5-.017.756a.7.7,0,0,1-.094.025" transform="translate(-334.498 -24.979)" fill="#7f7024"/>
    <path id="Tracé_8158" data-name="Tracé 8158" d="M403.406,154.857a3.074,3.074,0,0,1-.12,1.205c.049-.4-.133-.825.12-1.205" transform="translate(-310.617 -119.279)" fill="#2f4112"/>
    <path id="Tracé_8159" data-name="Tracé 8159" d="M288.182,225.413a.923.923,0,0,1,.206-.737c-.042.253.189.583-.206.737" transform="translate(-221.966 -173.057)" fill="#3b4b20"/>
    <path id="Tracé_8160" data-name="Tracé 8160" d="M404.493,145.923l-.107.276c0-.349,0-.7,0-1.046,0-.011.023-.023.035-.034l.082.117q0,.344-.009.687" transform="translate(-311.477 -111.778)" fill="#1f3b17"/>
    <path id="Tracé_8161" data-name="Tracé 8161" d="M413.906,97.711q.011.2.022.394a.435.435,0,0,1-.219.358,1.051,1.051,0,0,1,.2-.752" transform="translate(-318.651 -75.262)" fill="#7c7a3f"/>
    <path id="Tracé_8162" data-name="Tracé 8162" d="M420.047,75.61c-.049.25.174.581-.218.729a1.119,1.119,0,0,1,.218-.729" transform="translate(-323.371 -58.239)" fill="#867423"/>
    <path id="Tracé_8163" data-name="Tracé 8163" d="M427.214,51.419c-.024.222.143.513-.22.613a.749.749,0,0,1,.22-.613" transform="translate(-328.888 -39.605)" fill="#8b7421"/>
    <path id="Tracé_8164" data-name="Tracé 8164" d="M303.671,229.962c-.036.281.062.582-.125.841.036-.281-.111-.589.125-.841" transform="translate(-233.796 -177.128)" fill="#32400d"/>
    <path id="Tracé_8165" data-name="Tracé 8165" d="M356.052,135.389a.681.681,0,0,1,.209-.6.7.7,0,0,1-.209.6" transform="translate(-274.243 -103.818)" fill="#79671c"/>
    <path id="Tracé_8166" data-name="Tracé 8166" d="M256.791,307.169l.142-.23.2-.044c.021.255-.148.276-.337.275" transform="translate(-197.793 -236.385)" fill="#30431c"/>
    <path id="Tracé_8167" data-name="Tracé 8167" d="M352.965,141.871c-.019-.187-.011-.356.241-.363a.433.433,0,0,1-.241.363" transform="translate(-271.866 -108.996)" fill="#977a22"/>
    <path id="Tracé_8168" data-name="Tracé 8168" d="M347.98,140.825c.029.192.027.366-.232.386a.471.471,0,0,1,.232-.386" transform="translate(-267.853 -108.47)" fill="#9d7e29"/>
    <path id="Tracé_8169" data-name="Tracé 8169" d="M354.354,134.293a.416.416,0,0,1-.357.246c0-.251.172-.26.357-.246" transform="translate(-272.666 -103.436)" fill="#33441b"/>
    <path id="Tracé_8170" data-name="Tracé 8170" d="M102.635,133.041a24.5,24.5,0,0,1,1.637-2.243c.146-.077.174-.237.252-.361l2.235-3.123.1.026a17.6,17.6,0,0,0-.171,1.767,34.821,34.821,0,0,1-.284,3.874,1.263,1.263,0,0,1-.206.664,21.37,21.37,0,0,1-2.778.574c-.372.047-.693.291-1.076.242-.2-.026-.532.079-.409-.342l-.009-.009c.127-.088.154-.242.238-.358l.231-.35c.128-.088.159-.241.239-.36" transform="translate(-78.495 -98.064)" fill="#bd7e01"/>
    <path id="Tracé_8171" data-name="Tracé 8171" d="M120.475,182.164q.006-2.3.013-4.6a1.458,1.458,0,0,1,.058-.519c.042-.106.152-.282.3-.239.182.054.07.209.048.339a8.689,8.689,0,0,0-.162,1.265c-.021,1.2-.009,2.4-.006,3.6,0,.2.014.386-.246.154v0" transform="translate(-92.796 -136.182)" fill="#08453d"/>
    <path id="Tracé_8172" data-name="Tracé 8172" d="M101.288,155.208c.213.416.578.257.854.163a9.81,9.81,0,0,1,1.888-.39c.51-.068.979-.4,1.521-.247-.136.429-.535.24-.8.3-1.078.25-2.17.44-3.259.639-.134.024-.341.11-.411-.082-.057-.158.088-.281.207-.384" transform="translate(-77.848 -119.154)" fill="#b08017"/>
    <path id="Tracé_8173" data-name="Tracé 8173" d="M144.322,86.321a1.952,1.952,0,0,1-.007,1.25,1.708,1.708,0,0,1,.007-1.25" transform="translate(-111.07 -66.489)" fill="#06443e"/>
    <path id="Tracé_8174" data-name="Tracé 8174" d="M142.258,134.96q0,.58,0,1.16c-.043.21.03.44-.115.632q0-.941,0-1.882c0-.011.025-.021.038-.032l.081.122" transform="translate(-109.482 -103.859)" fill="#1a381b"/>
    <path id="Tracé_8175" data-name="Tracé 8175" d="M102.222,155.333c.01.179,0,.346-.238.358a.419.419,0,0,1,.238-.358" transform="translate(-78.553 -119.645)" fill="#86752d"/>
    <path id="Tracé_8176" data-name="Tracé 8176" d="M104.268,152.242c.015.183,0,.348-.239.36a.429.429,0,0,1,.239-.36" transform="translate(-80.128 -117.264)" fill="#83752f"/>
    <path id="Tracé_8177" data-name="Tracé 8177" d="M112.444,140.909c.018.192,0,.359-.252.361a.463.463,0,0,1,.252-.361" transform="translate(-86.415 -108.535)" fill="#947e28"/>
    <path id="Tracé_8178" data-name="Tracé 8178" d="M499.034,158.811a11.568,11.568,0,0,1-3.611,6.54c-.132.124-.289.342-.492.27-.255-.091-.157-.371-.174-.571a7.865,7.865,0,0,1,1.071-3.9,21.754,21.754,0,0,1,2.378-3.871c.1-.136.147-.357.359-.354.28.005.188.3.3.442a1.1,1.1,0,0,1,.167.5,1.014,1.014,0,0,1,0,.95" transform="translate(-381.075 -120.869)" fill="#bd7e01"/>
    <path id="Tracé_8179" data-name="Tracé 8179" d="M513.418,161.956v-.95a.552.552,0,0,1,0,.95" transform="translate(-395.459 -124.015)" fill="#1c4027"/>
    <path id="Tracé_8180" data-name="Tracé 8180" d="M399.291,269.411v-7.955h.059v7.978Z" transform="translate(-307.554 -201.386)" fill="#5c261d"/>
    <path id="Tracé_8181" data-name="Tracé 8181" d="M473.655,261.706a4.8,4.8,0,0,1-.106,1.451,2.355,2.355,0,0,1-1.707,1.368c-.337.173-.716-.032-1.056.117-1.637-.048-1.64-.048-1.638-1.72,0-.963.011-1.926.017-2.89a19.66,19.66,0,0,1,2.129-.045c.226.077.488.009.7.165a2.2,2.2,0,0,1,1.652,1.423c.038.025.053.053.044.083s-.02.047-.031.047" transform="translate(-361.361 -200.249)" fill="#bd7e05"/>
    <path id="Tracé_8182" data-name="Tracé 8182" d="M477.724,293.607a2.487,2.487,0,0,1-.71,1.5,1.116,1.116,0,0,1-.557.306,6.2,6.2,0,0,1-2.7.338c-.146-.007-.368.029-.371-.171s.22-.208.368-.2c.491.008.964-.151,1.455-.141a1.616,1.616,0,0,0,1.04-.325,2.387,2.387,0,0,0,.747-1.775,2.574,2.574,0,0,0-.433-1.19c-.055-.142-.179-.252-.192-.413.065-.282.245-.241.441-.158.636.328.736.969.914,1.564a.835.835,0,0,1,0,.673" transform="translate(-364.625 -224.379)" fill="#b97b07"/>
    <path id="Tracé_8183" data-name="Tracé 8183" d="M473.12,292.6c-.245.475-.718.443-1.14.493-.594.071-1.193.106-1.787.2a6.427,6.427,0,0,0,2.557-.167,1.1,1.1,0,0,1,.406-.021,3.791,3.791,0,0,1-1.682.471.186.186,0,0,1-.241.007c-.528,0-1.058-.025-1.584,0-.395.02-.555-.091-.548-.519.026-1.565.016-3.131.02-4.7a.19.19,0,0,1,.278.02,1.705,1.705,0,0,1,.12.918c.01,1.1,0,2.194.009,3.291,0,.185-.1.489.3.384a20.2,20.2,0,0,0,3.07-.43.282.282,0,0,1,.224.043" transform="translate(-361.324 -222.079)" fill="#ba7e0c"/>
    <path id="Tracé_8184" data-name="Tracé 8184" d="M474.989,288.79c-.163.019-.361-.017-.38.235a.289.289,0,0,1-.167.1,13.137,13.137,0,0,0-3.274-.391c-.349-.359,0-.522.2-.728a4.706,4.706,0,0,1,1.823.087.221.221,0,0,0,.1,0c.342.145.764-.039,1.069.259.19.172.479.2.626.435" transform="translate(-362.803 -221.8)" fill="#ba7e0c"/>
    <path id="Tracé_8185" data-name="Tracé 8185" d="M471.783,287.75l-1.9.007a.355.355,0,0,1-.471,0l-.23-.006c.01-.169.106-.238.268-.237q1.024,0,2.049,0a.25.25,0,0,1,.279.235" transform="translate(-361.391 -221.458)" fill="#663014"/>
    <path id="Tracé_8186" data-name="Tracé 8186" d="M471.445,259.758l-2.224-.009a6.721,6.721,0,0,1,2.817.026.762.762,0,0,1-.593-.017" transform="translate(-361.417 -199.967)" fill="#612b00"/>
    <path id="Tracé_8187" data-name="Tracé 8187" d="M471.727,311.214l.241-.007c-.022.17-.13.225-.288.224-.646,0-1.291,0-1.938-.038.652-.187,1.34.065,1.985-.179" transform="translate(-361.819 -239.707)" fill="#5f2813"/>
    <path id="Tracé_8188" data-name="Tracé 8188" d="M481.985,288.711a4,4,0,0,1-1.069-.259c.35.113.821-.275,1.069.259" transform="translate(-370.425 -222.156)" fill="#663014"/>
    <path id="Tracé_8189" data-name="Tracé 8189" d="M492.27,298.283q0-.337,0-.674l.017-.228.057,0v1.145c-.116-.048-.051-.16-.076-.24" transform="translate(-379.171 -229.055)" fill="#622904"/>
    <path id="Tracé_8190" data-name="Tracé 8190" d="M488.719,267.059q-.007-.064-.013-.129c.467.286.144.7.244,1.2-.239-.428,0-.79-.231-1.069" transform="translate(-376.426 -205.603)" fill="#5e280a"/>
    <path id="Tracé_8191" data-name="Tracé 8191" d="M476.277,279.878c.337-.179.7-.071,1.056-.117-.327.269-.706.064-1.056.117" transform="translate(-366.852 -215.486)" fill="#652a04"/>
    <path id="Tracé_8192" data-name="Tracé 8192" d="M478.9,260.245l.593.017c0,.032,0,.064.008.1-.205-.009-.428.074-.6-.112" transform="translate(-368.873 -200.454)" fill="#8c5625"/>
    <path id="Tracé_8193" data-name="Tracé 8193" d="M344.379,260.18a5.825,5.825,0,0,1,2.1.246,2.243,2.243,0,0,1,1.625,2.212,4.928,4.928,0,0,1-.144,1.635,2.17,2.17,0,0,1-1.512,1.444,11.4,11.4,0,0,1-3.454.263c-.22,0-.322-.1-.321-.318q0-2.568,0-5.136c0-.254.111-.353.355-.349.413.006.826,0,1.356,0" transform="translate(-263.94 -200.398)" fill="#bc7d06"/>
    <path id="Tracé_8194" data-name="Tracé 8194" d="M324.16,311.786c.005-.043.011-.087.017-.13h1.734v.13Z" transform="translate(-249.684 -240.053)" fill="#602510"/>
    <path id="Tracé_8195" data-name="Tracé 8195" d="M263.345,238.353a36.317,36.317,0,0,1-1.089,3.841c-.576,1.851-1.187,3.692-1.783,5.537-.058.176-.063.375-.217.511a22.076,22.076,0,0,1-1.783,3.619,4.382,4.382,0,0,1-.049-1.6c.417-4.525,2.392-8.443,4.763-12.206.238,0,.2.145.158.292" transform="translate(-199.013 -183.366)" fill="#202224"/>
    <path id="Tracé_8196" data-name="Tracé 8196" d="M279.481,236.738a.372.372,0,0,0-.158-.292.736.736,0,0,1,.383-.482l-.226.774" transform="translate(-215.148 -181.751)" fill="#3c280c"/>
    <path id="Tracé_8197" data-name="Tracé 8197" d="M266.562,280.666a.764.764,0,0,1,.217-.511c0,.2.108.448-.217.511" transform="translate(-205.319 -215.789)" fill="#966f22"/>
    <path id="Tracé_8198" data-name="Tracé 8198" d="M114.078,144.9a.378.378,0,0,0-.08.027c-.643.2-.774.134-.739-.379a13.242,13.242,0,0,1,.949-1.362v.772c-.157.3.059.648-.13.942" transform="translate(-87.234 -110.287)" fill="#2b2721"/>
    <path id="Tracé_8199" data-name="Tracé 8199" d="M111.829,149.112c.01.587.468.3.738.379-.246.235-.481.3-1.171.321a1.148,1.148,0,0,1,.432-.7" transform="translate(-85.803 -114.853)" fill="#34250f"/>
    <path id="Tracé_8200" data-name="Tracé 8200" d="M116.84,147.488a2.327,2.327,0,0,1,.13-.942c-.049.313.147.66-.13.942" transform="translate(-89.996 -112.877)" fill="#9e8347"/>
    <path id="Tracé_8201" data-name="Tracé 8201" d="M503.085,174.4l.611-1.209a3.213,3.213,0,0,1-.465,1.272l-.146-.064" transform="translate(-387.501 -133.403)" fill="#825405"/>
    <path id="Tracé_8202" data-name="Tracé 8202" d="M473.669,262.364c1.2.482,1.608,1.165,1.316,2.161a1.564,1.564,0,0,1-1.241,1.121,6.57,6.57,0,0,1-1.752.128c-.2-.007-.353-.043-.353-.284,0-1,0-2,.013-3,0-.079.1-.157.157-.236a.222.222,0,0,1,.18-.02c.44.022.881,0,1.322.012a.5.5,0,0,1,.359.113" transform="translate(-363.279 -201.981)" fill="#212323"/>
    <path id="Tracé_8203" data-name="Tracé 8203" d="M471.979,261.86l-.03.014-.031-.009-.136-.072a4.4,4.4,0,0,1,1.96.07c.023.008.025.07.037.107l-.374-.043a11.686,11.686,0,0,1-1.426-.067" transform="translate(-363.39 -201.588)" fill="#af8637"/>
    <path id="Tracé_8204" data-name="Tracé 8204" d="M471.072,290.817a6.908,6.908,0,0,1,3.33.379c.125.083.3.1.366.263a2.131,2.131,0,0,1-.237,3.011,8.936,8.936,0,0,1-3.3.488c-.253,0-.275-.206-.278-.368-.023-1.189-.049-2.378.013-3.566a.383.383,0,0,1,.1-.207" transform="translate(-362.734 -223.952)" fill="#202224"/>
    <path id="Tracé_8205" data-name="Tracé 8205" d="M486.4,292.882a.689.689,0,0,1-.366-.263l.139-.02a.24.24,0,0,1,.227.283" transform="translate(-374.37 -225.374)" fill="#987232"/>
    <path id="Tracé_8206" data-name="Tracé 8206" d="M470.479,289.136c.006,1.18.009,2.36.02,3.54,0,.207-.071.44.142.6-.077.147-.173.285-.363.2-.159-.07-.11-.237-.111-.367q0-2.27,0-4.541h.471c.128.239-.287.326-.159.566" transform="translate(-362.141 -222.271)" fill="#b97b07"/>
    <path id="Tracé_8207" data-name="Tracé 8207" d="M349.314,265.863c-.09.749-.64,1.051-1.264,1.217a9.658,9.658,0,0,1-2.571.193c-.263,0-.33-.139-.33-.371q0-1.97,0-3.941c0-.241.084-.387.333-.369a8.946,8.946,0,0,1,2.85.279,1.422,1.422,0,0,1,.983,1.063,3.839,3.839,0,0,1,0,1.929" transform="translate(-265.849 -202.26)" fill="#212224"/>
    <path id="Tracé_8208" data-name="Tracé 8208" d="M363.279,270.367q0-.965,0-1.929l.091.132a3.95,3.95,0,0,1,.006,1.648l-.094.15" transform="translate(-279.814 -206.764)" fill="#2d1f04"/>
    <path id="Tracé_8209" data-name="Tracé 8209" d="M363.677,270.658q0-.824-.006-1.648a2.254,2.254,0,0,1,.006,1.648" transform="translate(-280.117 -207.205)" fill="#6c614b"/>
    <path id="Tracé_8210" data-name="Tracé 8210" d="M472.641,262.3a5.659,5.659,0,0,1,1.426.067,4.808,4.808,0,0,1-1.426-.067" transform="translate(-364.051 -202.024)" fill="#bd7e05"/>
    <path id="Tracé_8211" data-name="Tracé 8211" d="M474.045,291.734a1.546,1.546,0,0,1-1.056.148c-.408-.014-.553.117-.541.535.026.977.008,1.955.008,2.935-.3,0-.233-.183-.231-.294a31.012,31.012,0,0,1,.058-3.114c.018-.145-.044-.214.174-.253.539-.1,1.054.1,1.588.043" transform="translate(-363.723 -224.654)" fill="#1e222d"/>
  </g>
</svg>
