<svg id="Calque_8" data-name="Calque 8" xmlns="http://www.w3.org/2000/svg" viewBox="0 0 369.73 425.2"><defs><style>.cls-1{fill:#e45d58;}.cls-2,.cls-7{fill:#e66e64;}.cls-2{opacity:0.9;}.cls-3{fill:#eb8b7e;}.cls-4{fill:#f0a497;}.cls-5{fill:#f5c4b9;}.cls-6{fill:#fae3dc;}.cls-8{fill:#d03635;}.cls-9{fill:#1e2a41;}</style></defs><title>BLC_logo</title><path class="cls-1" d="M304.36,323.9c21.21,0,33.68-7.84,33.68-12.58s0-24.66,0-24.66c-.11-36.56-8.23-41.44-19.2-52.11C288.48,205,295.36,171.27,306.72,141H309c-5.59,14.91-10,30.71-8.78,46.36,33.4,34,46.91-46.35,72.15-46.33h1.15c11.34,30.31,18.19,64.08-12.19,93.58-11,10.66-19.1,15.53-19.24,52.09,0,0,0,19.92,0,24.66s12.46,12.6,33.67,12.61c7.15,0,9.25,3.37,1.27,3.61l-73.94,0C295.11,327.27,297.2,323.89,304.36,323.9Z" transform="translate(-148.31 -28.35)"/><path class="cls-2" d="M385.35,35.67a29.38,29.38,0,0,0,16.26,29.12A28.72,28.72,0,0,0,404.47,66a29.28,29.28,0,0,1-4.2-27.8l0-.1,0-.1a7.57,7.57,0,0,0-3.94-8.88,7.68,7.68,0,0,0-10.27,3.39,7.59,7.59,0,0,0-.69,2.28Z" transform="translate(-148.31 -28.35)"/><path class="cls-3" d="M412.48,38.7a5.17,5.17,0,0,0-2.9.89,5.11,5.11,0,0,0-1.16,1.11l-.34.47A19.7,19.7,0,0,0,408,63.59c.4.58.83,1.13,1.27,1.66A19.78,19.78,0,0,1,416,47.53l.05,0,.06-.05a5.08,5.08,0,0,0,.63-6.5,5.16,5.16,0,0,0-4.27-2.24" transform="translate(-148.31 -28.35)"/><path class="cls-4" d="M421.45,50.36l-.41,0a3.34,3.34,0,0,0-1,.3l-.33.17A12.7,12.7,0,0,0,413,63.63a11.37,11.37,0,0,0,.23,1.32,12.82,12.82,0,0,1,9.1-8.16h.09a3.28,3.28,0,0,0-1-6.41" transform="translate(-148.31 -28.35)"/><path class="cls-5" d="M389.35,61.79a3.32,3.32,0,0,0-2,.67,3.27,3.27,0,0,0-.63,4.61,3.6,3.6,0,0,0,.76.7l.32.2a13,13,0,0,0,13.07.19A29.64,29.64,0,0,1,394.6,65c-.76-.51-1.52-1-2.22-1.58-.3-.24-.55-.51-.84-.76a3.31,3.31,0,0,0-2.19-.82" transform="translate(-148.31 -28.35)"/><path class="cls-1" d="M423.88,60.28h-.21l-.21,0A7.29,7.29,0,0,0,417.68,65a16.94,16.94,0,0,1,3.92-.88c.52,0,1-.11,1.55-.11h0l.62,0h.05a1.87,1.87,0,0,0,.41-3.69l-.38,0" transform="translate(-148.31 -28.35)"/><path class="cls-6" d="M303.62,141a19.88,19.88,0,0,0-2.29.38,22,22,0,0,0-17,18.14l-.08.63a5.57,5.57,0,0,0,.08,1.77,5.69,5.69,0,0,0,5.55,4.4,5.41,5.41,0,0,0,1.26-.14,5.65,5.65,0,0,0,4.44-5.7v-.17a21.79,21.79,0,0,1,8-19.31" transform="translate(-148.31 -28.35)"/><path class="cls-5" d="M306.38,137.2h0m-14.12-2.28c-1.15,0-2.31.05-3.48.14a44.45,44.45,0,0,0-36.3,24.17l-.14.27a10.65,10.65,0,0,0-1.29,5.95,10.85,10.85,0,0,0,10.84,10c.28,0,.57,0,.85,0a10.88,10.88,0,0,0,10-9.66v-.07A34.29,34.29,0,0,1,304,137.27h0l2.35-.07h0a44.77,44.77,0,0,0-14.12-2.28" transform="translate(-148.31 -28.35)"/><path class="cls-4" d="M264.18,116.38A63.26,63.26,0,0,0,212,144l-.22.33A16,16,0,0,0,209,151.5a16.24,16.24,0,0,0,14.28,18,16.56,16.56,0,0,0,2,.12,16.37,16.37,0,0,0,14.82-9.41l.3-.71a50.32,50.32,0,0,1,46.35-30.7,51.83,51.83,0,0,1,6.06.36,50.52,50.52,0,0,1,14.4,3.93,63.05,63.05,0,0,0-35.41-16.3,65.08,65.08,0,0,0-7.6-.45" transform="translate(-148.31 -28.35)"/><path class="cls-3" d="M229,79.77c-2.61,0-5.23.11-7.88.33a90.31,90.31,0,0,0-70.23,44.08l-.38.63A17.9,17.9,0,0,0,148.37,135a18.2,18.2,0,0,0,18.17,16.54q.79,0,1.59-.06a18.23,18.23,0,0,0,12.44-6.43l1.12-1.48a90.31,90.31,0,0,1,63.73-34.5q4-.34,7.86-.34A90.51,90.51,0,0,1,309,127.91a90.52,90.52,0,0,0-80-48.14" transform="translate(-148.31 -28.35)"/><path class="cls-7" d="M216.89,30.54a92.89,92.89,0,0,0-58.06,20.18,16.47,16.47,0,0,0-6.1,15.6,16.73,16.73,0,0,0,15.34,13.89c.37,0,.75,0,1.12,0a16.78,16.78,0,0,0,8-2l.5-.28a92.75,92.75,0,0,1,41.78-12.36c1.67-.09,3.33-.13,5-.13a92.72,92.72,0,0,1,85,55.35v0q-.06-3.36-.37-6.75c-4.26-46.59-44-83-91.19-83.5h-1" transform="translate(-148.31 -28.35)"/><path class="cls-4" d="M452.08,77.79A35,35,0,0,1,438,83.35a10.58,10.58,0,0,1,.85,2.28,10.85,10.85,0,0,1-.4,6.3,19.55,19.55,0,0,1,3.28-.28,34.78,34.78,0,0,1,10.35,2c-2.4-4-7-6-12.76-6,6.53-.74,10.27-4.48,12.76-9.83" transform="translate(-148.31 -28.35)"/><path class="cls-1" d="M377,139.88c5.11,6.1,4.29,10.28,7.39,15.41a7.3,7.3,0,0,0,6,3.52h.23a7.27,7.27,0,0,0,7.28-7,7.11,7.11,0,0,0-2.22-5.36c-2.13-2.05-7.69-5.39-18.71-6.58" transform="translate(-148.31 -28.35)"/><path class="cls-5" d="M388.86,126a5.54,5.54,0,0,0-1.76.28c-2.09.69-6.22,3.19-10.79,10a17.64,17.64,0,0,1,3.78-.43,23.53,23.53,0,0,1,4.14.45,22.89,22.89,0,0,0,4,.44l.87,0a5.43,5.43,0,0,0,4.42-2.74,5.35,5.35,0,0,0-4.67-8" transform="translate(-148.31 -28.35)"/><path class="cls-1" d="M422.82,70.18c-22.71-3.31-55.54,16.79-49.95,64.87,11.59-36.57,66.68-2.35,70.2-38.9-.05-1.8-.09-3.61-.14-5.41A24,24,0,0,0,422.82,70.18Zm7.56,17a5.66,5.66,0,1,1-2.87-5.54A5.6,5.6,0,0,1,430.38,87.2Z" transform="translate(-148.31 -28.35)"/><path class="cls-8" d="M162.19,353.16h7.41c4.56,0,6.51,2.64,6.51,5.83a5.87,5.87,0,0,1-2.36,4.37,6.06,6.06,0,0,1,3.56,5.53c0,3.6-2.21,6.53-7.34,6.53h-7.78Zm7.41,9.2c2.8,0,3.66-1.67,3.66-3.37s-.86-3.34-3.66-3.34h-4.42v6.71Zm.37,10.58c3.37,0,4.38-2,4.38-4.05s-1-4-4.38-4h-4.79v8.09Z" transform="translate(-148.31 -28.35)"/><path class="cls-8" d="M188.56,353.16h3v22.26h-3Z" transform="translate(-148.31 -28.35)"/><path class="cls-8" d="M203,373.2l.68-2.75a9.16,9.16,0,0,0,6.81,3c2.65,0,4.71-1.48,4.71-3.89s-1.12-3.53-5.31-4.64-6.25-3.38-6.25-6.49,2.62-5.79,7.22-5.79a10.16,10.16,0,0,1,6.1,2l-.67,2.42a10.07,10.07,0,0,0-5.43-2c-2.8,0-4.41,1.3-4.41,3.38,0,1.59,1,2.93,4.52,3.86,4.83,1.26,7,3.34,7,7,0,4.34-3.67,6.57-7.52,6.57A10.59,10.59,0,0,1,203,373.2Z" transform="translate(-148.31 -28.35)"/><path class="cls-8" d="M234.58,355.65h-8v-2.49h18.94v2.49h-8v19.77h-3Z" transform="translate(-148.31 -28.35)"/><path class="cls-8" d="M265.25,371.53l-2.95-5.31H259v9.2h-3V353.16h7.41c5.12,0,7.33,2.93,7.33,6.53a6,6,0,0,1-5.43,6.35l2.7,4.52c1.35,2.27,2.54,2.93,4.23,2.93a5.2,5.2,0,0,0,1.27-.14v2.07a7.81,7.81,0,0,1-2.06.26C269,375.68,266.86,374.42,265.25,371.53Zm-1.79-7.79c3.36,0,4.37-2,4.37-4.05s-1-4-4.37-4H259v8.09Z" transform="translate(-148.31 -28.35)"/><path class="cls-8" d="M282.23,364.29c0-6.83,5-11.76,11.94-11.76s11.9,4.93,11.9,11.76-5.05,11.76-11.9,11.76S282.23,371.12,282.23,364.29Zm20.73,0c0-5.41-3.67-9.27-8.79-9.27s-8.83,3.86-8.83,9.27,3.66,9.28,8.83,9.28S303,369.67,303,364.29Z" transform="translate(-148.31 -28.35)"/><path class="cls-8" d="M321.92,355.65h-8v-2.49h18.94v2.49h-8v19.77h-3Z" transform="translate(-148.31 -28.35)"/><path class="cls-8" d="M357.24,353.16h6.06V370.9h9.54v4.52h-15.6Z" transform="translate(-148.31 -28.35)"/><path class="cls-8" d="M383.16,353.16h15.61v4.53h-9.55v3.74h7.67v4.49h-7.67v5h9.55v4.52H383.16Z" transform="translate(-148.31 -28.35)"/><path class="cls-8" d="M423.3,364.29c0-7.2,5.61-11.61,12.08-11.61a13.6,13.6,0,0,1,7.9,2.22V360a10.67,10.67,0,0,0-6.88-2.59c-3.78,0-6.67,2.41-6.67,6.86s2.89,6.87,6.67,6.87a10.68,10.68,0,0,0,6.88-2.6v5.12a13.6,13.6,0,0,1-7.9,2.23C428.91,375.91,423.3,371.49,423.3,364.29Z" transform="translate(-148.31 -28.35)"/><path class="cls-8" d="M453.26,364.29c0-6.83,5.58-11.76,12.46-11.76s12.39,4.93,12.39,11.76-5.54,11.76-12.39,11.76S453.26,371.12,453.26,364.29Zm18.41,0c0-4.27-2.2-7.05-5.95-7.05s-6,2.78-6,7.05,2.24,7,6,7S471.67,368.56,471.67,364.29Z" transform="translate(-148.31 -28.35)"/><path class="cls-8" d="M499.32,380.36a6.78,6.78,0,0,0-4.53,1.85l-2.1-2a16,16,0,0,1,4.5-4.68,11.52,11.52,0,0,1-8.87-11.28c0-6.83,5.57-11.76,12.46-11.76s12.38,4.93,12.38,11.76c0,6.42-4.86,11-10.85,11.69a6.29,6.29,0,0,0-2.88,1.19c6.51-.63,8.94,3.63,12.65,3.63,1.68,0,2.65-1.11,3-2.78h3c.11,3.23-1.76,7.61-6.4,7.61C506.17,385.63,503.7,380.36,499.32,380.36Zm7.41-16.07c0-4.27-2.21-7.05-6-7.05s-6,2.78-6,7.05,2.25,7,6,7S506.73,368.56,506.73,364.29Z" transform="translate(-148.31 -28.35)"/><path class="cls-9" d="M216.27,424.31h-5.56V410.7H216c3,0,4.14,1.61,4.14,3.56a3.56,3.56,0,0,1-1.46,2.68,3.7,3.7,0,0,1,2.19,3.38C220.91,422.52,219.56,424.31,216.27,424.31Zm-2.77-8.14h2.08c1.4,0,2-.77,2-1.77s-.57-1.77-2-1.77H213.5Zm2.29,1.92H213.5v4.29h2.29c1.74,0,2.42-.93,2.42-2.15S217.53,418.09,215.79,418.09Z" transform="translate(-148.31 -28.35)"/><path class="cls-9" d="M237.42,424.31,236,421h-5.55l-1.4,3.36h-2.7l5.83-13.61h2.18l5.83,13.61Zm-4.16-10.23-2,4.94h4.05Z" transform="translate(-148.31 -28.35)"/><path class="cls-9" d="M257.86,424.31h-3.07L251,418.89h-1.72v5.42h-2.79V410.7h5.4c3.24,0,4.64,1.91,4.64,4.11a3.71,3.71,0,0,1-2.74,3.78Zm-8.58-7.37h2.15c1.74,0,2.36-.91,2.36-2.11s-.62-2.15-2.36-2.15h-2.15Z" transform="translate(-148.31 -28.35)"/><path class="cls-9" d="M283.85,424.67a4.79,4.79,0,0,1-3.16-1.07,5,5,0,0,1-3.27,1.07c-2.63,0-5.05-1.32-5.05-3.92,0-1.73,1.19-2.82,2.56-3.68a6.85,6.85,0,0,1-1.1-3.28c0-2,1.88-3.47,4.19-3.47,2.15,0,3.68,1.29,3.68,2.95,0,2-2,3-3.84,4.05a24,24,0,0,0,2.65,3.06,12.93,12.93,0,0,0,.36-3.17h4.05v1.63h-2.15a7.71,7.71,0,0,1-.75,3.09,3.11,3.11,0,0,0,2.19,1,2.29,2.29,0,0,0,1.63-.89l.77,1A3.35,3.35,0,0,1,283.85,424.67Zm-7.85-6a2.58,2.58,0,0,0-1.05,2,2.39,2.39,0,0,0,2.65,2.29,2.48,2.48,0,0,0,1.65-.59A25.72,25.72,0,0,1,276,418.64Zm2-6.64a1.69,1.69,0,0,0-1.78,1.76,4.32,4.32,0,0,0,.66,2.18c1.4-.79,2.59-1.52,2.59-2.67A1.33,1.33,0,0,0,278,412Z" transform="translate(-148.31 -28.35)"/><path class="cls-9" d="M312.49,424.31h-3.06l-3.8-5.42h-1.71v5.42h-2.79V410.7h5.39c3.25,0,4.65,1.91,4.65,4.11a3.72,3.72,0,0,1-2.75,3.78Zm-8.57-7.37h2.15c1.73,0,2.35-.91,2.35-2.11s-.62-2.15-2.35-2.15h-2.15Z" transform="translate(-148.31 -28.35)"/><path class="cls-9" d="M319,424.31V410.7h8.94v2.16h-6.15v3.19h5v2.16h-5v3.94h6.15v2.16Z" transform="translate(-148.31 -28.35)"/><path class="cls-9" d="M339.12,424.58a7.43,7.43,0,0,1-4.87-1.7l.64-2.18a6.25,6.25,0,0,0,4.23,1.84c1.38,0,2.43-.68,2.43-1.88s-.64-1.73-2.88-2.27c-2.88-.7-4-2.22-4-4.17,0-2.22,1.79-3.83,4.73-3.83a7,7,0,0,1,4.12,1.33l-.59,1.93a7,7,0,0,0-3.55-1.18c-1.35,0-2.15.59-2.15,1.57,0,.79.48,1.4,2.36,1.85,3.2.8,4.57,2.14,4.57,4.49C344.13,423.31,341.71,424.58,339.12,424.58Z" transform="translate(-148.31 -28.35)"/><path class="cls-9" d="M356.7,412.86v11.45h-2.79V412.86h-4.64V410.7h12.07v2.16Z" transform="translate(-148.31 -28.35)"/><path class="cls-9" d="M375.66,424.31l-1.4-3.36h-5.55l-1.4,3.36h-2.7l5.83-13.61h2.17l5.84,13.61Zm-4.17-10.23-2,4.94h4.05Z" transform="translate(-148.31 -28.35)"/><path class="cls-9" d="M390.13,424.69c-3.62,0-6.31-2.06-6.31-6.66V410.7h2.83v7.23c0,2.95,1.28,4.38,3.52,4.38s3.52-1.43,3.52-4.38V410.7h2.72V418C396.41,422.63,393.74,424.69,390.13,424.69Z" transform="translate(-148.31 -28.35)"/><path class="cls-9" d="M415.39,424.31h-3.06l-3.8-5.42h-1.71v5.42H404V410.7h5.4c3.25,0,4.64,1.91,4.64,4.11a3.71,3.71,0,0,1-2.74,3.78Zm-8.57-7.37H409c1.74,0,2.36-.91,2.36-2.11s-.62-2.15-2.36-2.15h-2.14Z" transform="translate(-148.31 -28.35)"/><path class="cls-9" d="M431.57,424.31,430.18,421h-5.56l-1.39,3.36h-2.7l5.83-13.61h2.17l5.83,13.61Zm-4.16-10.23-2,4.94h4Z" transform="translate(-148.31 -28.35)"/><path class="cls-9" d="M450.32,424.31l-7.18-9v9h-2.49V410.7h1.94l7.18,9v-9h2.49v13.61Z" transform="translate(-148.31 -28.35)"/><path class="cls-9" d="M466,412.86v11.45h-2.79V412.86h-4.64V410.7h12.08v2.16Z" transform="translate(-148.31 -28.35)"/><path class="cls-9" d="M209.64,446.13a7.54,7.54,0,0,1,7.57-6.87,6.65,6.65,0,0,1,4.23,1.43l-.3,1.72a5.45,5.45,0,0,0-4.18-1.68c-2.7,0-5.08,2-5.56,5.4s1.4,5.85,4.09,5.85a6.88,6.88,0,0,0,4.6-1.77l-.3,1.81a8,8,0,0,1-4.53,1.43C211.81,453.45,209,450.53,209.64,446.13Z" transform="translate(-148.31 -28.35)"/><path class="cls-9" d="M227.59,446.88l1.3-7.33h1.76l-1.3,7.35c-.62,3.54.71,5.17,3,5.17,2.12,0,4-1.63,4.57-5.17l1.3-7.35h1.67l-1.3,7.33c-.82,4.6-3.07,6.66-6.38,6.66S226.76,451.48,227.59,446.88Z" transform="translate(-148.31 -28.35)"/><path class="cls-9" d="M247.61,439.55h1.72l-2.43,13.61h-1.71Z" transform="translate(-148.31 -28.35)"/><path class="cls-9" d="M254.15,451.66l.57-1.56a4.45,4.45,0,0,0,3.71,2,2.92,2.92,0,0,0,3-2.45c.18-1.38-.39-2.29-2.68-3s-3.22-2.22-3-4.08,2.08-3.33,4.48-3.33a4.87,4.87,0,0,1,3.39,1.36l-.53,1.31a4.37,4.37,0,0,0-3.13-1.27,2.4,2.4,0,0,0-2.56,2c-.16,1.09.29,2,2.15,2.57,2.65.77,3.77,2.33,3.47,4.37-.41,2.86-2.6,3.92-4.91,3.92A5.07,5.07,0,0,1,254.15,451.66Z" transform="translate(-148.31 -28.35)"/><path class="cls-9" d="M271.91,439.55h1.72l-2.43,13.61h-1.71Z" transform="translate(-148.31 -28.35)"/><path class="cls-9" d="M281.31,439.55h1l5.74,10.3,1.83-10.3h1.58L289,453.16h-1l-5.74-10.3-1.83,10.3h-1.55Z" transform="translate(-148.31 -28.35)"/><path class="cls-9" d="M299.09,439.55h7.71l-.28,1.46h-6l-.73,4.26h4.94l-.27,1.42h-4.94l-.87,5h6l-.28,1.45h-7.7Z" transform="translate(-148.31 -28.35)"/><path class="cls-9" d="M322.12,439.55H326c5.12,0,6.65,3.29,6,7s-3.14,6.58-8.19,6.58h-4.07Zm1.78,12.11c4.16,0,5.81-2.58,6.28-5.31s-.22-5.3-4.39-5.3h-2.24l-1.89,10.61Z" transform="translate(-148.31 -28.35)"/><path class="cls-9" d="M338.92,446.88l1.3-7.33H342l-1.3,7.35c-.62,3.54.71,5.17,3,5.17,2.12,0,3.95-1.63,4.57-5.17l1.31-7.35h1.66l-1.3,7.33c-.82,4.6-3.06,6.66-6.38,6.66S338.09,451.48,338.92,446.88Z" transform="translate(-148.31 -28.35)"/><path class="cls-9" d="M367,439.55h1.53l2.93,11.29,6.95-11.29h1.67l-2.43,13.61H376l1.64-9.25.23-1.16c0,.11-.43.84-.61,1.16l-5.63,9.25h-1.14l-2.31-9.23c-.09-.36-.23-1.2-.23-1.2s-.14.88-.18,1.2l-1.65,9.23h-1.55Z" transform="translate(-148.31 -28.35)"/><path class="cls-9" d="M391.91,439.55H393l3.06,13.61h-1.69l-.85-3.81h-5.62l-2.22,3.81H384Zm1.3,8.32-1.23-5.6-3.25,5.6Z" transform="translate(-148.31 -28.35)"/><path class="cls-9" d="M412.14,453.16h-2l-2.9-5.63h-2.13l-1,5.63h-1.72l2.43-13.61h4.09c2.9,0,3.93,2.07,3.54,4.27a4.28,4.28,0,0,1-3.43,3.58Zm-4.36-7.05a2.85,2.85,0,0,0,3-2.52,2,2,0,0,0-2.15-2.58h-2.36l-.91,5.1Z" transform="translate(-148.31 -28.35)"/><path class="cls-9" d="M419,446.13a7.54,7.54,0,0,1,7.57-6.87,6.65,6.65,0,0,1,4.23,1.43l-.3,1.72a5.45,5.45,0,0,0-4.18-1.68c-2.7,0-5.08,2-5.56,5.4s1.4,5.85,4.09,5.85a6.88,6.88,0,0,0,4.6-1.77l-.3,1.81a8,8,0,0,1-4.52,1.43C421.19,453.45,418.4,450.53,419,446.13Z" transform="translate(-148.31 -28.35)"/><path class="cls-9" d="M438.27,439.55H440l-1,5.72h7l1-5.72h1.72l-2.43,13.61h-1.71l1.14-6.47h-7l-1.15,6.47h-1.71Z" transform="translate(-148.31 -28.35)"/><path class="cls-9" d="M456.38,439.55h7.7l-.27,1.46h-6l-.73,4.26H462l-.27,1.42h-4.94l-.87,5h6l-.27,1.45H454Zm2.95-1.9,3.08-2.54.85,1.27-3.64,1.75Z" transform="translate(-148.31 -28.35)"/></svg>