<svg xmlns="http://www.w3.org/2000/svg" width="44" height="44" viewBox="0 0 44 44">
  <g id="Groupe_6" data-name="Groupe 6" transform="translate(-833 -565)">
    <path id="Cookies" d="M24,46A22,22,0,1,0,2,24,22,22,0,0,0,24,46ZM13,20a3,3,0,1,0-3-3A3,3,0,0,0,13,20ZM38,33a3,3,0,1,1-3-3A3,3,0,0,1,38,33ZM27,30a5,5,0,1,0-5-5A5,5,0,0,0,27,30Zm7-18a2,2,0,1,1-2-2A2,2,0,0,1,34,12ZM16,36a2,2,0,1,0-2-2A2,2,0,0,0,16,36Z" transform="translate(831 563)" fill="#fd5851" fill-rule="evenodd"/>
    <circle id="Ellipse_5" data-name="Ellipse 5" cx="5" cy="5" r="5" transform="translate(853 583)" fill="#202020"/>
    <circle id="Ellipse_6" data-name="Ellipse 6" cx="3" cy="3" r="3" transform="translate(841 577)" fill="#202020"/>
    <circle id="Ellipse_7" data-name="Ellipse 7" cx="3" cy="3" r="3" transform="translate(863 593)" fill="#202020"/>
    <circle id="Ellipse_8" data-name="Ellipse 8" cx="3" cy="3" r="3" transform="translate(844 594)" fill="#202020"/>
    <circle id="Ellipse_9" data-name="Ellipse 9" cx="3" cy="3" r="3" transform="translate(860 572)" fill="#202020"/>
  </g>
</svg>
