<svg xmlns="http://www.w3.org/2000/svg" width="21.415" height="20.885" viewBox="0 0 21.415 20.885">
  <path id="github_1_" data-name="github (1)" d="M12.707,2.247A10.707,10.707,0,0,0,9.321,23.111c.535.094.736-.227.736-.509,0-.254-.013-1.1-.013-1.994-2.69.5-3.386-.656-3.6-1.258a3.893,3.893,0,0,0-1.1-1.512c-.375-.2-.91-.7-.013-.709a2.143,2.143,0,0,1,1.646,1.1,2.288,2.288,0,0,0,3.118.883,2.252,2.252,0,0,1,.683-1.432C8.4,17.41,5.908,16.487,5.908,12.391a4.167,4.167,0,0,1,1.1-2.877,3.848,3.848,0,0,1,.107-2.837s.9-.281,2.944,1.1a10.094,10.094,0,0,1,5.353,0c2.048-1.392,2.944-1.1,2.944-1.1a3.847,3.847,0,0,1,.107,2.837,4.142,4.142,0,0,1,1.1,2.877c0,4.109-2.5,5.019-4.885,5.286a2.535,2.535,0,0,1,.723,1.981c0,1.432-.013,2.583-.013,2.944,0,.281.2.616.736.509A10.712,10.712,0,0,0,12.707,2.247Z" transform="translate(-1.999 -2.247)" fill="#FFF"/>
</svg>
