<svg xmlns="http://www.w3.org/2000/svg" xmlns:xlink="http://www.w3.org/1999/xlink" width="695.238" height="656.074" viewBox="0 0 695.238 656.074">
  <defs>
    <clipPath id="clip-path">
      <rect id="Rectangle_98" data-name="Rectangle 98" width="695.238" height="656.074" transform="translate(78 91)" fill="#e24e59"/>
    </clipPath>
  </defs>
  <g id="Human" transform="translate(-78 -91)" clip-path="url(#clip-path)">
    <path id="Tracé_768" data-name="Tracé 768" d="M424.288,344.106a15.207,15.207,0,0,1,13.92,3.936l.36.1a16.08,16.08,0,0,0-29.564-4.219c-.235.441-24.716,41.881-72.51,41.881-47.276,0-71.55-40.215-72.51-41.881a16.071,16.071,0,0,0-29.093,2.669l.077-.077a17.76,17.76,0,0,1,15.077-5.712,10.853,10.853,0,0,1,7.344,13.382,63.554,63.554,0,0,1-10.373,19.2c-.187.3-.374.581-.581.864,14.515,17.179,44.3,43.714,90,43.714a117.6,117.6,0,0,0,89.435-43,55.415,55.415,0,0,1-9.3-17.371A11.131,11.131,0,0,1,424.288,344.106Z" transform="translate(89.294 139.343)" fill="#fff"/>
    <path id="Tracé_769" data-name="Tracé 769" d="M297.444,370.3a16.066,16.066,0,0,0,21.951-5.9l57.634-99.813A16.1,16.1,0,1,0,349.146,248.5l-57.6,99.813a16.114,16.114,0,0,0,5.9,21.984Z" transform="translate(120.315 85.059)" fill="#fd5851"/>
    <path id="Tracé_770" data-name="Tracé 770" d="M269.189,274.261a17.28,17.28,0,1,0-17.28-17.28A17.28,17.28,0,0,0,269.189,274.261Z" transform="translate(98.97 84.627)" fill="#fff"/>
    <path id="Tracé_771" data-name="Tracé 771" d="M446.163,189.94l.048.048a5.952,5.952,0,0,0,8.347-.96l16.32-21.12a5.952,5.952,0,0,0-.96-8.347l-.048-.048a5.952,5.952,0,0,0-8.347.96l-16.287,21.12a5.943,5.943,0,0,0,.927,8.347Z" transform="translate(208.259 38.265)" fill="#fff"/>
    <path id="Tracé_772" data-name="Tracé 772" d="M189.2,129.729a5.938,5.938,0,0,0,6.763,4.992h.062a5.938,5.938,0,0,0,4.992-6.763l-4.378-26.3a5.952,5.952,0,0,0-6.778-4.992H189.8a5.938,5.938,0,0,0-4.992,6.763Z" transform="translate(60.746 3.195)" fill="#fff"/>
    <path id="Tracé_773" data-name="Tracé 773" d="M513.792,266.552l-25.546,7.68a5.938,5.938,0,0,0-4.094,7.33v.063a5.937,5.937,0,0,0,7.33,4.094l25.546-7.68a5.938,5.938,0,0,0,4.095-7.33v-.062a5.928,5.928,0,0,0-7.33-4.094Z" transform="translate(231.015 99.78)" fill="#fff"/>
    <path id="Tracé_774" data-name="Tracé 774" d="M465.3,323.23a11.818,11.818,0,1,0,8.394,3.422,11.832,11.832,0,0,0-8.394-3.422Z" transform="translate(213.717 132.163)" fill="#fff"/>
    <path id="Tracé_775" data-name="Tracé 775" d="M86.759,318.91a8.789,8.789,0,1,0,8.818,8.755A8.789,8.789,0,0,0,86.759,318.91Z" transform="translate(-0.004 129.705)" fill="#fff"/>
    <path id="Tracé_776" data-name="Tracé 776" d="M147.118,111.216a8.789,8.789,0,1,0-8.818-8.755A8.789,8.789,0,0,0,147.118,111.216Z" transform="translate(34.319 1.495)" fill="#fff"/>
    <path id="Tracé_777" data-name="Tracé 777" d="M149.265,345.607a25.407,25.407,0,0,0,31.066-14.717,6.264,6.264,0,0,0-11.362-5.28,12.926,12.926,0,0,1-15.658,8.126,13.555,13.555,0,0,1-7.642-15.754c.034-.173.062-.345.1-.48a.818.818,0,0,0,.034-.173,6.26,6.26,0,1,0-12.288-2.4c-.062.283-.11.566-.173.864a28.723,28.723,0,0,0,2.338,17.621A23.708,23.708,0,0,0,149.265,345.607Z" transform="translate(31.212 124.507)" fill="#fff"/>
    <path id="Tracé_778" data-name="Tracé 778" d="M479.944,219.909a28.8,28.8,0,0,0,15.567,8.6,23.688,23.688,0,0,0,17.87-3.687A25.407,25.407,0,0,0,520,191.085a6.268,6.268,0,1,0-11,6.01,12.961,12.961,0,0,1-2.76,17.433,13.542,13.542,0,0,1-17.2-3.216c-.125-.125-.235-.25-.345-.374-.048-.048-.077-.1-.125-.139a6.263,6.263,0,1,0-9.227,8.473Z" transform="translate(227.422 55.097)" fill="#fff"/>
    <path id="Tracé_779" data-name="Tracé 779" d="M139.419,260.063a8.346,8.346,0,0,0,.864-.077A28.7,28.7,0,0,0,156.632,253a23.64,23.64,0,0,0,8.079-16.363,25.4,25.4,0,0,0-22.517-25.968,6.258,6.258,0,1,0-2.026,12.351,12.96,12.96,0,0,1,12.053,12.9,13.565,13.565,0,0,1-13.119,11.6l-.518.048H138.4a6.269,6.269,0,0,0,1.018,12.48Z" transform="translate(31.41 68.061)" fill="#fff"/>
    <path id="Tracé_780" data-name="Tracé 780" d="M313.819,455.723c-8.866-7.2-24.7.139-22.877,12.053a12.481,12.481,0,0,0,12.331,10.229h.312c.25,0,.48-.048.768-.062a14.768,14.768,0,0,0,12.85-8.208,12,12,0,0,0-3.384-14.012Zm-.269,11.611a9.144,9.144,0,0,1-8.126,8.362,10.469,10.469,0,0,1-9.3-6.778,10.8,10.8,0,0,1,2.433-11.6,7.916,7.916,0,0,1,9.932-.691,11.041,11.041,0,0,1,5.069,10.7Z" transform="translate(121.105 205.948)"/>
    <path id="Tracé_781" data-name="Tracé 781" d="M309.638,169.131a7.416,7.416,0,1,0-7.414,7.226,7.416,7.416,0,0,0,7.414-7.226Z" transform="translate(123.389 40.479)"/>
    <path id="Tracé_782" data-name="Tracé 782" d="M746.755,657.319c-1.728-2.054-3.4-4.143-5.083-6.24q-5.6-6.989-11.04-14.074c-1.978-2.573-4.094-5.1-5.9-7.8-8.976-13.714-16.868-28.1-24.73-42.461-6.922-12.615-13.714-25.388-21.749-37.345-5.333-7.939-11.751-17.151-20.823-21.149a18.2,18.2,0,0,0-2.5-.893,7.569,7.569,0,0,0-.85-.235l-.269-.173a50.224,50.224,0,0,0-4.709-2.731,48.092,48.092,0,0,0-18.092-5.851,28.042,28.042,0,0,0-11.549,1.473,13.484,13.484,0,0,1-6.811.926,33.438,33.438,0,0,1-6.792-2.779,25.373,25.373,0,0,0-9.288-1.833V175.382a39.989,39.989,0,0,0-.346-6.278,27.485,27.485,0,0,0-26.881-22.517H271.384a29.333,29.333,0,0,0-27.763,20.707,53.55,53.55,0,0,0-.989,14.779V513.216a23.963,23.963,0,0,0-5.069,1.176,25.951,25.951,0,0,1-11.674,3.36,38.923,38.923,0,0,1-6.058-1.8,21.74,21.74,0,0,0-5.319-.739,43.55,43.55,0,0,0-19.287,4.709,66,66,0,0,0-6.4,3.437c-.442.269-.893.533-1.32.816-.312.062-1.128.346-1.272.374-9.274,3.015-16.023,11.611-21.432,19.239a368.574,368.574,0,0,0-21.687,36.327c-8.693,15.84-17.28,31.776-27.178,46.93-.034.034-.48.658-.581.8-.48.643-.96,1.286-1.44,1.92-1.411,1.867-2.822,3.7-4.253,5.554-3.658,4.738-7.358,9.461-11.107,14.122q-2.448,3.058-4.958,6.058a25.19,25.19,0,0,0-3.437,4.613A16.878,16.878,0,0,0,89.044,671,48.479,48.479,0,0,0,104.2,695.114a66.816,66.816,0,0,0,28.589,16.772,32.04,32.04,0,0,0,33.063-8.127,85.168,85.168,0,0,1,8.64-9.447,123.106,123.106,0,0,1,12.067-8.818c18.749-12.255,38.881-22.248,58.4-33.3A28.258,28.258,0,0,0,270.7,668.123H552.774c5.006,0,10.013.062,15.015,0a29.688,29.688,0,0,0,25.152-14.563c15.235,8.789,30.893,16.867,46.081,25.656a171.878,171.878,0,0,1,27.02,18.077,49.822,49.822,0,0,1,4.32,4.2c1.728,1.92,3.125,4.094,4.91,5.962a26.1,26.1,0,0,0,16.743,7.815,52.089,52.089,0,0,0,31.273-8.568,70.431,70.431,0,0,0,23.175-22.344c3.922-6.307,7.781-15.36,3.735-22.532a29.028,29.028,0,0,0-3.442-4.512Zm-4.709,27.6a65.93,65.93,0,0,1-29.938,25.076,36.421,36.421,0,0,1-17.967,2.952,23.612,23.612,0,0,1-10.291-3.562,40.4,40.4,0,0,1-8.251-8.506,63.01,63.01,0,0,0-11.52-10.2c-5.414-3.941-11.107-7.469-16.853-10.873-13.853-8.208-28.119-15.691-42.164-23.554q-5.28-2.943-10.56-5.976l-2.746-1.6-2.88-1.694a237.242,237.242,0,0,1-23.832-15.974c-5.035-3.908-9.447-8.381-14.218-12.586-.96-.864-1.92-1.742-2.88-2.621a38.641,38.641,0,0,1-8.976-11.626,50.4,50.4,0,0,1-3.782-12.788,53.637,53.637,0,0,1,.36-14.434c.36-3.687.518-7.392.8-11.04,2.65.442,5.333.754,8,1.128h.566a4.7,4.7,0,0,0,4.344-2.462,8.189,8.189,0,0,0,.48-2.213,12.858,12.858,0,0,0,0-5.525,9.4,9.4,0,0,0-4.565-5.635,14.826,14.826,0,0,0-5.506-1.44h-.158A19.579,19.579,0,0,1,542.7,544.1a9.294,9.294,0,0,1,1.79-1.632c-.159.11.283-.125.408-.2a1.151,1.151,0,0,1,.25-.062h.173c.346.062.61.1.768.139a5.1,5.1,0,0,1,1.646.893,8.711,8.711,0,0,1,2.606,3.658,35.275,35.275,0,0,1,1.584,7.33c.518,3.389.926,6.792,1.4,10.2.456,3.278.926,6.591,1.646,9.821a15.629,15.629,0,0,0,2.352,6.278,8.539,8.539,0,0,0,7.421,3.264,2.323,2.323,0,0,0,2.04,1.21,2.359,2.359,0,0,0,.456-.048,15.791,15.791,0,0,0,8.16-5.146A19.6,19.6,0,0,0,578,575.914a34.081,34.081,0,0,0,2.4-20.3,2.323,2.323,0,0,0-2.4-2.026,1.353,1.353,0,0,0-.25,0,2.357,2.357,0,0,0-2.026,2.65,49.575,49.575,0,0,1,.422,5.16c-.533-.754-1.085-1.493-1.57-2.179-9.979-14.184-21.984-26.943-33.029-40.277-6.514-7.862-12.869-15.84-18.811-24.116-2.88-4-5.587-8.1-8.251-12.221-.768-1.19-1.555-2.371-2.352-3.562a94.121,94.121,0,0,1-5.146-8.41,17.9,17.9,0,0,1-2.779-11.439c.533-2.51,2.606-5.885,5.539-5.554a13.1,13.1,0,0,1,6.106,2.779c-.331.125-.643.269-.96.408a15.773,15.773,0,0,0-2.054,1.32A6.518,6.518,0,0,0,510,461.8a5.362,5.362,0,0,0,.912,4.584,20.243,20.243,0,0,0,1.992,2.621,3.9,3.9,0,0,0,2.808.96,9.756,9.756,0,0,0,3.422-.677,7,7,0,0,0,1.493-.754c1.507-1.018,2.966-2.136,4.44-3.23.48.566.96,1.128,1.44,1.694,6.135,7.392,11.847,15.063,18.423,22.08a190.791,190.791,0,0,0,21.26,19.474c3.485,2.731,7.061,5.352,10.685,7.891.374.269.768.518,1.147.782,1.334.926,2.683,1.853,4.032,2.746,2.165,1.44,3.485.72,5.712-.25a15.5,15.5,0,0,1,1.867-.658,17.164,17.164,0,0,1,3.451-.643,16.922,16.922,0,0,1,3.451.063,16.122,16.122,0,0,1,2.621.518c4.738,1.334,8.616,4.32,13.714,4.219,4.925-.11,9.178-2.779,14.122-2.65a36,36,0,0,1,12.13,2.808,61.528,61.528,0,0,1,8.726,4.267c.677.394,1.3.85,1.978,1.224a15.429,15.429,0,0,0,2.51.912,32.288,32.288,0,0,1,12.711,9.6,126.09,126.09,0,0,1,13.008,18.091c9.792,15.84,18.24,32.449,27.413,48.644,4.771,8.41,9.7,16.728,14.986,24.807,2.544,3.8,5.539,7.344,8.333,10.954,4.32,5.587,8.693,11.156,13.21,16.584a26.4,26.4,0,0,1,4.19,5.587,14.189,14.189,0,0,1,1.162,6.24A30.794,30.794,0,0,1,742.046,684.919ZM568.221,663.343c-5.8.048-11.611,0-17.415,0H274.821c-1.493,0-3.36,0-4.392-.062a22.767,22.767,0,0,1-19.3-14.655c1.19-.691,2.4-1.363,3.562-2.074a205.325,205.325,0,0,0,30-20.871c3.658-3.2,7.123-6.605,10.733-9.869H541.974c.96.96,1.944,1.92,2.981,2.822,3.749,3.36,7.3,6.9,11.093,10.167a153.113,153.113,0,0,0,14.026,10.56c5.76,3.922,11.688,7.594,17.683,11.155A21.379,21.379,0,0,1,568.221,663.343ZM213.016,666.2a320.47,320.47,0,0,0-37.061,22.531,59.374,59.374,0,0,0-11.328,10.388,27.923,27.923,0,0,1-9.523,8.741,24.158,24.158,0,0,1-9.067,2.15c-13.056.72-25.872-6.576-35.429-14.842a63.414,63.414,0,0,1-12.538-14.53,28.2,28.2,0,0,1-4.882-14.343,12.633,12.633,0,0,1,1.4-5.962,36.739,36.739,0,0,1,4.32-5.443c4.488-5.429,8.832-10.983,13.147-16.555,2.717-3.5,5.587-6.951,8.05-10.637,10.858-16.6,20.16-34.157,29.717-51.514,4.32-7.781,8.64-15.552,13.368-23.084a115.961,115.961,0,0,1,12.869-17.463,27.994,27.994,0,0,1,12.067-8.424,23.658,23.658,0,0,0,4.8-2.573,57.768,57.768,0,0,1,9.461-4.32,29.759,29.759,0,0,1,12.1-1.853,32.975,32.975,0,0,1,6.874,1.853,17.665,17.665,0,0,0,7.738.567c4.646-.677,8.443-3.874,13.133-4.55l.36-.034a15.875,15.875,0,0,1,3.451,0q.566.048,1.128.139a19.6,19.6,0,0,1,2.323.48l.36.077c1.44.408,2.731,1.286,4.142,1.68,2.006.581,3.72-1.051,5.28-2.088.629-.422,1.238-.864,1.867-1.286,1.258-.864,2.525-1.728,3.768-2.606,3.547-2.525,7.047-5.131,10.435-7.863A193.15,193.15,0,0,0,296.3,485.284c6.451-6.984,12.034-14.626,18.154-21.874.048-.062.11-.125.158-.187a3.514,3.514,0,0,0,1,1.286c1.147.83,2.275,1.68,3.422,2.51.374.269.739.547,1.114.816a6.72,6.72,0,0,0,6.72,0,5.558,5.558,0,0,0,2.179-1.709c.346-.456.677-.926,1.018-1.382a6.62,6.62,0,0,0,1.6-3.893,5.443,5.443,0,0,0-2.275-4.44,8.884,8.884,0,0,0-3.658-1.944,8,8,0,0,0-2.29-.062,10.527,10.527,0,0,1,7.075-2.918,7.68,7.68,0,0,1,5.9,6.9,20.64,20.64,0,0,1-3.658,11.52c-1.728,3.043-3.672,5.933-5.6,8.851-.614.912-1.21,1.834-1.8,2.76-2.717,4.253-5.568,8.4-8.535,12.48-11.611,15.941-24.682,30.72-37.33,45.836-4.882,5.837-9.778,11.707-14.074,17.981-.36.518-.72,1.051-1.1,1.584a46.808,46.808,0,0,1,.442-5.789,2.359,2.359,0,0,0-4.675-.629A38.224,38.224,0,0,0,261.1,570.1a20.324,20.324,0,0,0,3.984,7.075,15.791,15.791,0,0,0,8.16,5.146,2.218,2.218,0,0,0,.442.048,2.338,2.338,0,0,0,1.771-.864,10.718,10.718,0,0,0,7.925-4.454,20.926,20.926,0,0,0,2.275-6.792c.691-3.216,1.147-6.466,1.584-9.711.456-3.389.878-6.778,1.4-10.138a28.759,28.759,0,0,1,1.536-6.9,6.786,6.786,0,0,1,2.434-3.106,1.32,1.32,0,0,1,.394-.2,2.582,2.582,0,0,0,.456-.125c.144-.048.48,0,.3,0a2.022,2.022,0,0,1,.706.11,11.971,11.971,0,0,1,6.307,7.531,17.014,17.014,0,0,0-2.669.48,10.892,10.892,0,0,0-6.495,4.8,9.884,9.884,0,0,0-1,6.653c.1.706.158,1.411.3,2.117a3.168,3.168,0,0,0,3.5,2.275,3.338,3.338,0,0,0,.581,0l.346-.048c2.4-.346,4.8-.677,7.2-1.018a9.551,9.551,0,0,0,1.411-.312c.422,4.675.566,9.384,1.037,14.074a48.069,48.069,0,0,1-.034,14.232,37.685,37.685,0,0,1-14.88,24.869c-.331.283-.643.581-.96.864-4.8,4.32-9.35,8.789-14.53,12.7-6.058,4.565-12.413,8.726-18.879,12.7-1.853,1.128-3.734,2.227-5.6,3.326-1.066.629-2.117,1.272-3.187,1.92l-3.154,1.833c-10.124,5.8-20.468,11.357-30.725,17.021Zm37.805-500.528a21.322,21.322,0,0,1,20.208-14.328H566.867a4.935,4.935,0,0,0,.691.034,23.16,23.16,0,0,1,22.109,22.848V517a25.99,25.99,0,0,0-3.485,1.176c-.034,0-.062-.048-.077-.048l-1.176-.8q-.943-.634-1.882-1.286c-1.57-1.085-3.139-2.165-4.675-3.278-.1-.077-.187-.139-.3-.221V209.174a8.741,8.741,0,0,0-8.741-8.741H269.858a8.741,8.741,0,0,0-8.741,8.741V511.209q-2.822,2-5.7,3.907a25.872,25.872,0,0,0-5.914-1.771V181.18a45.409,45.409,0,0,1,1.315-15.509ZM545.2,542.179a1.86,1.86,0,0,0-.235.048.872.872,0,0,1,.235-.048ZM324.214,467.365C324.152,467.428,323.993,467.461,324.214,467.365Zm.643-.768c-.187-.125-.374-.269-.547-.394-1.44-1.066-2.918-2.15-4.392-3.216a2.774,2.774,0,0,1-.518-3.84c.518-.72,1.051-1.44,1.584-2.165a3.409,3.409,0,0,1,.374-.456,4.481,4.481,0,0,1,.408-.36.2.2,0,0,1,.048-.034h.034a7.522,7.522,0,0,1,3.058,1.632,5.1,5.1,0,0,1,2.15,3.327,4.964,4.964,0,0,1-.96,3.811c-.427.591-.821,1.157-1.243,1.709Zm-2.76-10.623h0c.034,0,.048-.034.062-.034a.119.119,0,0,0-.067.043ZM295.99,561.432a.346.346,0,0,1-.077-.048,2.743,2.743,0,0,1-.25-.3,1.8,1.8,0,0,1-.187-.768c-.1-.643-.187-1.3-.283-1.963a8.505,8.505,0,0,1,.374-4.6,6.571,6.571,0,0,1,.61-1.128,5.048,5.048,0,0,1,.754-.96,6.453,6.453,0,0,1,.547-.48l.062-.062.269-.187.442-.25.206-.1a1.793,1.793,0,0,0,.221-.1,1.539,1.539,0,0,1,.173-.048l.36-.1a.145.145,0,0,0,.077,0c.283-.034.566-.077.864-.125l.48-.077c.062-.1.173-.173.2-.1.11,0,.125.034,0,0l.077.048h.125a.55.55,0,0,0,.221-.034,1.167,1.167,0,0,1-.235.125c.48.48.48,1.6.6,2.309.206,1.4.394,2.808.6,4.2.158,1.066.331,2.136.456,3.2,0,.062.034.125.034.187a1.038,1.038,0,0,1-.048.374c-2.2.346-4.445.662-6.672.974Zm6.619-.706C302.547,560.866,302.532,560.727,302.609,560.727Zm27.711-79.681a63.554,63.554,0,0,0,10.373-19.2,10.853,10.853,0,0,0-7.344-13.383,17.717,17.717,0,0,0-15.077,5.712l-.077.077a16.071,16.071,0,0,1,29.093-2.669c.96,1.661,25.229,41.881,72.51,41.881,47.794,0,72.275-41.439,72.51-41.881a16.08,16.08,0,0,1,29.564,4.219l-.36-.1a15.207,15.207,0,0,0-13.92-3.936,11.04,11.04,0,0,0-7.68,13.44,55.1,55.1,0,0,0,9.3,17.371,117.6,117.6,0,0,1-89.44,43.023c-45.706,0-75.505-26.535-90.006-43.714.168-.235.355-.514.547-.816Zm14.544-171.113a15.264,15.264,0,1,1,0,.034ZM405.825,401.7l57.6-99.813a16.1,16.1,0,1,1,27.884,16.085L433.7,417.809a16.089,16.089,0,1,1-27.87-16.086Zm115.331,63.841c-1.051.768-2.1,1.536-3.154,2.323-.034,0-.062.048-.1.062s-.048,0-.062-.034a7.625,7.625,0,0,1-1.963-2.275,6.239,6.239,0,0,1-1.44-3.2,4.713,4.713,0,0,1,1.646-4.066c.36-.3.739-.547,1.114-.83.034,0,.062-.048.1-.062l.158-.11h.048a4.954,4.954,0,0,1,.657.139,4.7,4.7,0,0,1,1.92,1.19,21.08,21.08,0,0,1,1.92,2.51c.077.11.158.235.221.346a3.839,3.839,0,0,1,.36.878,2.458,2.458,0,0,1-.85,2.7,4.074,4.074,0,0,1-.566.47Zm-2.559,2.621h-.062c.139,0,.25-.034.11,0h0s-.01.038-.038.038Zm21.984,85.235a2.429,2.429,0,0,1,.36.11c.235.077.48.173.706.269a2.041,2.041,0,0,1,.269.125l.206.125a5.914,5.914,0,0,1,2.04,1.834,6.965,6.965,0,0,1,1.238,5.194c-.11.739-.2,1.493-.312,2.227a.57.57,0,0,1-.034.235c-1.92-.269-3.84-.547-5.789-.816-.408-.062-.816-.125-1.224-.173a.481.481,0,0,1-.077-.1.634.634,0,0,1-.158-.394,16.051,16.051,0,0,1,.312-2.275c.312-2.2.533-4.411.926-6.59l1.066.139a4.268,4.268,0,0,1,.422.062c.039.057.039.057.053.057Zm0,0C540.865,553.455,540.659,553.426,540.582,553.392Zm-2.558,9.12C537.865,562.512,537.947,562.464,538.024,562.512Zm1.1-9.778a.158.158,0,0,1,0-.048c.1.019.115.053.024.1Zm-.034,0h0c0-.034,0-.048.048-.062s-.01.1-.024.13Z" transform="translate(6.025 31.636)" fill="#202020"/>
    <path id="Tracé_783" data-name="Tracé 783" d="M440.284,397.686a27.087,27.087,0,0,0-15.36-1.363,82.113,82.113,0,0,0-10.152,1.742c-.879.2-2.136,1.037-1.867,2.1s1.853,1.085,2.669.878,1.709-.374,2.573-.547c1.176-.235,1.4-.269,2.4-.442,1.128-.187,2.275-.346,3.423-.48a48.073,48.073,0,0,1,7.138-.408,13.981,13.981,0,0,1,5.664,1.085,3.153,3.153,0,0,0,3.25-.3C440.673,399.443,441.3,398.219,440.284,397.686Z" transform="translate(190.574 173.398)"/>
    <path id="Tracé_784" data-name="Tracé 784" d="M447.294,395.51a13.124,13.124,0,0,0-2.717-.36,12.959,12.959,0,0,0-6.01,1.161,2.654,2.654,0,0,0-1.176,1.018,1.075,1.075,0,0,0,.063,1.161,2.75,2.75,0,0,0,3.058.25c.159-.077.331-.158.48-.221a.369.369,0,0,1,.125-.034c.173-.048.331-.1.48-.125h.062c.331-.048.658-.077.989-.11a4.336,4.336,0,0,1,.456,0h-.014a10.984,10.984,0,0,1,1.44.139.058.058,0,0,1,.048,0h.173a3.361,3.361,0,0,0,1.584-.034,3.226,3.226,0,0,0,1.493-.85,1.272,1.272,0,0,0,.394-1.19A1.354,1.354,0,0,0,447.294,395.51Z" transform="translate(204.449 173.079)"/>
    <path id="Tracé_785" data-name="Tracé 785" d="M440.843,397.1Z" transform="translate(206.427 174.205)"/>
    <path id="Tracé_786" data-name="Tracé 786" d="M443.251,477.63c-.034.11-.062.206-.1.312-.442,1.618-.878,3.782-1.085,4.066-.158.48.629,1.493.989.912.139-.173,1.114-2.477,1.176-2.712a6.166,6.166,0,0,0,.533-4.142C444.552,474.131,443.64,476.747,443.251,477.63Z" transform="translate(207.191 218.745)"/>
    <path id="Tracé_787" data-name="Tracé 787" d="M453.385,483.244c-.062.077-.11.173-.173.25a35.319,35.319,0,0,1-2.04,3.312c-.283.394.48,1.239,1.018.768.2-.139,2.525-1.709,2.669-1.92a3.076,3.076,0,0,0,.643-3.72C454.9,480.229,454.028,482.519,453.385,483.244Z" transform="translate(212.341 222.122)"/>
    <path id="Tracé_788" data-name="Tracé 788" d="M439.14,475.391a2.833,2.833,0,0,1-.048.345c-.173,1.757-.269,4.047-.442,4.411-.077.547.816,1.21,1.085.48.11-.221,1.176-2.477,1.224-2.731a7.371,7.371,0,0,0-.235-4.411C440.254,471.7,439.385,474.383,439.14,475.391Z" transform="translate(205.244 217.327)"/>
    <path id="Tracé_789" data-name="Tracé 789" d="M430.907,469.675l-.1.331a39.346,39.346,0,0,1-.96,4.176c-.139.518.706,1.238,1.051.6.139-.2,1.507-2.242,1.57-2.477a6.622,6.622,0,0,0,.25-4.238C432.463,466.272,431.267,468.72,430.907,469.675Z" transform="translate(200.219 214.225)"/>
    <path id="Tracé_790" data-name="Tracé 790" d="M445.373,481.965c-.173,1.037,0,1.57.518,1.522.034.063,1.819-2.76,1.44-3.7S445.561,480.961,445.373,481.965Z" transform="translate(209.034 221.112)"/>
    <path id="Tracé_791" data-name="Tracé 791" d="M459.721,488.7c-.629.831-.739,1.4-.25,1.584,0,.062,2.88-1.6,3-2.621C462.578,486.752,460.35,487.914,459.721,488.7Z" transform="translate(216.92 225.55)"/>
    <path id="Tracé_792" data-name="Tracé 792" d="M426,468.616c-.629.831-.739,1.4-.25,1.584,0,.063,2.88-1.6,3-2.621C428.872,466.672,426.664,467.834,426,468.616Z" transform="translate(197.733 214.123)"/>
    <path id="Tracé_793" data-name="Tracé 793" d="M448.583,483.4c-.173,1.037,0,1.57.518,1.521.034.063,1.819-2.76,1.44-3.7C450.215,480.352,448.771,482.406,448.583,483.4Z" transform="translate(210.864 221.956)"/>
    <path id="Tracé_794" data-name="Tracé 794" d="M434.35,473.89c0,1.051.61,1.8,1.114,1.493.034.034,1.363-3.514.8-4.157C435.277,470.108,434.364,472.873,434.35,473.89Z" transform="translate(202.801 216.24)"/>
    <path id="Tracé_795" data-name="Tracé 795" d="M422.469,465.241c-.739.739-.83,1.709-.269,1.853,0,.048,3.451-1.522,3.5-2.4C425.8,463.234,423.208,464.535,422.469,465.241Z" transform="translate(195.678 212.29)"/>
    <path id="Tracé_796" data-name="Tracé 796" d="M458.923,485.43c-.643-.456-3.451,1.113-3.811,1.68s-.11.96.72,1.018a5.118,5.118,0,0,0,2.026-.408c1.68-.547,1.92-1.21,1.114-2.261C458.966,485.445,458.938,485.445,458.923,485.43Z" transform="translate(214.521 224.424)"/>
    <path id="Tracé_797" data-name="Tracé 797" d="M462.331,490.866c-.629.831-.739,1.4-.25,1.584,0,.063,2.88-1.6,3-2.621C465.188,488.922,462.96,490.084,462.331,490.866Z" transform="translate(218.409 226.788)"/>
    <path id="Tracé_798" data-name="Tracé 798" d="M224.153,403.865a.048.048,0,0,1,0-.034.339.339,0,0,1-.077-.048l-.283.048C223.644,403.942,223.644,404.1,224.153,403.865Z" transform="translate(82.926 178.015)"/>
    <path id="Tracé_799" data-name="Tracé 799" d="M196.273,396.449a80.654,80.654,0,0,0-10.08-1.728,27.764,27.764,0,0,0-15.6,1.382c-.739.394-1.771,1.224-1.128,2.15.6.85,2.29.629,3.058.221.235-.125.48-.235.72-.346a.271.271,0,0,1,.11-.048.621.621,0,0,1,.1-.033,14.1,14.1,0,0,1,1.474-.36l.422-.062c.3-.048.581-.077.878-.111.566-.062,1.128-.1,1.709-.11a48.291,48.291,0,0,1,7.157.408,70.467,70.467,0,0,1,8.487,1.474,3.485,3.485,0,0,0,3.125-.783c.034-.033.062-.048.1-.076a1.118,1.118,0,0,0-.1-1.757A2.432,2.432,0,0,0,196.273,396.449Z" transform="translate(51.924 172.485)"/>
    <path id="Tracé_800" data-name="Tracé 800" d="M157.8,394.443a5.524,5.524,0,0,0-1.555.61c-.139.077-.61.36-.547.629s.61.269.782.269a6.336,6.336,0,0,0,1.334-.173c-.173.034-.312.077-.125.034l.3-.048a.643.643,0,0,0,.25-.034c.077-.034.235,0,.346-.034h.989a.971.971,0,0,0,.2,0,4.551,4.551,0,0,1,.48.063,10.739,10.739,0,0,1,1.051.235.214.214,0,0,0,.077,0l.062.034c.062.034.139.048.2.077a5.557,5.557,0,0,1,.6.269,2.367,2.367,0,0,0,1.147.1,7.655,7.655,0,0,0,1.771-.408,3.579,3.579,0,0,0,1.286-.657c.125-.125.394-.408.1-.547A13.2,13.2,0,0,0,157.8,394.443Z" transform="translate(44.219 172.355)"/>
    <path id="Tracé_801" data-name="Tracé 801" d="M157.852,476.295c-.034-.111-.062-.2-.1-.312-.394-.879-1.32-3.5-1.507-1.584a6.092,6.092,0,0,0,.533,4.142c.077.235,1.051,2.544,1.176,2.717.36.581,1.147-.408.989-.912a39.025,39.025,0,0,1-1.094-4.051Z" transform="translate(44.403 217.805)"/>
    <path id="Tracé_802" data-name="Tracé 802" d="M148.463,481.831c-.062-.077-.11-.173-.173-.25-.643-.72-1.493-3.014-2.1-1.258a3.082,3.082,0,0,0,.643,3.72c.125.187,2.462,1.757,2.669,1.92.533.48,1.3-.374,1.018-.768a37.2,37.2,0,0,1-2.054-3.365Z" transform="translate(38.575 221.197)"/>
    <path id="Tracé_803" data-name="Tracé 803" d="M161.723,473.734c-.25-1.018-1.114-3.687-1.584-1.882a7.373,7.373,0,0,0-.235,4.412c.034.249,1.114,2.51,1.224,2.731.25.72,1.162.048,1.085-.48-.173-.36-.25-2.65-.442-4.411C161.757,473.954,161.723,473.844,161.723,473.734Z" transform="translate(46.479 216.397)"/>
    <path id="Tracé_804" data-name="Tracé 804" d="M170.291,468.351l-.1-.331c-.374-.96-1.555-3.4-1.834-1.632a6.611,6.611,0,0,0,.25,4.239c.062.235,1.44,2.275,1.57,2.477.346.658,1.21-.077,1.051-.6C171.03,472.191,170.665,470.012,170.291,468.351Z" transform="translate(51.265 213.279)"/>
    <path id="Tracé_805" data-name="Tracé 805" d="M153.358,478.107c-.374.96,1.44,3.768,1.44,3.7.518.048.691-.48.518-1.522S153.685,477.247,153.358,478.107Z" transform="translate(42.858 220.184)"/>
    <path id="Tracé_806" data-name="Tracé 806" d="M138.671,486.015c.11,1,3,2.683,3,2.621.48-.187.374-.754-.25-1.584S138.561,485.108,138.671,486.015Z" transform="translate(34.524 224.607)"/>
    <path id="Tracé_807" data-name="Tracé 807" d="M172.381,465.935c.11,1,3,2.683,3,2.621.48-.187.374-.754-.25-1.584S172.271,465.028,172.381,465.935Z" transform="translate(53.711 213.18)"/>
    <path id="Tracé_808" data-name="Tracé 808" d="M150.148,479.564c-.374.96,1.44,3.768,1.44,3.7.518.048.691-.48.518-1.522S150.475,478.71,150.148,479.564Z" transform="translate(41.033 221.011)"/>
    <path id="Tracé_809" data-name="Tracé 809" d="M164.422,469.575c-.566.643.754,4.2.8,4.157.48.3,1.114-.456,1.114-1.493S165.41,468.461,164.422,469.575Z" transform="translate(49.104 215.3)"/>
    <path id="Tracé_810" data-name="Tracé 810" d="M175.63,463.058c.048.864,3.5,2.433,3.5,2.4.566-.139.48-1.1-.269-1.853S175.554,461.584,175.63,463.058Z" transform="translate(55.559 211.348)"/>
    <path id="Tracé_811" data-name="Tracé 811" d="M142.639,483.782s-.048,0-.048.034c-.8,1.051-.566,1.728,1.114,2.261a5.471,5.471,0,0,0,2.026.408c.831-.033,1.066-.393.72-1.017S143.268,483.326,142.639,483.782Z" transform="translate(36.503 223.485)"/>
    <path id="Tracé_812" data-name="Tracé 812" d="M136.051,488.185c.11,1,3,2.683,3,2.621.48-.187.374-.754-.25-1.584S135.955,487.278,136.051,488.185Z" transform="translate(33.035 225.84)"/>
    <path id="Tracé_813" data-name="Tracé 813" d="M151.627,183.332a5.947,5.947,0,0,0,8.112,2.165l.062-.034a5.947,5.947,0,0,0,2.165-8.112l-13.728-22.877a5.947,5.947,0,0,0-8.112-2.165l-.062.034a5.947,5.947,0,0,0-2.165,8.112Z" transform="translate(33.635 34.438)" fill="#202020"/>
    <path id="Tracé_814" data-name="Tracé 814" d="M449.636,120.358a5.928,5.928,0,0,0,8.4,0l18.533-19.176a5.928,5.928,0,0,0,0-8.4l-.048-.048a5.928,5.928,0,0,0-8.4,0l-18.533,19.176a5.928,5.928,0,0,0,0,8.4Z" transform="translate(210.483 -0.001)" fill="#202020"/>
    <path id="Tracé_815" data-name="Tracé 815" d="M117.063,280.262V280.2a5.942,5.942,0,0,0-4.958-6.778l-26.4-3.686a5.943,5.943,0,0,0-6.778,4.958v.062a5.942,5.942,0,0,0,4.958,6.778l26.4,3.687a5.928,5.928,0,0,0,6.778-4.958Z" transform="translate(0.494 101.68)" fill="#202020"/>
    <path id="Tracé_816" data-name="Tracé 816" d="M456.18,276.794a14.717,14.717,0,1,0-14.78-14.654,14.717,14.717,0,0,0,14.78,14.654Z" transform="translate(206.81 88.986)" fill="#fd5851"/>
    <path id="Tracé_817" data-name="Tracé 817" d="M516.984,318.39a14.717,14.717,0,1,0,14.78,14.655A14.717,14.717,0,0,0,516.984,318.39Z" transform="translate(241.488 129.409)" fill="#202020"/>
    <path id="Tracé_818" data-name="Tracé 818" d="M92.79,399.932a12.144,12.144,0,1,0,12.1-12.192,12.144,12.144,0,0,0-12.1,12.192Z" transform="translate(8.418 168.876)" fill="#fd5851"/>
    <path id="Tracé_819" data-name="Tracé 819" d="M90.429,172.7A12.327,12.327,0,1,0,78.05,160.433,12.326,12.326,0,0,0,90.429,172.7Z" transform="translate(0.027 32.463)" fill="#fd5851"/>
    <path id="Tracé_820" data-name="Tracé 820" d="M385.337,135.922a25.373,25.373,0,0,0,34.052-4.647,6.263,6.263,0,1,0-9.24-8.458,12.96,12.96,0,0,1-17.386,3.029,13.57,13.57,0,0,1-2.525-17.323c.077-.158.158-.3.25-.456.034-.048.062-.11.1-.158a6.26,6.26,0,0,0-11-5.976c-.139.25-.283.48-.423.768a28.723,28.723,0,0,0-3.106,17.5,23.685,23.685,0,0,0,9.283,15.725Z" transform="translate(169.478 4.303)" fill="#ff5851"/>
    <path id="Tracé_821" data-name="Tracé 821" d="M457.9,380.215a6.263,6.263,0,0,0,9.461,8.208,12.96,12.96,0,0,1,17.309-3.485,13.55,13.55,0,0,1,2.981,17.247c-.077.158-.158.312-.235.456a.734.734,0,0,0-.077.158,6.259,6.259,0,1,0,11.155,5.679c.139-.25.269-.518.394-.782a28.687,28.687,0,0,0,2.635-17.573,23.723,23.723,0,0,0-9.682-15.47,25.44,25.44,0,0,0-33.941,5.564Z" transform="translate(215.327 159.112)" fill="#fd5851"/>
    <path id="Tracé_822" data-name="Tracé 822" d="M217.912,160.894a6.566,6.566,0,0,0,.926-4.066c0-.269,0-3.139-.062-3.422a.538.538,0,0,0-1.066-.1c.077.422-.283,2.7-.456,4.5v.36C217.269,159.3,217.139,162.386,217.912,160.894Z" transform="translate(79.264 35.233)"/>
    <path id="Tracé_823" data-name="Tracé 823" d="M213.758,174.816c1.4.1,2.088-5.117,2.15-7.373.062-.48.346-5.76.283-6.293a.984.984,0,0,0-1.944-.3,52.653,52.653,0,0,1-.83,7.7c0,.221-.062.442-.077.658C213.269,171.288,212,175.037,213.758,174.816Z" transform="translate(76.731 39.311)"/>
    <path id="Tracé_824" data-name="Tracé 824" d="M207.982,161.092c1.742-.629,1.92-1.834,2.054-3.058.048-.25-.125-3.638-.139-3.922.034-.85-.912-1.085-1.018-.533,0,.456-.658,2.544-1.085,4.219a2.731,2.731,0,0,1-.077.346C207.589,159.254,206.552,161.611,207.982,161.092Z" transform="translate(73.55 35.447)"/>
    <path id="Tracé_825" data-name="Tracé 825" d="M214.259,161.317a5.76,5.76,0,0,0,1.618-3.61c.048-.25-.062-3.168-.077-3.466.034-.85-.912-1.085-1.018-.533,0,.456-.658,2.544-1.085,4.219a2.755,2.755,0,0,1-.077.346C213.491,159.388,213.3,162.479,214.259,161.317Z" transform="translate(77.123 35.515)"/>
    <path id="Tracé_826" data-name="Tracé 826" d="M221.225,157.995c.6-.48.1-4.55.062-4.517-.394-.518-.706-.187-.893.864S220.678,158.451,221.225,157.995Z" transform="translate(81.015 35.42)"/>
    <path id="Tracé_827" data-name="Tracé 827" d="M234,158.07c.706-.158.36-4.5.312-4.488-.36-.6-1.176-.312-1.44.691S232.475,158.415,234,158.07Z" transform="translate(88.03 35.441)"/>
    <path id="Tracé_828" data-name="Tracé 828" d="M224.079,157.575c.691-.346.1-4.55.048-4.517-.394-.518-1.32-.187-1.522.864S222.774,158.232,224.079,157.575Z" transform="translate(82.255 35.182)"/>
    <path id="Tracé_829" data-name="Tracé 829" d="M211.768,158.6c.658-.048.768-4.32.72-4.32-.3-.72-1.018-.614-1.363.3S210.64,158.681,211.768,158.6Z" transform="translate(75.611 35.756)"/>
    <path id="Tracé_830" data-name="Tracé 830" d="M200.2,160.113c.658-.048.768-4.32.72-4.32-.3-.72-1.018-.61-1.363.3S199.067,160.19,200.2,160.113Z" transform="translate(69.03 36.614)"/>
    <path id="Tracé_831" data-name="Tracé 831" d="M230.1,161.2c1.584-.187.768-7.5.547-7.392-.25-.677-1-.374-1.3.566S228.708,161.349,230.1,161.2Z" transform="translate(85.969 35.531)"/>
    <path id="Tracé_832" data-name="Tracé 832" d="M226.42,160.647h.048c1.066-.374,1.363-3.125,1.382-5.146a6.016,6.016,0,0,0-.187-2.179c-.25-.691-.6-.533-1.018.394A18.092,18.092,0,0,0,226.42,160.647Z" transform="translate(84.355 35.215)"/>
    <path id="Tracé_833" data-name="Tracé 833" d="M203.61,161.587h.048c1.066-.374,1.363-3.125,1.382-5.146a6.01,6.01,0,0,0-.187-2.179c-.25-.691-.6-.533-1.018.394a18.091,18.091,0,0,0-.226,6.931Z" transform="translate(71.376 35.749)"/>
    <path id="Tracé_834" data-name="Tracé 834" d="M222.72,165.017h.048c1.066-.374,1.363-3.125,1.382-5.146a6.008,6.008,0,0,0-.187-2.179c-.25-.691-.6-.533-1.018.394A18.091,18.091,0,0,0,222.72,165.017Z" transform="translate(82.247 37.704)"/>
    <path id="Tracé_835" data-name="Tracé 835" d="M207.251,169.542h.048c1.32-.48,1.709-3.893,1.728-6.4a7.337,7.337,0,0,0-.235-2.717c-.3-.864-.739-.658-1.258.48A22.3,22.3,0,0,0,207.251,169.542Z" transform="translate(73.413 39.199)"/>
    <path id="Tracé_836" data-name="Tracé 836" d="M210.347,162.808c1.085.6,1.646.2,1.8-1.694a6.567,6.567,0,0,0-.034-2.227c-.187-.864-.566-1.037-1.037-.533s-1.3,3.84-.768,4.392C210.318,162.774,210.333,162.808,210.347,162.808Z" transform="translate(75.199 38.171)"/>
    <path id="Tracé_837" data-name="Tracé 837" d="M381.5,160.929c.768,1.493.643-1.6.677-2.731v-.36c-.173-1.79-.533-4.066-.456-4.5-.034-.581-.96-.739-1.065.1-.048.283-.077,3.154-.062,3.422A6.379,6.379,0,0,0,381.5,160.929Z" transform="translate(172.184 35.202)"/>
    <path id="Tracé_838" data-name="Tracé 838" d="M391.864,161.093c1.44.518.394-1.834.269-2.952a2.7,2.7,0,0,0-.077-.346c-.423-1.68-1.1-3.768-1.085-4.219-.11-.547-1.037-.312-1.018.533,0,.3-.187,3.672-.139,3.922C389.963,159.255,390.136,160.479,391.864,161.093Z" transform="translate(177.457 35.446)"/>
    <path id="Tracé_839" data-name="Tracé 839" d="M385.439,161.315c.96,1.147.768-1.92.643-3.043a2.723,2.723,0,0,0-.077-.346c-.422-1.68-1.1-3.768-1.085-4.219-.111-.547-1.037-.312-1.018.533,0,.3-.139,3.216-.077,3.466a5.61,5.61,0,0,0,1.613,3.61Z" transform="translate(174.037 35.517)"/>
    <path id="Tracé_840" data-name="Tracé 840" d="M378.879,154.327c-.2-1.051-.48-1.363-.893-.864-.048,0-.547,4.032.062,4.517C378.567,158.455,379.052,155.364,378.879,154.327Z" transform="translate(170.589 35.415)"/>
    <path id="Tracé_841" data-name="Tracé 841" d="M375.444,157.576c1.3.658,1.632-2.621,1.44-3.658s-1.128-1.382-1.522-.864C375.348,153.04,374.739,157.231,375.444,157.576Z" transform="translate(169.084 35.181)"/>
    <path id="Tracé_842" data-name="Tracé 842" d="M387.653,158.608c1.128.077.96-3.125.643-4.032s-1.065-1-1.363-.3C386.9,154.293,387,158.579,387.653,158.608Z" transform="translate(175.812 35.747)"/>
    <path id="Tracé_843" data-name="Tracé 843" d="M399.23,160.118c1.128.077.96-3.125.643-4.032s-1.066-1-1.363-.3C398.481,155.788,398.572,160.075,399.23,160.118Z" transform="translate(182.404 36.609)"/>
    <path id="Tracé_844" data-name="Tracé 844" d="M372.985,160.643a.053.053,0,0,0,.033,0,18.1,18.1,0,0,0-.221-6.922c-.422-.926-.768-1.085-1.017-.394a6.013,6.013,0,0,0-.187,2.179C371.621,157.5,371.919,160.268,372.985,160.643Z" transform="translate(167.051 35.234)"/>
    <path id="Tracé_845" data-name="Tracé 845" d="M395.79,161.583h.048a18.089,18.089,0,0,0-.221-6.922c-.423-.926-.768-1.085-1.018-.394a6.013,6.013,0,0,0-.187,2.179C394.427,158.448,394.725,161.208,395.79,161.583Z" transform="translate(180.04 35.768)"/>
    <path id="Tracé_846" data-name="Tracé 846" d="M387.49,158.894a6.534,6.534,0,0,0-.034,2.227c.158,1.882.72,2.275,1.8,1.694,0,0,.034-.034.034-.048.518-.566-.331-3.874-.768-4.392S387.677,158.03,387.49,158.894Z" transform="translate(176.052 38.178)"/>
  </g>
</svg>
