<svg xmlns="http://www.w3.org/2000/svg" xmlns:xlink="http://www.w3.org/1999/xlink" width="144.839" height="136.68" viewBox="0 0 144.839 136.68">
  <defs>
    <clipPath id="clip-path">
      <rect id="Rectangle_98" data-name="Rectangle 98" width="144.839" height="136.68" transform="translate(78 91)" fill="#e24e59"/>
    </clipPath>
  </defs>
  <g id="Human" transform="translate(-78 -91)" clip-path="url(#clip-path)">
    <path id="Tracé_768" data-name="Tracé 768" d="M274.349,337.573a3.168,3.168,0,0,1,2.9.82l.075.02a3.35,3.35,0,0,0-6.159-.879c-.049.092-5.149,8.725-15.106,8.725-9.849,0-14.906-8.378-15.106-8.725a3.348,3.348,0,0,0-6.061.556l.016-.016a3.7,3.7,0,0,1,3.141-1.19,2.261,2.261,0,0,1,1.53,2.788,13.24,13.24,0,0,1-2.161,4c-.039.062-.078.121-.121.18,3.024,3.579,9.228,9.107,18.75,9.107A24.5,24.5,0,0,0,274.679,344a11.545,11.545,0,0,1-1.938-3.619A2.319,2.319,0,0,1,274.349,337.573Z" transform="translate(-105.604 -164.814)" fill="#fff"/>
    <path id="Tracé_769" data-name="Tracé 769" d="M291.072,267.5a3.347,3.347,0,0,0,4.573-1.229l12.007-20.794a3.353,3.353,0,1,0-5.809-3.351l-12,20.794A3.357,3.357,0,0,0,291.072,267.5Z" transform="translate(-142.29 -100.593)" fill="#e24e59"/>
    <path id="Tracé_770" data-name="Tracé 770" d="M255.509,246.9a3.6,3.6,0,1,0-3.6-3.6A3.6,3.6,0,0,0,255.509,246.9Z" transform="translate(-117.06 -100.091)" fill="#fff"/>
    <path id="Tracé_771" data-name="Tracé 771" d="M444.4,164.835l.01.01a1.24,1.24,0,0,0,1.739-.2l3.4-4.4a1.24,1.24,0,0,0-.2-1.739l-.01-.01a1.24,1.24,0,0,0-1.739.2l-3.393,4.4A1.238,1.238,0,0,0,444.4,164.835Z" transform="translate(-246.314 -45.251)" fill="#fff"/>
    <path id="Tracé_772" data-name="Tracé 772" d="M185.667,103.5a1.237,1.237,0,0,0,1.409,1.04l.013,0a1.237,1.237,0,0,0,1.04-1.409l-.912-5.479a1.24,1.24,0,0,0-1.412-1.04l-.013,0a1.237,1.237,0,0,0-1.04,1.409Z" transform="translate(-71.846 -3.766)" fill="#fff"/>
    <path id="Tracé_773" data-name="Tracé 773" d="M490.148,266.373l-5.322,1.6a1.237,1.237,0,0,0-.853,1.527l0,.013a1.237,1.237,0,0,0,1.527.853l5.322-1.6a1.237,1.237,0,0,0,.853-1.527l0-.013A1.235,1.235,0,0,0,490.148,266.373Z" transform="translate(-273.232 -118.013)" fill="#fff"/>
    <path id="Tracé_774" data-name="Tracé 774" d="M455.982,323.23a2.465,2.465,0,1,0,2.478,2.455A2.462,2.462,0,0,0,455.982,323.23Z" transform="translate(-252.772 -156.316)" fill="#fff"/>
    <path id="Tracé_775" data-name="Tracé 775" d="M79.824,318.91a1.831,1.831,0,1,0,1.837,1.824A1.832,1.832,0,0,0,79.824,318.91Z" transform="translate(0 -153.408)" fill="#fff"/>
    <path id="Tracé_776" data-name="Tracé 776" d="M140.137,97.3a1.831,1.831,0,1,0-1.837-1.824A1.832,1.832,0,0,0,140.137,97.3Z" transform="translate(-40.588 -1.777)" fill="#fff"/>
    <path id="Tracé_777" data-name="Tracé 777" d="M136.278,317.314a5.293,5.293,0,0,0,6.472-3.066,1.3,1.3,0,1,0-2.367-1.1,2.693,2.693,0,0,1-3.262,1.693,2.824,2.824,0,0,1-1.592-3.282c.007-.036.013-.072.02-.1a.169.169,0,0,0,.007-.036,1.3,1.3,0,0,0-2.56-.5c-.013.059-.023.118-.036.18a5.984,5.984,0,0,0,.487,3.671A4.939,4.939,0,0,0,136.278,317.314Z" transform="translate(-36.929 -147.333)" fill="#fff"/>
    <path id="Tracé_778" data-name="Tracé 778" d="M478.162,194.505a6,6,0,0,0,3.243,1.791,4.935,4.935,0,0,0,3.723-.768,5.293,5.293,0,0,0,1.379-7.028,1.306,1.306,0,1,0-2.292,1.252,2.7,2.7,0,0,1-.575,3.632,2.821,2.821,0,0,1-3.583-.67c-.026-.026-.049-.052-.072-.078-.01-.01-.016-.02-.026-.029a1.305,1.305,0,0,0-1.922,1.765Z" transform="translate(-269.046 -65.171)" fill="#fff"/>
    <path id="Tracé_779" data-name="Tracé 779" d="M134.3,220.894c.062,0,.121-.01.18-.016a5.978,5.978,0,0,0,3.406-1.455,4.925,4.925,0,0,0,1.683-3.409,5.292,5.292,0,0,0-4.691-5.41,1.3,1.3,0,0,0-.422,2.573,2.7,2.7,0,0,1,2.511,2.687,2.826,2.826,0,0,1-2.733,2.416l-.108.01c-.013,0-.026,0-.039,0a1.306,1.306,0,0,0,.212,2.6Z" transform="translate(-36.961 -80.494)" fill="#fff"/>
    <path id="Tracé_780" data-name="Tracé 780" d="M295.594,453.468c-1.847-1.5-5.145.029-4.766,2.511a2.6,2.6,0,0,0,2.569,2.131c.023,0,.046,0,.065,0,.052,0,.1-.01.16-.013a3.077,3.077,0,0,0,2.677-1.71A2.5,2.5,0,0,0,295.594,453.468Zm-.056,2.419a1.905,1.905,0,0,1-1.693,1.742,2.181,2.181,0,0,1-1.938-1.412,2.25,2.25,0,0,1,.507-2.416,1.649,1.649,0,0,1,2.069-.144A2.3,2.3,0,0,1,295.539,455.887Z" transform="translate(-143.236 -243.58)"/>
    <path id="Tracé_781" data-name="Tracé 781" d="M297.9,163.41a1.545,1.545,0,0,0-3.089,0A1.545,1.545,0,0,0,297.9,163.41Z" transform="translate(-145.937 -47.7)"/>
    <path id="Tracé_782" data-name="Tracé 782" d="M225.718,252.987c-.36-.428-.709-.863-1.059-1.3q-1.167-1.456-2.3-2.932c-.412-.536-.853-1.062-1.229-1.625-1.87-2.857-3.514-5.855-5.152-8.846-1.442-2.628-2.857-5.289-4.531-7.78-1.111-1.654-2.448-3.573-4.338-4.406a3.792,3.792,0,0,0-.52-.186,1.571,1.571,0,0,0-.177-.049l-.056-.036a10.468,10.468,0,0,0-.981-.569,10.019,10.019,0,0,0-3.769-1.219,5.842,5.842,0,0,0-2.406.307,2.809,2.809,0,0,1-1.419.193,6.967,6.967,0,0,1-1.415-.579,5.286,5.286,0,0,0-1.935-.382V152.585a8.329,8.329,0,0,0-.072-1.308,5.726,5.726,0,0,0-5.6-4.691c-.02,0-.049,0-.072,0-.039,0-.075,0-.111,0h-61c-.3,0-.595,0-.892,0A6.111,6.111,0,0,0,120.9,150.9a11.156,11.156,0,0,0-.206,3.079v68.987a4.994,4.994,0,0,0-1.056.245,5.406,5.406,0,0,1-2.432.7,8.108,8.108,0,0,1-1.262-.376,4.529,4.529,0,0,0-1.108-.154,9.073,9.073,0,0,0-4.018.981,13.752,13.752,0,0,0-1.334.716c-.092.056-.186.111-.275.17-.065.013-.235.072-.265.078-1.932.628-3.338,2.419-4.465,4.008a76.786,76.786,0,0,0-4.518,7.568c-1.811,3.3-3.6,6.62-5.662,9.777-.007.007-.1.137-.121.167-.1.134-.2.268-.3.4-.294.389-.588.771-.886,1.157-.762.987-1.533,1.971-2.314,2.942q-.51.637-1.033,1.262a5.247,5.247,0,0,0-.716.961,3.516,3.516,0,0,0-.232,2.269,10.1,10.1,0,0,0,3.158,5.024,13.92,13.92,0,0,0,5.956,3.494,6.675,6.675,0,0,0,6.888-1.693,17.74,17.74,0,0,1,1.8-1.968,25.636,25.636,0,0,1,2.514-1.837c3.906-2.553,8.1-4.635,12.167-6.937a5.887,5.887,0,0,0,5.361,3.318h58.765c1.043,0,2.086.013,3.128,0a6.185,6.185,0,0,0,5.24-3.034c3.174,1.831,6.436,3.514,9.6,5.345a35.81,35.81,0,0,1,5.629,3.766,10.38,10.38,0,0,1,.9.876c.36.4.651.853,1.023,1.242a5.437,5.437,0,0,0,3.488,1.628,10.852,10.852,0,0,0,6.515-1.785,14.673,14.673,0,0,0,4.828-4.655c.817-1.314,1.621-3.2.778-4.694A6.049,6.049,0,0,0,225.718,252.987Zm-.981,5.75a13.735,13.735,0,0,1-6.237,5.224,7.588,7.588,0,0,1-3.743.615,4.92,4.92,0,0,1-2.144-.742,8.417,8.417,0,0,1-1.719-1.772,13.127,13.127,0,0,0-2.4-2.125c-1.128-.821-2.314-1.556-3.511-2.265-2.886-1.71-5.858-3.269-8.784-4.907q-1.1-.613-2.2-1.245l-.572-.333-.6-.353a49.426,49.426,0,0,1-4.965-3.328c-1.049-.814-1.968-1.746-2.962-2.622-.2-.18-.4-.363-.6-.546a8.05,8.05,0,0,1-1.87-2.422,10.5,10.5,0,0,1-.788-2.664,11.173,11.173,0,0,1,.075-3.007c.075-.768.108-1.54.167-2.3.552.092,1.111.157,1.667.235.039,0,.078,0,.118,0a.98.98,0,0,0,.905-.513,1.706,1.706,0,0,0,.1-.461,2.678,2.678,0,0,0,0-1.151,1.957,1.957,0,0,0-.951-1.174,3.089,3.089,0,0,0-1.147-.3h-.033a4.079,4.079,0,0,1,.664-1.18,1.936,1.936,0,0,1,.373-.34c-.033.023.059-.026.085-.042a.239.239,0,0,1,.052-.013c.033,0,.075,0,.036,0,.072.013.127.02.16.029a1.063,1.063,0,0,1,.343.186,1.815,1.815,0,0,1,.543.762,7.349,7.349,0,0,1,.33,1.527c.108.706.193,1.415.291,2.125.095.683.193,1.373.343,2.046a3.256,3.256,0,0,0,.49,1.308,1.779,1.779,0,0,0,1.546.68.484.484,0,0,0,.425.252.492.492,0,0,0,.095-.01,3.29,3.29,0,0,0,1.7-1.072,4.082,4.082,0,0,0,.543-.811,7.1,7.1,0,0,0,.5-4.23.484.484,0,0,0-.5-.422.28.28,0,0,0-.052,0,.491.491,0,0,0-.422.552,10.323,10.323,0,0,1,.088,1.075c-.111-.157-.226-.311-.327-.454-2.079-2.955-4.58-5.613-6.881-8.391-1.357-1.638-2.681-3.3-3.919-5.024-.6-.834-1.164-1.687-1.719-2.546-.16-.248-.324-.494-.49-.742a19.609,19.609,0,0,1-1.072-1.752,3.73,3.73,0,0,1-.579-2.383c.111-.523.543-1.226,1.154-1.157a2.729,2.729,0,0,1,1.272.579c-.069.026-.134.056-.2.085a3.283,3.283,0,0,0-.428.275,1.358,1.358,0,0,0-.592.762,1.117,1.117,0,0,0,.19.955,4.215,4.215,0,0,0,.415.546.813.813,0,0,0,.585.2,2.032,2.032,0,0,0,.713-.141,1.457,1.457,0,0,0,.311-.157c.314-.212.618-.445.925-.673.1.118.2.235.3.353,1.278,1.54,2.468,3.138,3.838,4.6a39.741,39.741,0,0,0,4.429,4.057c.726.569,1.471,1.115,2.226,1.644.078.056.16.108.239.163.278.193.559.386.84.572.451.3.726.15,1.19-.052a3.227,3.227,0,0,1,.389-.137,3.578,3.578,0,0,1,.719-.134,3.528,3.528,0,0,1,.719.013,3.361,3.361,0,0,1,.546.108c.987.278,1.795.9,2.857.879,1.026-.023,1.912-.579,2.942-.552a7.5,7.5,0,0,1,2.527.585,12.812,12.812,0,0,1,1.818.889c.141.082.271.177.412.255a3.215,3.215,0,0,0,.523.19,6.726,6.726,0,0,1,2.648,2,26.271,26.271,0,0,1,2.71,3.769c2.04,3.3,3.8,6.76,5.711,10.134.994,1.752,2.02,3.485,3.122,5.168.53.791,1.154,1.53,1.736,2.282.9,1.164,1.811,2.324,2.752,3.455a5.5,5.5,0,0,1,.873,1.164,2.956,2.956,0,0,1,.242,1.3A6.415,6.415,0,0,1,224.737,258.737Zm-36.213-4.495c-1.209.01-2.419,0-3.628,0H127.4c-.311,0-.7,0-.915-.013a4.743,4.743,0,0,1-4.021-3.053c.248-.144.5-.284.742-.432a42.778,42.778,0,0,0,6.25-4.348c.762-.667,1.484-1.376,2.236-2.056h51.364c.2.2.405.4.621.588.781.7,1.52,1.438,2.311,2.118a31.9,31.9,0,0,0,2.922,2.2c1.2.817,2.435,1.582,3.684,2.324A4.454,4.454,0,0,1,188.524,254.242Zm-74,.595a66.765,66.765,0,0,0-7.721,4.694,12.369,12.369,0,0,0-2.36,2.164,5.817,5.817,0,0,1-1.984,1.821,5.033,5.033,0,0,1-1.889.448c-2.72.15-5.39-1.37-7.381-3.092a13.212,13.212,0,0,1-2.612-3.027,5.875,5.875,0,0,1-1.017-2.988,2.632,2.632,0,0,1,.291-1.242,7.656,7.656,0,0,1,.9-1.134c.935-1.131,1.84-2.288,2.739-3.449.566-.729,1.164-1.448,1.677-2.216,2.262-3.459,4.2-7.116,6.191-10.732.9-1.621,1.8-3.24,2.785-4.809a24.158,24.158,0,0,1,2.681-3.638,5.832,5.832,0,0,1,2.514-1.755,4.928,4.928,0,0,0,1-.536,12.034,12.034,0,0,1,1.971-.9,6.2,6.2,0,0,1,2.52-.386,6.872,6.872,0,0,1,1.432.386,3.68,3.68,0,0,0,1.612.118c.968-.141,1.759-.807,2.736-.948l.075-.007a3.307,3.307,0,0,1,.719,0q.118.01.235.029a4.09,4.09,0,0,1,.484.1l.075.016c.3.085.569.268.863.35.418.121.775-.219,1.1-.435.131-.088.258-.18.389-.268.262-.18.526-.36.785-.543.739-.526,1.468-1.069,2.174-1.638a40.24,40.24,0,0,0,4.367-4.073c1.344-1.455,2.507-3.047,3.782-4.557.01-.013.023-.026.033-.039a.732.732,0,0,0,.209.268c.239.173.474.35.713.523.078.056.154.114.232.17a1.4,1.4,0,0,0,1.4,0,1.158,1.158,0,0,0,.454-.356c.072-.095.141-.193.212-.288a1.379,1.379,0,0,0,.333-.811,1.134,1.134,0,0,0-.474-.925,1.851,1.851,0,0,0-.762-.405,1.666,1.666,0,0,0-.477-.013,2.193,2.193,0,0,1,1.474-.608,1.6,1.6,0,0,1,1.229,1.438,4.3,4.3,0,0,1-.762,2.4c-.36.634-.765,1.236-1.167,1.844-.128.19-.252.382-.376.575-.566.886-1.16,1.749-1.778,2.6-2.419,3.321-5.142,6.4-7.777,9.549-1.017,1.216-2.037,2.439-2.932,3.746-.075.108-.15.219-.229.33a9.748,9.748,0,0,1,.092-1.206.491.491,0,0,0-.974-.131,7.963,7.963,0,0,0,.212,3.566,4.234,4.234,0,0,0,.83,1.474,3.29,3.29,0,0,0,1.7,1.072.459.459,0,0,0,.092.01.487.487,0,0,0,.369-.18,2.233,2.233,0,0,0,1.651-.928,4.36,4.36,0,0,0,.474-1.415c.144-.67.239-1.347.33-2.023.095-.706.183-1.412.291-2.112a5.991,5.991,0,0,1,.32-1.438,1.414,1.414,0,0,1,.507-.647.276.276,0,0,1,.082-.042c.016,0,.065-.016.095-.026s.1,0,.062,0a.421.421,0,0,1,.147.023,2.494,2.494,0,0,1,1.314,1.569,3.545,3.545,0,0,0-.556.1,2.269,2.269,0,0,0-1.353,1,2.059,2.059,0,0,0-.209,1.386c.02.147.033.294.062.441a.66.66,0,0,0,.729.474.693.693,0,0,0,.121,0l.072-.01c.5-.072,1-.141,1.5-.212a1.986,1.986,0,0,0,.294-.065c.088.974.118,1.955.216,2.932a10.014,10.014,0,0,1-.007,2.965,7.851,7.851,0,0,1-3.1,5.181c-.069.059-.134.121-.2.18-1,.9-1.948,1.831-3.027,2.645-1.262.951-2.586,1.818-3.933,2.645-.386.235-.778.464-1.167.693-.222.131-.441.265-.664.4l-.657.382C118.818,252.5,116.663,253.657,114.526,254.837ZM122.4,150.562a4.442,4.442,0,0,1,4.21-2.985c.4,0,.8,0,1.2,0h60.432a1.034,1.034,0,0,0,.144.007,4.825,4.825,0,0,1,4.606,4.76c0,.193,0,.386,0,.579v70.831a5.418,5.418,0,0,0-.726.245c-.007,0-.013-.01-.016-.01l-.245-.167c-.131-.088-.262-.177-.392-.268-.327-.226-.654-.451-.974-.683-.02-.016-.039-.029-.062-.046v-63.2a1.821,1.821,0,0,0-1.821-1.821H126.366a1.821,1.821,0,0,0-1.821,1.821v62.923q-.588.417-1.187.814a5.391,5.391,0,0,0-1.232-.369v-69.2A9.46,9.46,0,0,1,122.4,150.562ZM183.729,229a.38.38,0,0,0-.049.01.182.182,0,0,1,.049-.01Zm-46.039-15.586c-.013.013-.046.02,0,0Zm.134-.16c-.039-.026-.078-.056-.114-.082-.3-.222-.608-.448-.915-.67a.578.578,0,0,1-.108-.8c.108-.15.219-.3.33-.451a.711.711,0,0,1,.078-.095.927.927,0,0,1,.085-.075.041.041,0,0,1,.01-.007h.007a1.567,1.567,0,0,1,.637.34,1.063,1.063,0,0,1,.448.693,1.034,1.034,0,0,1-.2.794C137.993,213.024,137.911,213.142,137.823,213.257Zm-.575-2.213h0c.007,0,.01-.007.013-.007A.025.025,0,0,0,137.248,211.043Zm-5.439,21.97a.072.072,0,0,1-.016-.01.573.573,0,0,1-.052-.062.374.374,0,0,1-.039-.16c-.02-.134-.039-.271-.059-.409a1.772,1.772,0,0,1,.078-.958,1.369,1.369,0,0,1,.127-.235,1.052,1.052,0,0,1,.157-.2c.036-.036.075-.069.114-.1l.013-.013.056-.039.092-.052.043-.02a.369.369,0,0,0,.046-.02.317.317,0,0,1,.036-.01l.075-.02a.03.03,0,0,0,.016,0c.059-.007.118-.016.18-.026l.1-.016c.013-.02.036-.036.042-.02.023,0,.026.007,0,0l.016.01c.01,0,.02,0,.026,0s.036,0,.046-.007a.243.243,0,0,1-.049.026c.1.1.1.333.124.481.043.291.082.585.124.876.033.222.069.445.095.667,0,.013.007.026.007.039a.216.216,0,0,1-.01.078C132.74,232.883,132.272,232.949,131.808,233.014Zm1.379-.147c-.013.029-.016,0,0,0Zm5.773-16.6a13.24,13.24,0,0,0,2.161-4,2.261,2.261,0,0,0-1.53-2.788,3.691,3.691,0,0,0-3.141,1.19l-.016.016a3.348,3.348,0,0,1,6.061-.556c.2.346,5.256,8.725,15.106,8.725,9.957,0,15.057-8.633,15.106-8.725a3.35,3.35,0,0,1,6.159.879l-.075-.02a3.168,3.168,0,0,0-2.9-.82,2.3,2.3,0,0,0-1.6,2.8,11.479,11.479,0,0,0,1.938,3.619,24.5,24.5,0,0,1-18.633,8.963c-9.522,0-15.73-5.528-18.751-9.107C138.882,216.391,138.921,216.333,138.961,216.27Zm3.03-35.648a3.6,3.6,0,1,1,3.6,3.6A3.6,3.6,0,0,1,141.991,180.623Zm12.7,19.117,12-20.794a3.353,3.353,0,1,1,5.809,3.351L160.5,203.09a3.352,3.352,0,0,1-5.806-3.351Zm24.027,13.3c-.219.16-.438.32-.657.484-.007,0-.013.01-.02.013s-.01,0-.013-.007a1.588,1.588,0,0,1-.409-.474,1.3,1.3,0,0,1-.3-.667.982.982,0,0,1,.343-.847c.075-.062.154-.114.232-.173.007,0,.013-.01.02-.013l.033-.023h.01a1.031,1.031,0,0,1,.137.029.98.98,0,0,1,.4.248,4.393,4.393,0,0,1,.4.523c.016.023.033.049.046.072a.8.8,0,0,1,.075.183.512.512,0,0,1-.177.562C178.8,212.985,178.76,213.011,178.721,213.041Zm-.533.546-.013,0c.029,0,.052-.007.023,0,0,0,0,0,0,0S178.194,213.587,178.188,213.587Zm4.58,17.757a.505.505,0,0,1,.075.023c.049.016.1.036.147.056a.425.425,0,0,1,.056.026l.043.026a1.232,1.232,0,0,1,.425.382,1.451,1.451,0,0,1,.258,1.082c-.023.154-.042.311-.065.464,0,.016,0,.033-.007.049-.4-.056-.8-.114-1.206-.17-.085-.013-.17-.026-.255-.036a.1.1,0,0,1-.016-.02.132.132,0,0,1-.033-.082,3.346,3.346,0,0,1,.065-.474c.065-.458.111-.919.193-1.373l.222.029c.029,0,.059.01.088.013C182.764,231.343,182.764,231.343,182.767,231.343Zm0,0c.059.013.016.007,0,0Zm-.533,1.9c-.033,0-.016-.01,0,0Zm.229-2.037a.033.033,0,0,1,0-.01C182.483,231.193,182.486,231.2,182.467,231.209Zm-.007,0h0c0-.007,0-.01.01-.013S182.463,231.206,182.46,231.213Z" transform="translate(-7.141 -37.415)" fill="#212346"/>
    <path id="Tracé_783" data-name="Tracé 783" d="M418.579,396.179a5.643,5.643,0,0,0-3.2-.284,17.109,17.109,0,0,0-2.115.363c-.183.042-.445.216-.389.438s.386.226.556.183.356-.078.536-.114c.245-.049.291-.056.5-.092.235-.039.474-.072.713-.1a10.02,10.02,0,0,1,1.487-.085,2.912,2.912,0,0,1,1.18.226.657.657,0,0,0,.677-.062C418.66,396.545,418.791,396.29,418.579,396.179Z" transform="translate(-225.402 -205.163)"/>
    <path id="Tracé_784" data-name="Tracé 784" d="M439.343,395.213a2.738,2.738,0,0,0-.566-.075,2.7,2.7,0,0,0-1.252.242.553.553,0,0,0-.245.212.224.224,0,0,0,.013.242.573.573,0,0,0,.637.052c.033-.016.069-.033.1-.046a.077.077,0,0,1,.026-.007c.036-.01.069-.02.1-.026l.013,0c.069-.01.137-.016.206-.023a.92.92,0,0,1,.095,0c-.029,0-.049,0-.062,0h.059a2.289,2.289,0,0,1,.3.029.012.012,0,0,1,.01,0s.007,0,.007,0h.01c.01,0,.016,0,.026,0s0,0-.007,0a.7.7,0,0,0,.33-.007.672.672,0,0,0,.311-.177.265.265,0,0,0,.082-.248A.282.282,0,0,0,439.343,395.213Z" transform="translate(-241.815 -204.717)"/>
    <path id="Tracé_785" data-name="Tracé 785" d="M440.749,397.1c-.026,0-.039,0,0,0Z" transform="translate(-244.153 -206.038)"/>
    <path id="Tracé_786" data-name="Tracé 786" d="M442.3,475.84c-.007.023-.013.043-.02.065-.092.337-.183.788-.226.847-.033.1.131.311.206.19.029-.036.232-.516.245-.565a1.285,1.285,0,0,0,.111-.863C442.571,475.111,442.381,475.656,442.3,475.84Z" transform="translate(-245.043 -258.722)"/>
    <path id="Tracé_787" data-name="Tracé 787" d="M451.585,481.718c-.013.016-.023.036-.036.052a7.344,7.344,0,0,1-.425.69c-.059.082.1.258.212.16.042-.029.526-.356.556-.4a.641.641,0,0,0,.134-.775C451.9,481.09,451.719,481.567,451.585,481.718Z" transform="translate(-251.144 -262.727)"/>
    <path id="Tracé_788" data-name="Tracé 788" d="M438.749,473.41c0,.023-.007.049-.01.072-.036.366-.056.843-.092.919-.016.114.17.252.226.1.023-.046.245-.516.255-.569a1.536,1.536,0,0,0-.049-.919C438.981,472.642,438.8,473.2,438.749,473.41Z" transform="translate(-242.754 -257.054)"/>
    <path id="Tracé_789" data-name="Tracé 789" d="M430.059,467.893l-.02.069c-.078.346-.154.8-.2.87-.029.108.147.258.219.124.029-.042.314-.467.327-.516a1.38,1.38,0,0,0,.052-.883C430.383,467.184,430.134,467.694,430.059,467.893Z" transform="translate(-236.826 -253.374)"/>
    <path id="Tracé_790" data-name="Tracé 790" d="M445.322,480.053c-.036.216,0,.327.108.317.007.013.379-.575.3-.771S445.361,479.844,445.322,480.053Z" transform="translate(-247.239 -261.539)"/>
    <path id="Tracé_791" data-name="Tracé 791" d="M459.282,487.613c-.131.173-.154.291-.052.33,0,.013.6-.333.624-.546C459.877,487.208,459.413,487.45,459.282,487.613Z" transform="translate(-256.567 -266.772)"/>
    <path id="Tracé_792" data-name="Tracé 792" d="M425.562,467.533c-.131.173-.154.291-.052.33,0,.013.6-.333.624-.546C426.16,467.128,425.7,467.37,425.562,467.533Z" transform="translate(-233.869 -253.256)"/>
    <path id="Tracé_793" data-name="Tracé 793" d="M448.532,481.506c-.036.216,0,.327.108.317.007.013.379-.575.3-.771C448.872,480.872,448.571,481.3,448.532,481.506Z" transform="translate(-249.399 -262.518)"/>
    <path id="Tracé_794" data-name="Tracé 794" d="M434.35,471.574c0,.219.127.376.232.311.007.007.284-.732.167-.866C434.543,470.786,434.353,471.362,434.35,471.574Z" transform="translate(-239.862 -255.757)"/>
    <path id="Tracé_795" data-name="Tracé 795" d="M421.969,464.282c-.154.154-.173.356-.056.386,0,.01.719-.317.729-.5C422.662,463.864,422.123,464.135,421.969,464.282Z" transform="translate(-231.44 -251.09)"/>
    <path id="Tracé_796" data-name="Tracé 796" d="M455.779,485.365c-.134-.095-.719.232-.794.35s-.023.2.15.212a1.067,1.067,0,0,0,.422-.085c.35-.114.4-.252.232-.471C455.788,485.368,455.782,485.368,455.779,485.365Z" transform="translate(-253.73 -265.439)"/>
    <path id="Tracé_797" data-name="Tracé 797" d="M461.892,489.783c-.131.173-.154.291-.052.33,0,.013.6-.333.624-.546C462.487,489.378,462.023,489.62,461.892,489.783Z" transform="translate(-258.323 -268.232)"/>
    <path id="Tracé_798" data-name="Tracé 798" d="M223.8,403.8a.01.01,0,0,1,0-.007.072.072,0,0,1-.016-.01l-.059.01C223.694,403.816,223.694,403.849,223.8,403.8Z" transform="translate(-98.076 -210.535)"/>
    <path id="Tracé_799" data-name="Tracé 799" d="M174.893,394.654a16.8,16.8,0,0,0-2.1-.36,5.784,5.784,0,0,0-3.249.288c-.154.082-.369.255-.235.448.124.177.477.131.637.046.049-.026.1-.049.15-.072a.057.057,0,0,1,.023-.01.132.132,0,0,1,.02-.007c.1-.029.2-.056.307-.075l.088-.013c.062-.01.121-.016.183-.023.118-.013.235-.02.356-.023a10.06,10.06,0,0,1,1.491.085,14.687,14.687,0,0,1,1.768.307.726.726,0,0,0,.651-.163c.007-.007.013-.01.02-.016a.233.233,0,0,0-.02-.366A.507.507,0,0,0,174.893,394.654Z" transform="translate(-61.436 -204.086)"/>
    <path id="Tracé_800" data-name="Tracé 800" d="M156.136,394.005a1.152,1.152,0,0,0-.324.127c-.029.016-.127.075-.114.131s.127.056.163.056a1.322,1.322,0,0,0,.278-.036c-.036.007-.065.016-.026.007l.062-.01c.016,0,.036,0,.052-.007s.049,0,.072-.007h.013c.062,0,.124,0,.186,0h.007a.2.2,0,0,0,.042,0c.036,0,.069.01.1.013.075.013.147.029.219.049a.044.044,0,0,0,.016,0s0,0,.013.007.029.01.042.016c.043.016.085.036.124.056a.493.493,0,0,0,.239.02,1.593,1.593,0,0,0,.369-.085.746.746,0,0,0,.268-.137c.026-.026.082-.085.02-.114A2.751,2.751,0,0,0,156.136,394.005Z" transform="translate(-52.298 -203.882)"/>
    <path id="Tracé_801" data-name="Tracé 801" d="M156.464,474.252c-.007-.023-.013-.042-.02-.065-.082-.183-.275-.729-.314-.33a1.269,1.269,0,0,0,.111.863c.016.049.219.53.245.566.075.121.239-.085.206-.19A8.135,8.135,0,0,1,156.464,474.252Z" transform="translate(-52.578 -257.608)"/>
    <path id="Tracé_802" data-name="Tracé 802" d="M146.377,480.125c-.013-.016-.023-.036-.036-.052-.134-.15-.311-.628-.438-.262a.642.642,0,0,0,.134.775c.026.039.513.366.556.4.111.1.271-.078.212-.16A7.744,7.744,0,0,1,146.377,480.125Z" transform="translate(-45.661 -261.621)"/>
    <path id="Tracé_803" data-name="Tracé 803" d="M160.1,471.76c-.052-.212-.232-.768-.33-.392a1.536,1.536,0,0,0-.049.919c.007.052.232.523.255.569.052.15.242.01.226-.1-.036-.075-.052-.552-.092-.919C160.107,471.806,160.1,471.783,160.1,471.76Z" transform="translate(-54.975 -255.943)"/>
    <path id="Tracé_804" data-name="Tracé 804" d="M168.576,466.3l-.02-.069c-.078-.2-.324-.709-.382-.34a1.377,1.377,0,0,0,.052.883c.013.049.3.474.327.516.072.137.252-.016.219-.124C168.73,467.1,168.654,466.646,168.576,466.3Z" transform="translate(-60.669 -252.254)"/>
    <path id="Tracé_805" data-name="Tracé 805" d="M153.318,477.941c-.078.2.3.785.3.771.108.01.144-.1.108-.317S153.386,477.762,153.318,477.941Z" transform="translate(-50.69 -260.424)"/>
    <path id="Tracé_806" data-name="Tracé 806" d="M138.668,485.747c.023.209.624.559.624.546.1-.039.078-.157-.052-.33S138.645,485.558,138.668,485.747Z" transform="translate(-40.836 -265.661)"/>
    <path id="Tracé_807" data-name="Tracé 807" d="M172.378,465.667c.023.209.624.559.624.546.1-.039.078-.157-.052-.33S172.355,465.478,172.378,465.667Z" transform="translate(-63.526 -252.145)"/>
    <path id="Tracé_808" data-name="Tracé 808" d="M150.108,479.4c-.078.2.3.785.3.771.108.01.144-.1.108-.317S150.176,479.222,150.108,479.4Z" transform="translate(-48.529 -261.407)"/>
    <path id="Tracé_809" data-name="Tracé 809" d="M164.31,469.368c-.118.134.157.876.167.866.1.062.232-.095.232-.311S164.516,469.136,164.31,469.368Z" transform="translate(-58.076 -254.646)"/>
    <path id="Tracé_810" data-name="Tracé 810" d="M175.629,462.519c.01.18.729.507.729.5.118-.029.1-.229-.056-.386S175.613,462.212,175.629,462.519Z" transform="translate(-65.715 -249.978)"/>
    <path id="Tracé_811" data-name="Tracé 811" d="M142.25,483.715s-.01,0-.01.007c-.167.219-.118.36.232.471a1.139,1.139,0,0,0,.422.085c.173-.007.222-.082.15-.212S142.381,483.62,142.25,483.715Z" transform="translate(-43.179 -264.328)"/>
    <path id="Tracé_812" data-name="Tracé 812" d="M136.049,487.917c.023.209.624.559.624.546.1-.039.078-.157-.052-.33S136.029,487.728,136.049,487.917Z" transform="translate(-39.073 -267.122)"/>
    <path id="Tracé_813" data-name="Tracé 813" d="M140.129,158.142a1.239,1.239,0,0,0,1.69.451l.013-.007a1.239,1.239,0,0,0,.451-1.69l-2.86-4.766a1.239,1.239,0,0,0-1.69-.451l-.013.007a1.239,1.239,0,0,0-.451,1.69Z" transform="translate(-39.783 -40.732)" fill="#202020"/>
    <path id="Tracé_814" data-name="Tracé 814" d="M448.219,97.113a1.235,1.235,0,0,0,1.749,0l3.861-3.995a1.235,1.235,0,0,0,0-1.749l-.01-.01a1.235,1.235,0,0,0-1.749,0l-3.861,3.995a1.235,1.235,0,0,0,0,1.749Z" transform="translate(-248.946 0.003)" fill="#202020"/>
    <path id="Tracé_815" data-name="Tracé 815" d="M86.816,271.873l0-.013a1.238,1.238,0,0,0-1.033-1.412l-5.5-.768a1.238,1.238,0,0,0-1.412,1.033l0,.013a1.238,1.238,0,0,0,1.033,1.412l5.5.768A1.235,1.235,0,0,0,86.816,271.873Z" transform="translate(-0.575 -120.261)" fill="#202020"/>
    <path id="Tracé_816" data-name="Tracé 816" d="M444.479,253.492a3.066,3.066,0,1,0-3.079-3.053A3.066,3.066,0,0,0,444.479,253.492Z" transform="translate(-244.608 -105.247)" fill="#e24e59"/>
    <path id="Tracé_817" data-name="Tracé 817" d="M505.383,318.39a3.066,3.066,0,1,0,3.079,3.053A3.066,3.066,0,0,0,505.383,318.39Z" transform="translate(-285.62 -153.058)" fill="#202020"/>
    <path id="Tracé_818" data-name="Tracé 818" d="M92.79,390.28a2.53,2.53,0,1,0,2.52-2.54A2.534,2.534,0,0,0,92.79,390.28Z" transform="translate(-9.955 -199.738)" fill="#e24e59"/>
    <path id="Tracé_819" data-name="Tracé 819" d="M80.629,153.185a2.568,2.568,0,1,0-2.579-2.556A2.567,2.567,0,0,0,80.629,153.185Z" transform="translate(-0.034 -38.401)" fill="#e24e59"/>
    <path id="Tracé_820" data-name="Tracé 820" d="M377.769,106.422a5.286,5.286,0,0,0,7.094-.968,1.3,1.3,0,1,0-1.925-1.762,2.7,2.7,0,0,1-3.622.631,2.827,2.827,0,0,1-.526-3.609c.016-.033.033-.062.052-.095.007-.01.013-.023.02-.033a1.3,1.3,0,0,0-2.292-1.245c-.029.052-.059.1-.088.16a5.984,5.984,0,0,0-.647,3.645A4.934,4.934,0,0,0,377.769,106.422Z" transform="translate(-200.434 -5.167)" fill="#e24e59"/>
    <path id="Tracé_821" data-name="Tracé 821" d="M456.683,372.518a1.3,1.3,0,1,0,1.971,1.71,2.7,2.7,0,0,1,3.606-.726,2.823,2.823,0,0,1,.621,3.593c-.016.033-.033.065-.049.095a.152.152,0,0,0-.016.033,1.3,1.3,0,0,0,2.324,1.183c.029-.052.056-.108.082-.163a5.976,5.976,0,0,0,.549-3.661,4.942,4.942,0,0,0-2.017-3.223A5.3,5.3,0,0,0,456.683,372.518Z" transform="translate(-254.68 -188.118)" fill="#e24e59"/>
    <path id="Tracé_822" data-name="Tracé 822" d="M217.391,154.544a1.368,1.368,0,0,0,.193-.847c0-.056,0-.654-.013-.713a.112.112,0,0,0-.222-.02c.016.088-.059.562-.095.938,0,.026,0,.049,0,.075C217.257,154.211,217.23,154.855,217.391,154.544Z" transform="translate(-93.73 -41.643)"/>
    <path id="Tracé_823" data-name="Tracé 823" d="M213.023,163.129c.291.02.435-1.066.448-1.536.013-.1.072-1.2.059-1.311a.205.205,0,0,0-.405-.062,10.968,10.968,0,0,1-.173,1.605c0,.046-.013.092-.016.137C212.921,162.394,212.656,163.175,213.023,163.129Z" transform="translate(-90.755 -46.478)"/>
    <path id="Tracé_824" data-name="Tracé 824" d="M207.39,154.909c.363-.131.4-.382.428-.637.01-.052-.026-.758-.029-.817.007-.177-.19-.226-.212-.111,0,.095-.137.53-.226.879a.572.572,0,0,1-.016.072C207.308,154.526,207.092,155.017,207.39,154.909Z" transform="translate(-86.988 -41.922)"/>
    <path id="Tracé_825" data-name="Tracé 825" d="M213.669,155.058a1.2,1.2,0,0,0,.337-.752c.01-.052-.013-.66-.016-.722.007-.177-.19-.226-.212-.111,0,.095-.137.53-.226.879a.57.57,0,0,1-.016.072C213.509,154.656,213.47,155.3,213.669,155.058Z" transform="translate(-91.215 -42.01)"/>
    <path id="Tracé_826" data-name="Tracé 826" d="M220.535,154.228c.124-.1.02-.948.013-.941-.082-.108-.147-.039-.186.18S220.421,154.323,220.535,154.228Z" transform="translate(-95.819 -41.892)"/>
    <path id="Tracé_827" data-name="Tracé 827" d="M232.974,154.272c.147-.033.075-.938.065-.935-.075-.124-.245-.065-.3.144S232.657,154.344,232.974,154.272Z" transform="translate(-104.136 -41.916)"/>
    <path id="Tracé_828" data-name="Tracé 828" d="M222.872,153.808c.144-.072.02-.948.01-.941-.082-.108-.275-.039-.317.18S222.6,153.945,222.872,153.808Z" transform="translate(-97.303 -41.609)"/>
    <path id="Tracé_829" data-name="Tracé 829" d="M211.063,154.81c.137-.01.16-.9.15-.9-.062-.15-.212-.128-.284.062S210.828,154.826,211.063,154.81Z" transform="translate(-89.443 -42.277)"/>
    <path id="Tracé_830" data-name="Tracé 830" d="M199.49,156.32c.137-.01.16-.9.15-.9-.062-.15-.212-.127-.284.062S199.255,156.336,199.49,156.32Z" transform="translate(-81.652 -43.294)"/>
    <path id="Tracé_831" data-name="Tracé 831" d="M229.289,155.053c.33-.039.16-1.563.114-1.54-.052-.141-.209-.078-.271.118S229,155.085,229.289,155.053Z" transform="translate(-101.693 -42.027)"/>
    <path id="Tracé_832" data-name="Tracé 832" d="M226.236,154.51s.007,0,.01,0c.222-.078.284-.651.288-1.072a1.253,1.253,0,0,0-.039-.454c-.052-.144-.124-.111-.212.082A3.769,3.769,0,0,0,226.236,154.51Z" transform="translate(-99.742 -41.664)"/>
    <path id="Tracé_833" data-name="Tracé 833" d="M203.426,155.45s.007,0,.01,0c.222-.078.284-.651.288-1.072a1.252,1.252,0,0,0-.039-.454c-.052-.144-.124-.111-.212.082A3.769,3.769,0,0,0,203.426,155.45Z" transform="translate(-84.388 -42.297)"/>
    <path id="Tracé_834" data-name="Tracé 834" d="M222.536,158.88s.007,0,.01,0c.222-.078.284-.651.288-1.072a1.252,1.252,0,0,0-.039-.454c-.052-.144-.124-.111-.212.082A3.769,3.769,0,0,0,222.536,158.88Z" transform="translate(-97.252 -44.605)"/>
    <path id="Tracé_835" data-name="Tracé 835" d="M207.019,161.9s.007,0,.01,0c.275-.1.356-.811.36-1.334a1.528,1.528,0,0,0-.049-.566c-.062-.18-.154-.137-.262.1A4.645,4.645,0,0,0,207.019,161.9Z" transform="translate(-86.798 -46.371)"/>
    <path id="Tracé_836" data-name="Tracé 836" d="M210.184,159.059c.226.124.343.042.376-.353a1.369,1.369,0,0,0-.007-.464c-.039-.18-.118-.216-.216-.111s-.271.8-.16.915C210.178,159.052,210.181,159.059,210.184,159.059Z" transform="translate(-88.946 -45.147)"/>
    <path id="Tracé_837" data-name="Tracé 837" d="M380.752,154.535c.16.311.134-.333.141-.569,0-.026,0-.049,0-.075-.036-.373-.111-.847-.095-.938-.007-.121-.2-.154-.222.02-.01.059-.016.657-.013.713A1.329,1.329,0,0,0,380.752,154.535Z" transform="translate(-203.652 -41.633)"/>
    <path id="Tracé_838" data-name="Tracé 838" d="M390.235,154.909c.3.108.082-.382.056-.615a.576.576,0,0,0-.016-.072c-.088-.35-.229-.785-.226-.879-.023-.114-.216-.065-.212.111,0,.062-.039.765-.029.817C389.839,154.526,389.875,154.781,390.235,154.909Z" transform="translate(-209.878 -41.922)"/>
    <path id="Tracé_839" data-name="Tracé 839" d="M384.149,155.058c.2.239.16-.4.134-.634a.565.565,0,0,0-.016-.072c-.088-.35-.229-.785-.226-.879-.023-.114-.216-.065-.212.111,0,.062-.029.67-.016.722A1.169,1.169,0,0,0,384.149,155.058Z" transform="translate(-205.843 -42.01)"/>
    <path id="Tracé_840" data-name="Tracé 840" d="M377.984,153.459c-.042-.219-.1-.284-.186-.18-.01,0-.114.84.013.941C377.919,154.319,378.02,153.675,377.984,153.459Z" transform="translate(-201.763 -41.888)"/>
    <path id="Tracé_841" data-name="Tracé 841" d="M375.175,153.808c.271.137.34-.546.3-.762s-.235-.288-.317-.18C375.155,152.863,375.028,153.736,375.175,153.808Z" transform="translate(-199.983 -41.609)"/>
    <path id="Tracé_842" data-name="Tracé 842" d="M387.078,154.812c.235.016.2-.651.134-.84s-.222-.209-.284-.062C386.921,153.913,386.941,154.806,387.078,154.812Z" transform="translate(-207.941 -42.28)"/>
    <path id="Tracé_843" data-name="Tracé 843" d="M398.656,156.322c.235.016.2-.651.134-.84s-.222-.209-.284-.062C398.5,155.42,398.519,156.313,398.656,156.322Z" transform="translate(-215.734 -43.296)"/>
    <path id="Tracé_844" data-name="Tracé 844" d="M371.86,154.513a.011.011,0,0,0,.007,0,3.769,3.769,0,0,0-.046-1.442c-.088-.193-.16-.226-.212-.082a1.253,1.253,0,0,0-.039.454C371.576,153.859,371.638,154.435,371.86,154.513Z" transform="translate(-197.604 -41.664)"/>
    <path id="Tracé_845" data-name="Tracé 845" d="M394.677,155.453s.007,0,.01,0a3.769,3.769,0,0,0-.046-1.442c-.088-.193-.16-.226-.212-.082a1.253,1.253,0,0,0-.039.454C394.393,154.8,394.455,155.375,394.677,155.453Z" transform="translate(-212.964 -42.297)"/>
    <path id="Tracé_846" data-name="Tracé 846" d="M387.4,158.253a1.361,1.361,0,0,0-.007.464c.033.392.15.474.376.353,0,0,.007-.007.007-.01.108-.118-.069-.807-.16-.915S387.439,158.073,387.4,158.253Z" transform="translate(-208.247 -45.155)"/>
  </g>
</svg>
