<svg xmlns="http://www.w3.org/2000/svg" width="21.413" height="21.413" viewBox="0 0 21.413 21.413" fill="#FFF">
  <path id="instagram_5_" data-name="instagram (5)" d="M18.424,5.7h0a1.285,1.285,0,1,0,1.285,1.285A1.285,1.285,0,0,0,18.424,5.7ZM23.349,8.3a8.126,8.126,0,0,0-.493-2.6,5.289,5.289,0,0,0-1.242-1.9,5.032,5.032,0,0,0-1.9-1.231,7.816,7.816,0,0,0-2.6-.5C15.983,2,15.619,2,12.707,2S9.43,2,8.3,2.064a7.816,7.816,0,0,0-2.6.5A5.118,5.118,0,0,0,3.8,3.8a5.032,5.032,0,0,0-1.231,1.9,7.816,7.816,0,0,0-.5,2.6C2,9.43,2,9.794,2,12.707s0,3.276.064,4.411a7.816,7.816,0,0,0,.5,2.6,5.032,5.032,0,0,0,1.231,1.9,5.118,5.118,0,0,0,1.9,1.231,7.816,7.816,0,0,0,2.6.5c1.135.064,1.5.064,4.411.064s3.276,0,4.411-.064a7.816,7.816,0,0,0,2.6-.5,5.032,5.032,0,0,0,1.9-1.231,5.193,5.193,0,0,0,1.242-1.9,8.126,8.126,0,0,0,.493-2.6c0-1.135.064-1.5.064-4.411S23.413,9.43,23.349,8.3Zm-1.927,8.694a6.006,6.006,0,0,1-.364,1.991,3.276,3.276,0,0,1-.8,1.231,3.415,3.415,0,0,1-1.231.8,6.006,6.006,0,0,1-1.991.364c-1.071.054-1.467.064-4.283.064s-3.212,0-4.283-.064a6.135,6.135,0,0,1-2.077-.321,3.5,3.5,0,0,1-1.178-.8,3.212,3.212,0,0,1-.792-1.231,5.931,5.931,0,0,1-.428-2.034c0-1.071-.064-1.467-.064-4.283s0-3.212.064-4.283A5.931,5.931,0,0,1,4.366,6.39a3.212,3.212,0,0,1,.846-1.178A3.362,3.362,0,0,1,6.39,4.355a6.135,6.135,0,0,1,2.034-.364c1.071,0,1.467-.064,4.283-.064s3.212,0,4.283.064a6.006,6.006,0,0,1,1.991.364,3.276,3.276,0,0,1,1.274.857,3.276,3.276,0,0,1,.8,1.178,6.006,6.006,0,0,1,.364,2.034c.054,1.071.064,1.467.064,4.283S21.475,15.919,21.422,16.989ZM12.707,7.214a5.482,5.482,0,1,0,3.894,1.6,5.493,5.493,0,0,0-3.894-1.6Zm0,9.058a3.565,3.565,0,1,1,3.565-3.565,3.565,3.565,0,0,1-3.565,3.565Z" transform="translate(-2 -2)" fill="#FFF"/>
</svg>
