<svg xmlns="http://www.w3.org/2000/svg" width="21.285" height="21.414" viewBox="0 0 21.285 21.414">
  <path id="linkedin_6_" data-name="linkedin (6)" d="M21.771,2H3.634A1.552,1.552,0,0,0,2.06,3.531V21.882a1.552,1.552,0,0,0,1.574,1.531H21.771a1.552,1.552,0,0,0,1.574-1.531V3.531A1.552,1.552,0,0,0,21.771,2ZM8.516,19.923H5.3V10.287H8.516ZM6.91,8.938h0a1.67,1.67,0,1,1,0-3.34,1.681,1.681,0,1,1,0,3.34ZM20.1,19.923H16.889V14.752c0-1.3-.46-2.141-1.627-2.141a1.767,1.767,0,0,0-1.649,1.167,2.141,2.141,0,0,0-.107.782v5.353H10.293V10.276h3.212v1.36a3.212,3.212,0,0,1,2.9-1.606c2.141,0,3.694,1.381,3.694,4.347Z" transform="translate(-2.06 -2)" fill="#141a35"/>
</svg>
