<svg id="Calque_1" data-name="Calque 1" xmlns="http://www.w3.org/2000/svg" viewBox="0 0 439.2 340.75"><defs><style>.cls-1{fill:#6449d0;}.cls-2{fill:#fe0c39;}</style></defs><path class="cls-1" d="M222.75,350c-3.09,1.21-3,3.36-3.54,4.95C196.08,423.45,170.65,491.14,146,559.1c-1.32,3.64-2.82,5.26-7,5.11-10-.38-20-.33-30,0-3.84.12-5.51-1.17-6.78-4.69-24.7-68.14-50.3-136-73-204.82-.5-1.51-.59-3.27-2.94-4.82-.76,5.7.52,10.82,1.05,15.86,3.86,37.1,7.46,74.19,7,111.58-.41,37.14-.16,74.29,0,111.44,0,4.08-.89,5.35-5.15,5.29q-26.49-.39-53,0c-4.09.06-4.89-1.25-4.89-5q.15-161.93,0-323.84c0-4,.77-5.47,5.12-5.43,22.66.22,45.31.16,68,0,3.07,0,4.67.68,5.8,3.84,20.66,58.09,42.89,115.61,62.41,174.11,3.84,11.51,7.1,23.21,10.73,34.8.4,1.26.15,3.46,2.2,3.42s1.78-2.25,2.15-3.51c21-69.94,47.32-138,71-207.06,1.41-4.12,3.08-5.71,7.61-5.65,22.32.25,44.65.19,67,0,3.62,0,4.8.76,4.8,4.63q-.17,162.67,0,325.34c0,3.67-1.21,4.33-4.54,4.3-18.33-.15-36.66-.19-55,0-3.87,0-4.63-1.16-4.61-4.78.15-45-.23-90,.29-134.93.32-27.47,3.37-54.8,6.36-82.11C221.42,365,222,357.76,222.75,350Z" transform="translate(28.63 -259.68)"/><path class="cls-2" d="M324.66,554.75c.27-34.4,33.39-55.59,62.94-39.94,16.5,8.74,23.42,23.52,22.95,41.71s-8.61,32.66-25.68,40c-15.78,6.75-31.36,4.94-44.9-6.38C329,581,324.53,568.81,324.66,554.75Z" transform="translate(28.63 -259.68)"/></svg>